<?xml version="1.0" encoding="us-ascii" standalone="no"?><svg xmlns="http://www.w3.org/2000/svg" xmlns:xlink="http://www.w3.org/1999/xlink" contentStyleType="text/css" height="614px" preserveAspectRatio="none" style="width:1260px;height:614px;background:#FFFFFF;" version="1.1" viewBox="0 0 1260 614" width="1260px" zoomAndPan="magnify"><defs/><g><text fill="#000000" font-family="sans-serif" font-size="14" font-weight="bold" lengthAdjust="spacing" textLength="377" x="434.5" y="22.9951">General Conditions Forecast Report Use-Cases</text><!--entity CEO--><g id="elem_CEO"><ellipse cx="41" cy="427.2969" fill="#F1F1F1" rx="16" ry="16" style="stroke:#181818;stroke-width:0.5;"/><path d="M41,447.2969 C45,447.2969 48,447.2969 52,443.2969 C60,443.2969 68,451.2969 68,459.2969 L68,463.2969 C68,467.2969 64,471.2969 60,471.2969 L22,471.2969 C18,471.2969 14,467.2969 14,463.2969 L14,459.2969 C14,451.2969 22,443.2969 30,443.2969 C34,447.2969 37,447.2969 41,447.2969 " fill="#F1F1F1" style="stroke:#181818;stroke-width:0.5;"/><text fill="#000000" font-family="sans-serif" font-size="14" lengthAdjust="spacing" textLength="70" x="6" y="484.792">Executive</text></g><!--entity Manager--><g id="elem_Manager"><ellipse cx="390" cy="213.2969" fill="#F1F1F1" rx="16" ry="16" style="stroke:#181818;stroke-width:0.5;"/><path d="M390,233.2969 C394,233.2969 397,233.2969 401,229.2969 C409,229.2969 417,237.2969 417,245.2969 L417,249.2969 C417,253.2969 413,257.2969 409,257.2969 L371,257.2969 C367,257.2969 363,253.2969 363,249.2969 L363,245.2969 C363,237.2969 371,229.2969 379,229.2969 C383,233.2969 386,233.2969 390,233.2969 " fill="#F1F1F1" style="stroke:#181818;stroke-width:0.5;"/><text fill="#000000" font-family="sans-serif" font-size="14" lengthAdjust="spacing" textLength="104" x="338" y="270.792">GCFR Manager</text></g><!--entity Creator--><g id="elem_Creator"><ellipse cx="936" cy="59.2969" fill="#F1F1F1" rx="16" ry="16" style="stroke:#181818;stroke-width:0.5;"/><path d="M936,79.2969 C940,79.2969 943,79.2969 947,75.2969 C955,75.2969 963,83.2969 963,91.2969 L963,95.2969 C963,99.2969 959,103.2969 955,103.2969 L917,103.2969 C913,103.2969 909,99.2969 909,95.2969 L909,91.2969 C909,83.2969 917,75.2969 925,75.2969 C929,79.2969 932,79.2969 936,79.2969 " fill="#F1F1F1" style="stroke:#181818;stroke-width:0.5;"/><text fill="#000000" font-family="sans-serif" font-size="14" lengthAdjust="spacing" textLength="164" x="854" y="116.792">GCFR Forecast Creator</text></g><!--entity Reporter--><g id="elem_Reporter"><ellipse cx="1068" cy="320.2969" fill="#F1F1F1" rx="16" ry="16" style="stroke:#181818;stroke-width:0.5;"/><path d="M1068,340.2969 C1072,340.2969 1075,340.2969 1079,336.2969 C1087,336.2969 1095,344.2969 1095,352.2969 L1095,356.2969 C1095,360.2969 1091,364.2969 1087,364.2969 L1049,364.2969 C1045,364.2969 1041,360.2969 1041,356.2969 L1041,352.2969 C1041,344.2969 1049,336.2969 1057,336.2969 C1061,340.2969 1064,340.2969 1068,340.2969 " fill="#F1F1F1" style="stroke:#181818;stroke-width:0.5;"/><text fill="#000000" font-family="sans-serif" font-size="14" lengthAdjust="spacing" textLength="243" x="946.5" y="377.792">GCFR Forecast vs Actual Reporter</text></g><g id="elem_Create"><ellipse cx="797.1952" cy="235.1359" fill="#F1F1F1" rx="69.6952" ry="16.339" style="stroke:#181818;stroke-width:0.5;"/><text fill="#000000" font-family="sans-serif" font-size="14" lengthAdjust="spacing" textLength="92" x="748.1952" y="238.8835">Create GCFR</text></g><g id="elem_Review"><ellipse cx="607.9333" cy="449.2835" fill="#F1F1F1" rx="70.4333" ry="16.4867" style="stroke:#181818;stroke-width:0.5;"/><text fill="#000000" font-family="sans-serif" font-size="14" lengthAdjust="spacing" textLength="94" x="557.9333" y="453.0311">Review GCFR</text></g><g id="elem_Report"><ellipse cx="453.7599" cy="586.6489" fill="#F1F1F1" rx="97.2599" ry="21.852" style="stroke:#181818;stroke-width:0.5;"/><text fill="#000000" font-family="sans-serif" font-size="14" lengthAdjust="spacing" textLength="158" x="374.7599" y="589.4955">Create GCFR vs actual</text></g><!--link Creator to Create--><g id="link_Creator_Create"><path d="M853.913,117.5239 C840.353,126.3909 827.608,137.0899 818,149.7969 C802.593,170.1749 798.7329,194.4835 797.6459,212.7235 " fill="none" id="Creator-to-Create" style="stroke:#181818;stroke-width:1.0;"/><polygon fill="#181818" points="797.289,218.7129,801.8173,209.9668,797.5864,213.7217,793.8315,209.4909,797.289,218.7129" style="stroke:#181818;stroke-width:1.0;"/><text fill="#000000" font-family="sans-serif" font-size="13" lengthAdjust="spacing" textLength="196" x="819" y="162.8638">creates GCFR for given project</text></g><!--link Create to Review--><g id="link_Create_Review"><path d="M785.383,251.7489 C775.781,265.0329 762.268,284.9719 753,303.7969 C736.983,336.3329 749.202,352.9249 726,380.7969 C704.709,406.3719 676.6058,421.9258 650.6838,432.8278 " fill="none" id="Create-to-Review" style="stroke:#181818;stroke-width:1.0;stroke-dasharray:7.0,7.0;"/><polygon fill="#181818" points="645.153,435.1539,654.9999,435.3519,649.762,433.2155,651.8984,427.9776,645.153,435.1539" style="stroke:#181818;stroke-width:1.0;"/><text fill="#000000" font-family="sans-serif" font-size="13" lengthAdjust="spacing" textLength="174" x="754" y="346.8638">get GCFR Ready for review</text></g><!--link Manager to Review--><g id="link_Manager_Review"><path d="M385.459,274.0119 C383.759,306.1379 386.787,351.6069 412,380.7969 C441.775,415.2689 466.926,395.9819 510,410.7969 C531.533,418.2029 549.8192,425.1211 568.6092,432.5101 " fill="none" id="Manager-to-Review" style="stroke:#181818;stroke-width:1.0;"/><polygon fill="#181818" points="574.193,434.7059,567.2812,427.6897,569.5399,432.8761,564.3535,435.1347,574.193,434.7059" style="stroke:#181818;stroke-width:1.0;"/><text fill="#000000" font-family="sans-serif" font-size="13" lengthAdjust="spacing" textLength="304" x="413" y="346.8638">reviews and approves GCFR by defined policies</text></g><!--link Review to Report--><g id="link_Review_Report"><path d="M590.931,465.3159 C563.287,489.6389 513.1766,533.7293 481.9216,561.2297 " fill="none" id="Review-to-Report" style="stroke:#181818;stroke-width:1.0;stroke-dasharray:7.0,7.0;"/><polygon fill="#181818" points="477.417,565.1932,486.8161,562.2511,481.1708,561.8903,481.5316,556.245,477.417,565.1932" style="stroke:#181818;stroke-width:1.0;"/><text fill="#000000" font-family="sans-serif" font-size="13" lengthAdjust="spacing" textLength="167" x="532" y="530.8638">provides fulfilled template</text></g><!--link Creator to Reporter--><g id="link_Creator_Reporter"><path d="M997.9259,123.8988 C1007.9749,132.6718 1012.94,138.7699 1020,149.7969 C1050.41,197.2729 1060.9627,256.8367 1065.0427,297.6177 " fill="none" id="Creator-Reporter" style="stroke:#181818;stroke-width:1.0;stroke-dasharray:7.0,7.0;"/><polygon fill="#181818" points="993.406,119.9529,997.5552,128.8851,997.1726,123.2412,1002.8165,122.8586,993.406,119.9529" style="stroke:#181818;stroke-width:1.0;"/><polygon fill="#181818" points="1065.64,303.5879,1068.7242,294.2344,1065.1423,298.6127,1060.7639,295.0308,1065.64,303.5879" style="stroke:#181818;stroke-width:1.0;"/><text fill="#000000" font-family="sans-serif" font-size="13" lengthAdjust="spacing" textLength="68" x="1030" y="162.8638">coordinate</text></g><!--link Reporter to Report--><g id="link_Reporter_Report"><path d="M946.34,379.8979 C922.465,388.7849 898.015,399.1409 876,410.7969 C793.984,454.2229 792.85,497.2099 708,534.7969 C655.773,557.9319 598.7971,569.8397 548.6471,576.797 " fill="none" id="Reporter-to-Report" style="stroke:#181818;stroke-width:1.0;"/><polygon fill="#181818" points="542.704,577.6215,552.1683,580.3468,547.6566,576.9344,551.069,572.4227,542.704,577.6215" style="stroke:#181818;stroke-width:1.0;"/><text fill="#000000" font-family="sans-serif" font-size="13" lengthAdjust="spacing" textLength="375" x="877" y="453.8638">aligns forecasted GC spends vs actual at defined schedule</text></g><!--link Manager to Report--><g id="link_Manager_Report"><path d="M380.023,274.1419 C368.612,324.4299 354.461,415.3569 379,487.7969 C389.379,518.4378 409.3851,542.7655 427.5141,561.0635 " fill="none" id="Manager-to-Report" style="stroke:#181818;stroke-width:1.0;"/><polygon fill="#181818" points="431.737,565.3258,428.2442,556.1171,428.2179,561.7739,422.5611,561.7476,431.737,565.3258" style="stroke:#181818;stroke-width:1.0;"/><text fill="#000000" font-family="sans-serif" font-size="13" lengthAdjust="spacing" textLength="139" x="380" y="453.8638">reviews GCFR reports</text></g><!--link CEO to Report--><g id="link_CEO_Report"><path d="M29.0186,487.8829 C26.2922,504.1369 26.9102,522.2645 38,534.7969 C58.9754,558.5008 237.6305,573.1714 353.7655,580.3758 " fill="none" id="CEO-to-Report" style="stroke:#181818;stroke-width:1.0;"/><polygon fill="#181818" points="359.754,580.7473,351.0189,576.1977,354.7636,580.4377,350.5236,584.1824,359.754,580.7473" style="stroke:#181818;stroke-width:1.0;"/><text fill="#000000" font-family="sans-serif" font-size="13" lengthAdjust="spacing" textLength="295" x="39" y="530.8638">makes managerial decisions based on reports</text></g><!--SRC=[XL91RiCW4BppYfLFpI5zG5H5ggmafwgIgpvW0skN1eC5s6b-tpNWfCcb9-FTcTaPsAYZ8JYG9Oy6QcULZjhP07ldIMA8qD3WV8JFGEiQ0mKXmadR0JtsW38w_n4lB85d2gud8QhT3yanweagm03rxbrKXthVm1jQxCYdQZcNpdLMxGbPCHFp-H4o1NYLSMIpsLWHN7u46qXC3iMyr7lAXPMe6feqdVzqSc5rnvb7O1gnO6RfrN-vYrzOhxVPEsr0fc_8iYqtExuM2uDttoIZA4EVdxUGZMoWevZH3Q6w98vFBL6kBEalwDnYkrO13YmxBSEE5r3KQaiA1cUqrFnm9NqUDsVQp4uchPZKZgRLnZ0yKZyOjdKDz78ZaETCpdcbxOnOYiLJbaIZEzwVjZmOAnvg20DP5Mut2nYl_eBy8ZKQUaYOrPQ4APHFnI1uf-v0FPuuGf_fcjKLIHtI6XzvPHKukt1_0G00]--></g></svg>