<svg xmlns="http://www.w3.org/2000/svg" xmlns:xlink="http://www.w3.org/1999/xlink" contentStyleType="text/css" data-diagram-type="DESCRIPTION" height="615px" preserveAspectRatio="none" style="width:1264px;height:615px;background:#FFFFFF;" version="1.1" viewBox="0 0 1264 615" width="1264px" zoomAndPan="magnify"><title>General Conditions Forecast Report Use-Cases</title><defs/><g><text fill="#000000" font-family="sans-serif" font-size="14" font-weight="bold" lengthAdjust="spacing" textLength="367.9375" x="441.0824" y="22.9951">General Conditions Forecast Report Use-Cases</text><!--entity CEO--><g id="elem_CEO"><ellipse cx="40.2959" cy="428.1869" fill="#F1F1F1" rx="16" ry="16" style="stroke:#181818;stroke-width:0.5;"/><path d="M40.2959,448.1869 C44.2959,448.1869 47.2959,448.1869 51.2959,444.1869 C59.2959,444.1869 67.2959,452.1869 67.2959,460.1869 L67.2959,464.1869 C67.2959,468.1869 63.2959,472.1869 59.2959,472.1869 L21.2959,472.1869 C17.2959,472.1869 13.2959,468.1869 13.2959,464.1869 L13.2959,460.1869 C13.2959,452.1869 21.2959,444.1869 29.2959,444.1869 C33.2959,448.1869 36.2959,448.1869 40.2959,448.1869 " fill="#F1F1F1" style="stroke:#181818;stroke-width:0.5;"/><text fill="#000000" font-family="sans-serif" font-size="14" lengthAdjust="spacing" textLength="68.5918" x="6" y="485.682">Executive</text></g><!--entity Manager--><g id="elem_Manager"><ellipse cx="393.3004" cy="213.5969" fill="#F1F1F1" rx="16" ry="16" style="stroke:#181818;stroke-width:0.5;"/><path d="M393.3004,233.5969 C397.3004,233.5969 400.3004,233.5969 404.3004,229.5969 C412.3004,229.5969 420.3004,237.5969 420.3004,245.5969 L420.3004,249.5969 C420.3004,253.5969 416.3004,257.5969 412.3004,257.5969 L374.3004,257.5969 C370.3004,257.5969 366.3004,253.5969 366.3004,249.5969 L366.3004,245.5969 C366.3004,237.5969 374.3004,229.5969 382.3004,229.5969 C386.3004,233.5969 389.3004,233.5969 393.3004,233.5969 " fill="#F1F1F1" style="stroke:#181818;stroke-width:0.5;"/><text fill="#000000" font-family="sans-serif" font-size="14" lengthAdjust="spacing" textLength="104.2207" x="341.19" y="271.092">GCFR Manager</text></g><!--entity Creator--><g id="elem_Creator"><ellipse cx="930.2929" cy="59.2969" fill="#F1F1F1" rx="16" ry="16" style="stroke:#181818;stroke-width:0.5;"/><path d="M930.2929,79.2969 C934.2929,79.2969 937.2929,79.2969 941.2929,75.2969 C949.2929,75.2969 957.2929,83.2969 957.2929,91.2969 L957.2929,95.2969 C957.2929,99.2969 953.2929,103.2969 949.2929,103.2969 L911.2929,103.2969 C907.2929,103.2969 903.2929,99.2969 903.2929,95.2969 L903.2929,91.2969 C903.2929,83.2969 911.2929,75.2969 919.2929,75.2969 C923.2929,79.2969 926.2929,79.2969 930.2929,79.2969 " fill="#F1F1F1" style="stroke:#181818;stroke-width:0.5;"/><text fill="#000000" font-family="sans-serif" font-size="14" lengthAdjust="spacing" textLength="159.8857" x="850.35" y="116.792">GCFR Forecast Creator</text></g><!--entity Reporter--><g id="elem_Reporter"><ellipse cx="1074.2919" cy="320.8869" fill="#F1F1F1" rx="16" ry="16" style="stroke:#181818;stroke-width:0.5;"/><path d="M1074.2919,340.8869 C1078.2919,340.8869 1081.2919,340.8869 1085.2919,336.8869 C1093.2919,336.8869 1101.2919,344.8869 1101.2919,352.8869 L1101.2919,356.8869 C1101.2919,360.8869 1097.2919,364.8869 1093.2919,364.8869 L1055.2919,364.8869 C1051.2919,364.8869 1047.2919,360.8869 1047.2919,356.8869 L1047.2919,352.8869 C1047.2919,344.8869 1055.2919,336.8869 1063.2919,336.8869 C1067.2919,340.8869 1070.2919,340.8869 1074.2919,340.8869 " fill="#F1F1F1" style="stroke:#181818;stroke-width:0.5;"/><text fill="#000000" font-family="sans-serif" font-size="14" lengthAdjust="spacing" textLength="237.3438" x="955.62" y="378.382">GCFR Forecast vs Actual Reporter</text></g><g id="elem_Create"><ellipse cx="780.2979" cy="235.7465" fill="#F1F1F1" rx="68.8479" ry="16.1696" style="stroke:#181818;stroke-width:0.5;"/><text fill="#000000" font-family="sans-serif" font-size="14" lengthAdjust="spacing" textLength="89.6807" x="732.4576" y="239.494">Create GCFR</text></g><g id="elem_Review"><ellipse cx="611.3036" cy="450.3416" fill="#F1F1F1" rx="70.2236" ry="16.4447" style="stroke:#181818;stroke-width:0.5;"/><text fill="#000000" font-family="sans-serif" font-size="14" lengthAdjust="spacing" textLength="93.4336" x="561.5868" y="454.0892">Review GCFR</text></g><g id="elem_Report"><ellipse cx="433.2998" cy="587.7628" fill="#F1F1F1" rx="96.9298" ry="21.786" style="stroke:#181818;stroke-width:0.5;"/><text fill="#000000" font-family="sans-serif" font-size="14" lengthAdjust="spacing" textLength="157.2676" x="354.666" y="590.6095">Create GCFR vs actual</text></g><!--link Creator to Create--><g id="link_Creator_Create"><path d="M857.17,120.4569 C844.57,129.0869 832.32,139.0269 822.3,150.0969 C803.69,170.6469 793.284,195.2805 787.044,213.5005 " fill="#FFFFFF" fill-opacity="0.00000" id="Creator-to-Create" style="stroke:#181818;stroke-width:1;"/><polygon fill="#181818" points="785.1,219.1769,791.8003,211.9584,786.72,214.4466,784.2318,209.3664,785.1,219.1769" style="stroke:#181818;stroke-width:1;"/><text fill="#000000" font-family="sans-serif" font-size="13" lengthAdjust="spacing" textLength="199.5894" x="823.3" y="163.1638">creates GCFR for given project</text></g><!--link Create to Review--><g id="link_Create_Review"><path d="M776.08,252.2569 C766.39,287.5169 742.74,371.4069 734.3,381.6869 C712.72,407.9569 683.7089,423.4788 656.6989,434.1688 " fill="#FFFFFF" fill-opacity="0.00000" id="Create-to-Review" style="stroke:#181818;stroke-width:1;stroke-dasharray:7.0,7.0;"/><polygon fill="#181818" points="651.12,436.3769,660.9604,436.7841,655.7691,434.5368,658.0164,429.3455,651.12,436.3769" style="stroke:#181818;stroke-width:1;"/><text fill="#000000" font-family="sans-serif" font-size="13" lengthAdjust="spacing" textLength="175.6333" x="761.3" y="347.6038">get GCFR Ready for review</text></g><!--link Manager to Review--><g id="link_Manager_Review"><path d="M388.7,274.5869 C386.96,306.8269 389.97,352.4369 415.3,381.6869 C445.39,416.4469 470.83,396.6969 514.3,411.6869 C535.64,419.0569 553.6996,425.9675 572.2896,433.4075 " fill="#FFFFFF" fill-opacity="0.00000" id="Manager-to-Review" style="stroke:#181818;stroke-width:1;"/><polygon fill="#181818" points="577.86,435.6369,570.9906,428.5792,573.218,433.7791,568.0181,436.0064,577.86,435.6369" style="stroke:#181818;stroke-width:1;"/><text fill="#000000" font-family="sans-serif" font-size="13" lengthAdjust="spacing" textLength="309.0293" x="416.3" y="347.6038">reviews and approves GCFR by defined policies</text></g><!--link Review to Report--><g id="link_Review_Report"><path d="M591.57,466.3469 C559.52,490.7269 500.9053,535.3341 464.8353,562.7741 " fill="#FFFFFF" fill-opacity="0.00000" id="Review-to-Report" style="stroke:#181818;stroke-width:1;stroke-dasharray:7.0,7.0;"/><polygon fill="#181818" points="460.06,566.4069,469.6447,564.1413,464.0394,563.3796,464.8011,557.7742,460.06,566.4069" style="stroke:#181818;stroke-width:1;"/><text fill="#000000" font-family="sans-serif" font-size="13" lengthAdjust="spacing" textLength="170.917" x="523.3" y="532.0538">provides fulfilled template</text></g><!--link Creator to Reporter--><g id="link_Creator_Reporter"><path d="M1003.3343,124.1684 C1014.1943,132.7184 1019.63,138.9169 1027.3,150.0969 C1059.31,196.7869 1069.1066,257.0456 1072.3666,298.2356 " fill="#FFFFFF" fill-opacity="0.00000" id="Creator-Reporter" style="stroke:#181818;stroke-width:1;stroke-dasharray:7.0,7.0;"/><polygon fill="#181818" points="998.62,120.4569,1003.2171,129.167,1002.5486,123.5498,1008.1658,122.8813,998.62,120.4569" style="stroke:#181818;stroke-width:1;"/><polygon fill="#181818" points="1072.84,304.2169,1076.1174,294.9293,1072.4455,299.2325,1068.1424,295.5605,1072.84,304.2169" style="stroke:#181818;stroke-width:1;"/><text fill="#000000" font-family="sans-serif" font-size="13" lengthAdjust="spacing" textLength="69.564" x="1037.3" y="163.1638">coordinate</text></g><!--link Reporter to Report--><g id="link_Reporter_Report"><path d="M955.37,381.0169 C921.64,392.2169 889.85,403.6669 874.3,411.6869 C790.46,454.9069 788.94,498.7169 702.3,535.9869 C645.65,560.3469 583.2749,572.3326 529.6649,578.9426 " fill="#FFFFFF" fill-opacity="0.00000" id="Reporter-to-Report" style="stroke:#181818;stroke-width:1;"/><polygon fill="#181818" points="523.71,579.6769,533.1318,582.5455,528.6724,579.065,532.1529,574.6056,523.71,579.6769" style="stroke:#181818;stroke-width:1;"/><text fill="#000000" font-family="sans-serif" font-size="13" lengthAdjust="spacing" textLength="380.8022" x="875.3" y="454.9038">aligns forecasted GC spends vs actual at defined schedule</text></g><!--link Manager to Report--><g id="link_Manager_Report"><path d="M384.79,274.5869 C375.09,324.5169 362.79,414.7569 381.3,488.9869 C388.41,517.5269 402.2712,541.895 414.9412,560.895 " fill="#FFFFFF" fill-opacity="0.00000" id="Manager-to-Report" style="stroke:#181818;stroke-width:1;"/><polygon fill="#181818" points="418.27,565.8869,416.6047,556.1798,415.496,561.727,409.9489,560.6182,418.27,565.8869" style="stroke:#181818;stroke-width:1;"/><text fill="#000000" font-family="sans-serif" font-size="13" lengthAdjust="spacing" textLength="140.7402" x="382.3" y="454.9038">reviews GCFR reports</text></g><!--link CEO to Report--><g id="link_CEO_Report"><path d="M28.26,489.3869 C25.62,505.5569 26.32,523.5069 37.3,535.9869 C57.01,558.3969 223.494,573.2271 334.224,580.8071 " fill="#FFFFFF" fill-opacity="0.00000" id="CEO-to-Report" style="stroke:#181818;stroke-width:1;"/><polygon fill="#181818" points="340.21,581.2169,331.5042,576.6116,335.2217,580.8754,330.9578,584.5929,340.21,581.2169" style="stroke:#181818;stroke-width:1;"/><text fill="#000000" font-family="sans-serif" font-size="13" lengthAdjust="spacing" textLength="299.7681" x="38.3" y="532.0538">makes managerial decisions based on reports</text></g><!--SRC=[XL91RiCW4BppYfLFpI5zG5H5ggmafwgIgpvW0skN1eC5s6b-tpNWfCcb9-FTcTaPsAYZ8JYG9Oy6QcULZjhP07ldIMA8qD3WV8JFGEiQ0mKXmadR0JtsW38w_n4lB85d2gud8QhT3yanweagm03rxbrKXthVm1jQxCYdQZcNpdLMxGbPCHFp-H4o1NYLSMIpsLWHN7u46qXC3iMyr7lAXPMe6feqdVzqSc5rnvb7O1gnO6RfrN-vYrzOhxVPEsr0fc_8iYqtExuM2uDttoIZA4EVdxUGZMoWevZH3Q6w98vFBL6kBEalwDnYkrO13YmxBSEE5r3KQaiA1cUqrFnm9NqUDsVQp4uchPZKZgRLnZ0yKZyOjdKDz78ZaETCpdcbxOnOYiLJbaIZEzwVjZmOAnvg20DP5Mut2nYl_eBy8ZKQUaYOrPQ4APHFnI1uf-v0FPuuGf_fcjKLIHtI6XzvPHKukt1_0G00]--></g></svg>