<?xml version="1.0" encoding="us-ascii" standalone="no"?><svg xmlns="http://www.w3.org/2000/svg" xmlns:xlink="http://www.w3.org/1999/xlink" contentStyleType="text/css" height="1330px" preserveAspectRatio="none" style="width:1665px;height:1330px;background:#FFFFFF;" version="1.1" viewBox="0 0 1665 1330" width="1665px" zoomAndPan="magnify"><defs/><g><!--cluster Continuous Integration (CI)--><g id="cluster_Continuous Integration (CI)"><rect fill="none" height="373" rx="2.5" ry="2.5" style="stroke:#181818;stroke-width:1.0;" width="684" x="937" y="266.5"/><text fill="#000000" font-family="sans-serif" font-size="14" font-weight="bold" lengthAdjust="spacing" textLength="222" x="1168" y="281.4951">Continuous Integration (CI)</text></g><!--cluster Development (DEV)--><g id="cluster_Development (DEV)"><rect fill="none" height="85" rx="2.5" ry="2.5" style="stroke:#181818;stroke-width:1.0;" width="340" x="1036" y="688.5"/><text fill="#000000" font-family="sans-serif" font-size="14" font-weight="bold" lengthAdjust="spacing" textLength="154" x="1129" y="703.4951">Development (DEV)</text></g><!--cluster Quality Assurance (QA)--><g id="cluster_Quality Assurance (QA)"><rect fill="none" height="83" rx="2.5" ry="2.5" style="stroke:#181818;stroke-width:1.0;" width="325" x="1211" y="841.5"/><text fill="#000000" font-family="sans-serif" font-size="14" font-weight="bold" lengthAdjust="spacing" textLength="189" x="1279" y="856.4951">Quality Assurance (QA)</text></g><!--cluster User Acceptance Testing (UAT)--><g id="cluster_User Acceptance Testing (UAT)"><rect fill="none" height="225" rx="2.5" ry="2.5" style="stroke:#181818;stroke-width:1.0;" width="405" x="387" y="978"/><text fill="#000000" font-family="sans-serif" font-size="14" font-weight="bold" lengthAdjust="spacing" textLength="253" x="463" y="992.9951">User Acceptance Testing (UAT)</text></g><!--cluster Production (PROD)--><g id="cluster_Production (PROD)"><rect fill="none" height="205" rx="2.5" ry="2.5" style="stroke:#181818;stroke-width:1.0;" width="277" x="7" y="1119"/><text fill="#000000" font-family="sans-serif" font-size="14" font-weight="bold" lengthAdjust="spacing" textLength="151" x="70" y="1133.9951">Production (PROD)</text></g><!--cluster Hotfixes--><g id="cluster_Hotfixes"><rect fill="none" height="507.5" rx="2.5" ry="2.5" style="stroke:#181818;stroke-width:1.0;" width="485" x="133" y="128.5"/><text fill="#000000" font-family="sans-serif" font-size="14" font-weight="bold" lengthAdjust="spacing" textLength="68" x="341.5" y="143.4951">Hotfixes</text></g><g id="elem_CreateFeatureBranch"><ellipse cx="1258.9604" cy="325.4921" fill="#F1F1F1" rx="95.4604" ry="21.4921" style="stroke:#181818;stroke-width:0.5;"/><text fill="#000000" font-family="sans-serif" font-size="14" lengthAdjust="spacing" textLength="154" x="1181.9604" y="328.3388">CreateFeatureBranch</text></g><g id="elem_CommitAndPushChanges"><ellipse cx="1496.7877" cy="325.3575" fill="#F1F1F1" rx="107.2877" ry="23.8575" style="stroke:#181818;stroke-width:0.5;"/><text fill="#000000" font-family="sans-serif" font-size="14" lengthAdjust="spacing" textLength="180" x="1406.7877" y="328.2042">CommitAndPushChanges</text></g><g id="elem_SubmitPullRequest"><ellipse cx="1040.9744" cy="325.3949" fill="#F1F1F1" rx="87.4744" ry="19.8949" style="stroke:#181818;stroke-width:0.5;"/><text fill="#000000" font-family="sans-serif" font-size="14" lengthAdjust="spacing" textLength="136" x="972.9744" y="328.2416">SubmitPullRequest</text></g><g id="elem_BuildAndTest"><ellipse cx="1028.8049" cy="448.561" fill="#F1F1F1" rx="70.8049" ry="16.561" style="stroke:#181818;stroke-width:0.5;"/><text fill="#000000" font-family="sans-serif" font-size="14" lengthAdjust="spacing" textLength="95" x="978.3049" y="452.3085">BuildAndTest</text></g><g id="elem_CodeReview"><ellipse cx="1203.24" cy="448.548" fill="#F1F1F1" rx="68.24" ry="16.048" style="stroke:#181818;stroke-width:0.5;"/><text fill="#000000" font-family="sans-serif" font-size="14" lengthAdjust="spacing" textLength="88" x="1156.24" y="452.2956">CodeReview</text></g><g id="elem_MergePullRequestToDevelopment"><ellipse cx="1124.7809" cy="593.5562" fill="#F1F1F1" rx="138.2809" ry="30.0562" style="stroke:#181818;stroke-width:0.5;"/><text fill="#000000" font-family="sans-serif" font-size="14" lengthAdjust="spacing" textLength="246" x="1001.7809" y="596.4029">MergePullRequestToDevelopment</text></g><g id="elem_DeployToDEV"><ellipse cx="1124.8073" cy="740.3615" fill="#F1F1F1" rx="72.3073" ry="16.8615" style="stroke:#181818;stroke-width:0.5;"/><text fill="#000000" font-family="sans-serif" font-size="14" lengthAdjust="spacing" textLength="99" x="1072.3073" y="744.109">DeployToDEV</text></g><g id="elem_TestInDEV"><ellipse cx="1296.2248" cy="740.645" fill="#F1F1F1" rx="63.7248" ry="15.145" style="stroke:#181818;stroke-width:0.5;"/><text fill="#000000" font-family="sans-serif" font-size="14" lengthAdjust="spacing" textLength="75" x="1255.7248" y="744.3925">TestInDEV</text></g><g id="elem_DeployToQA"><ellipse cx="1295.964" cy="892.6928" fill="#F1F1F1" rx="68.964" ry="16.1928" style="stroke:#181818;stroke-width:0.5;"/><text fill="#000000" font-family="sans-serif" font-size="14" lengthAdjust="spacing" textLength="90" x="1247.964" y="896.4404">DeployToQA</text></g><g id="elem_TestInQA"><ellipse cx="1459.8197" cy="892.2671" fill="#F1F1F1" rx="59.3197" ry="14.7671" style="stroke:#181818;stroke-width:0.5;"/><text fill="#000000" font-family="sans-serif" font-size="14" lengthAdjust="spacing" textLength="66" x="1423.8197" y="896.0147">TestInQA</text></g><g id="elem_CreateReleaseBranch"><ellipse cx="679.9095" cy="1034.5819" fill="#F1F1F1" rx="95.9095" ry="21.5819" style="stroke:#181818;stroke-width:0.5;"/><text fill="#000000" font-family="sans-serif" font-size="14" lengthAdjust="spacing" textLength="155" x="602.4095" y="1037.4286">CreateReleaseBranch</text></g><g id="elem_DeployToUAT"><ellipse cx="680.0529" cy="1170.7106" fill="#F1F1F1" rx="71.5529" ry="16.7106" style="stroke:#181818;stroke-width:0.5;"/><text fill="#000000" font-family="sans-serif" font-size="14" lengthAdjust="spacing" textLength="97" x="628.5529" y="1174.4581">DeployToUAT</text></g><g id="elem_ValidateInUAT"><ellipse cx="476.1868" cy="1034.4374" fill="#F1F1F1" rx="72.6868" ry="16.9374" style="stroke:#181818;stroke-width:0.5;"/><text fill="#000000" font-family="sans-serif" font-size="14" lengthAdjust="spacing" textLength="100" x="423.1868" y="1038.1849">ValidateInUAT</text></g><g id="elem_MergeToMain"><ellipse cx="197.1781" cy="1170.6356" fill="#F1F1F1" rx="71.1781" ry="16.6356" style="stroke:#181818;stroke-width:0.5;"/><text fill="#000000" font-family="sans-serif" font-size="14" lengthAdjust="spacing" textLength="96" x="146.1781" y="1174.3832">MergeToMain</text></g><g id="elem_DeployToProduction"><ellipse cx="174.8318" cy="1286.8664" fill="#F1F1F1" rx="92.3318" ry="20.8664" style="stroke:#181818;stroke-width:0.5;"/><text fill="#000000" font-family="sans-serif" font-size="14" lengthAdjust="spacing" textLength="147" x="101.3318" y="1289.713">DeployToProduction</text></g><g id="elem_Uses"><ellipse cx="57.1191" cy="1170.526" fill="#F1F1F1" rx="34.1191" ry="14.526" style="stroke:#181818;stroke-width:0.5;"/><text fill="#000000" font-family="sans-serif" font-size="14" lengthAdjust="spacing" textLength="32" x="40.6725" y="1173.5381">Uses</text></g><g id="elem_IdentifyProdBug"><ellipse cx="230.9652" cy="181.693" fill="#F1F1F1" rx="78.9652" ry="18.193" style="stroke:#181818;stroke-width:0.5;"/><text fill="#000000" font-family="sans-serif" font-size="14" lengthAdjust="spacing" textLength="116" x="170.9" y="185.1886">IdentifyProdBug</text></g><g id="elem_CreateHotfixBranch"><ellipse cx="240.0567" cy="325.5113" fill="#F1F1F1" rx="90.5567" ry="20.5113" style="stroke:#181818;stroke-width:0.5;"/><text fill="#000000" font-family="sans-serif" font-size="14" lengthAdjust="spacing" textLength="143" x="168.5567" y="328.358">CreateHotfixBranch</text></g><g id="elem_TestAndFix"><ellipse cx="239.92" cy="448.484" fill="#F1F1F1" rx="65.42" ry="15.484" style="stroke:#181818;stroke-width:0.5;"/><text fill="#000000" font-family="sans-serif" font-size="14" lengthAdjust="spacing" textLength="80" x="196.92" y="452.2316">TestAndFix</text></g><g id="elem_MergeHotfixToMain"><ellipse cx="238.2318" cy="593.7464" fill="#F1F1F1" rx="89.2318" ry="20.2464" style="stroke:#181818;stroke-width:0.5;"/><text fill="#000000" font-family="sans-serif" font-size="14" lengthAdjust="spacing" textLength="140" x="168.2318" y="596.593">MergeHotfixToMain</text></g><g id="elem_MergeHotfixToDevelopment"><ellipse cx="481.8655" cy="593.2731" fill="#F1F1F1" rx="119.3655" ry="26.2731" style="stroke:#181818;stroke-width:0.5;"/><text fill="#000000" font-family="sans-serif" font-size="14" lengthAdjust="spacing" textLength="206" x="378.8655" y="596.1198">MergeHotfixToDevelopment</text></g><!--entity Developer--><g id="elem_Developer"><ellipse cx="1177" cy="152" fill="#F1F1F1" rx="8" ry="8" style="stroke:#181818;stroke-width:0.5;"/><path d="M1177,160 L1177,187 M1164,168 L1190,168 M1177,187 L1164,202 M1177,187 L1190,202 " fill="none" style="stroke:#181818;stroke-width:0.5;"/><text fill="#000000" font-family="sans-serif" font-size="14" lengthAdjust="spacing" textLength="75" x="1139.5" y="216.4951">Developer</text></g><!--entity QAEngineer--><g id="elem_QAEngineer"><ellipse cx="1460" cy="711" fill="#F1F1F1" rx="8" ry="8" style="stroke:#181818;stroke-width:0.5;"/><path d="M1460,719 L1460,746 M1447,727 L1473,727 M1460,746 L1447,761 M1460,746 L1473,761 " fill="none" style="stroke:#181818;stroke-width:0.5;"/><text fill="#000000" font-family="sans-serif" font-size="14" lengthAdjust="spacing" textLength="85" x="1417.5" y="775.4951">QAEngineer</text></g><!--entity ReleaseEngineer--><g id="elem_ReleaseEngineer"><ellipse cx="694" cy="419" fill="#F1F1F1" rx="8" ry="8" style="stroke:#181818;stroke-width:0.5;"/><path d="M694,427 L694,454 M681,435 L707,435 M694,454 L681,469 M694,454 L707,469 " fill="none" style="stroke:#181818;stroke-width:0.5;"/><text fill="#000000" font-family="sans-serif" font-size="14" lengthAdjust="spacing" textLength="120" x="634" y="483.4951">ReleaseEngineer</text></g><!--entity Stakeholder--><g id="elem_Stakeholder"><ellipse cx="96" cy="14" fill="#F1F1F1" rx="8" ry="8" style="stroke:#181818;stroke-width:0.5;"/><path d="M96,22 L96,49 M83,30 L109,30 M96,49 L83,64 M96,49 L109,64 " fill="none" style="stroke:#181818;stroke-width:0.5;"/><text fill="#000000" font-family="sans-serif" font-size="14" lengthAdjust="spacing" textLength="88" x="52" y="78.4951">Stakeholder</text></g><!--entity GitRepo--><g id="elem_GitRepo"><path d="M733,880 C733,870 773,870 773,870 C773,870 813,870 813,880 L813,905.2969 C813,915.2969 773,915.2969 773,915.2969 C773,915.2969 733,915.2969 733,905.2969 L733,880 " fill="#F1F1F1" style="stroke:#181818;stroke-width:0.5;"/><path d="M733,880 C733,890 773,890 773,890 C773,890 813,890 813,880 " fill="none" style="stroke:#181818;stroke-width:0.5;"/><text fill="#000000" font-family="sans-serif" font-size="14" lengthAdjust="spacing" textLength="60" x="743" y="906.9951">GitRepo</text></g><g id="elem_GMN65"><path d="M848,880 L848,888.5 L813.041,892.5 L848,896.5 L848,905.1328 A0,0 0 0 0 848,905.1328 L1192,905.1328 A0,0 0 0 0 1192,905.1328 L1192,890 L1182,880 L848,880 A0,0 0 0 0 848,880 " fill="#FEFFDD" style="stroke:#181818;stroke-width:0.5;"/><path d="M1182,880 L1182,890 L1192,890 L1182,880 " fill="#FEFFDD" style="stroke:#181818;stroke-width:0.5;"/><text fill="#000000" font-family="sans-serif" font-size="13" lengthAdjust="spacing" textLength="323" x="854" y="897.0669">master, develop, feature, release, hotfix branches</text></g><!--link Developer to GitRepo--><g id="link_Developer_GitRepo"><path d="M1139.39,189 C1046.93,206.06 816,255.55 816,324.5 C816,324.5 816,324.5 816,741.5 C816,788.638 798.5668,835.5089 785.8408,864.2129 " fill="none" id="Developer-to-GitRepo" style="stroke:#4B6EAF;stroke-width:1.0;"/><polygon fill="#4B6EAF" points="783.409,869.698,790.7135,863.0916,785.4355,865.1271,783.4,859.8491,783.409,869.698" style="stroke:#4B6EAF;stroke-width:1.0;"/><text fill="#4B6EAF" font-family="sans-serif" font-size="13" lengthAdjust="spacing" textLength="103" x="817" y="529.5669">clone, push, pull</text></g><!--link QAEngineer to GitRepo--><g id="link_QAEngineer_GitRepo"><path d="M1430.93,778.889 C1414.81,796.553 1393.16,815.847 1369,825.5 C1341.19,836.612 857.531,821.715 830,833.5 C812.478,841 801.2485,851.9683 791.0845,865.1513 " fill="none" id="QAEngineer-to-GitRepo" style="stroke:#181818;stroke-width:1.0;"/><polygon fill="#181818" points="787.421,869.903,796.0841,865.2178,790.4739,865.9433,789.7485,860.3331,787.421,869.903" style="stroke:#181818;stroke-width:1.0;"/></g><!--link Developer to CreateFeatureBranch--><g id="link_Developer_CreateFeatureBranch"><path d="M1198.54,219.81 C1214.11,246.76 1231.5387,276.9546 1244.2187,298.9046 " fill="none" id="Developer-to-CreateFeatureBranch" style="stroke:#181818;stroke-width:1.0;"/><polygon fill="#181818" points="1247.22,304.1,1246.1817,294.306,1244.7189,299.7705,1239.2545,298.3077,1247.22,304.1" style="stroke:#181818;stroke-width:1.0;"/></g><!--link Developer to CommitAndPushChanges--><g id="link_Developer_CommitAndPushChanges"><path d="M1214.55,195.69 C1254.2,209.95 1318.3,233.96 1372,258.5 C1401.8,272.12 1429.256,286.5826 1453.736,300.0826 " fill="none" id="Developer-to-CommitAndPushChanges" style="stroke:#181818;stroke-width:1.0;"/><polygon fill="#181818" points="1458.99,302.98,1453.0406,295.1311,1454.6116,300.5655,1449.1773,302.1365,1458.99,302.98" style="stroke:#181818;stroke-width:1.0;"/></g><!--link Developer to SubmitPullRequest--><g id="link_Developer_SubmitPullRequest"><path d="M1141.27,219.81 C1114.82,247.42 1084.0613,279.5479 1063.1713,301.3479 " fill="none" id="Developer-to-SubmitPullRequest" style="stroke:#181818;stroke-width:1.0;"/><polygon fill="#181818" points="1059.02,305.68,1068.135,301.9494,1062.4794,302.0699,1062.3588,296.4144,1059.02,305.68" style="stroke:#181818;stroke-width:1.0;"/></g><!--link SubmitPullRequest to BuildAndTest--><g id="link_SubmitPullRequest_BuildAndTest"><path d="M1039.1,345.673 C1036.73,369.529 1033.3324,403.8373 1031.1424,425.9093 " fill="none" id="SubmitPullRequest-to-BuildAndTest" style="stroke:#181818;stroke-width:1.0;stroke-dasharray:7.0,7.0;"/><polygon fill="#181818" points="1030.55,431.88,1035.4191,423.3189,1031.0437,426.9044,1027.4582,422.529,1030.55,431.88" style="stroke:#181818;stroke-width:1.0;"/></g><!--link SubmitPullRequest to CodeReview--><g id="link_SubmitPullRequest_CodeReview"><path d="M1065.6,344.877 C1098,369.074 1149.4828,407.5277 1178.9528,429.5377 " fill="none" id="SubmitPullRequest-to-CodeReview" style="stroke:#181818;stroke-width:1.0;stroke-dasharray:7.0,7.0;"/><polygon fill="#181818" points="1183.76,433.128,1178.9427,424.5377,1179.754,430.1361,1174.1556,430.9473,1183.76,433.128" style="stroke:#181818;stroke-width:1.0;"/></g><!--link BuildAndTest to MergePullRequestToDevelopment--><g id="link_BuildAndTest_MergePullRequestToDevelopment"><path d="M1039.46,465.076 C1055.3,488.674 1082.3057,528.8995 1102.2657,558.6305 " fill="none" id="BuildAndTest-to-MergePullRequestToDevelopment" style="stroke:#181818;stroke-width:1.0;stroke-dasharray:7.0,7.0;"/><polygon fill="#181818" points="1105.61,563.612,1103.9145,553.9102,1102.823,559.4607,1097.2725,558.3693,1105.61,563.612" style="stroke:#181818;stroke-width:1.0;"/></g><!--link CodeReview to MergePullRequestToDevelopment--><g id="link_CodeReview_MergePullRequestToDevelopment"><path d="M1194.8,464.533 C1182.01,487.982 1159.9642,528.4092 1143.6142,558.3692 " fill="none" id="CodeReview-to-MergePullRequestToDevelopment" style="stroke:#181818;stroke-width:1.0;stroke-dasharray:7.0,7.0;"/><polygon fill="#181818" points="1140.74,563.636,1148.5625,557.652,1143.1352,559.247,1141.5402,553.8197,1140.74,563.636" style="stroke:#181818;stroke-width:1.0;"/></g><!--link MergePullRequestToDevelopment to DeployToDEV--><g id="link_MergePullRequestToDevelopment_DeployToDEV"><path d="M1125,623.843 C1125,653.799 1125,693.212 1125,717.249 " fill="none" id="MergePullRequestToDevelopment-to-DeployToDEV" style="stroke:#181818;stroke-width:1.0;stroke-dasharray:7.0,7.0;"/><polygon fill="#181818" points="1125,723.249,1129,714.249,1125,718.249,1121,714.249,1125,723.249" style="stroke:#181818;stroke-width:1.0;"/><text fill="#4B6EAF" font-family="sans-serif" font-size="13" lengthAdjust="spacing" textLength="53" x="1126" y="668.5669">[deploy]</text></g><!--link Developer to TestInDEV--><g id="link_Developer_TestInDEV"><path d="M1214.7,184.82 C1309.59,191.29 1555.43,212.22 1621,258.5 C1648.47,277.89 1658,290.87 1658,324.5 C1658,324.5 1658,324.5 1658,594.5 C1658,623.228 1645.42,632.367 1621,647.5 C1536.58,699.813 1493.88,648.119 1400,680.5 C1368.21,691.465 1339.964,708.794 1319.864,722.528 " fill="none" id="Developer-to-TestInDEV" style="stroke:#181818;stroke-width:1.0;"/><polygon fill="#181818" points="1314.91,725.913,1324.5976,724.1382,1319.0383,723.0922,1320.0843,717.5329,1314.91,725.913" style="stroke:#181818;stroke-width:1.0;"/></g><!--link TestInDEV to DeployToQA--><g id="link_TestInDEV_DeployToQA"><path d="M1296,755.612 C1296,783.909 1296,841.356 1296,870.428 " fill="none" id="TestInDEV-to-DeployToQA" style="stroke:#181818;stroke-width:1.0;stroke-dasharray:7.0,7.0;"/><polygon fill="#181818" points="1296,876.428,1300,867.428,1296,871.428,1292,867.428,1296,876.428" style="stroke:#181818;stroke-width:1.0;"/><text fill="#4B6EAF" font-family="sans-serif" font-size="13" lengthAdjust="spacing" textLength="63" x="1297" y="821.5669">[approve]</text></g><!--link QAEngineer to TestInQA--><g id="link_QAEngineer_TestInQA"><path d="M1460,778.579 C1460,810.505 1460,848.873 1460,871.304 " fill="none" id="QAEngineer-to-TestInQA" style="stroke:#181818;stroke-width:1.0;"/><polygon fill="#181818" points="1460,877.304,1464,868.304,1460,872.304,1456,868.304,1460,877.304" style="stroke:#181818;stroke-width:1.0;"/></g><!--link ReleaseEngineer to CreateReleaseBranch--><g id="link_ReleaseEngineer_CreateReleaseBranch"><path d="M693.103,486.92 C690.426,598.57 682.6988,920.9077 680.6408,1006.7647 " fill="none" id="ReleaseEngineer-to-CreateReleaseBranch" style="stroke:#181818;stroke-width:1.0;"/><polygon fill="#181818" points="680.497,1012.763,684.7115,1003.8614,680.6168,1007.7644,676.7138,1003.6697,680.497,1012.763" style="stroke:#181818;stroke-width:1.0;"/></g><!--link TestInQA to CreateReleaseBranch--><g id="link_TestInQA_CreateReleaseBranch"><path d="M1438.6,906.554 C1423.35,915.257 1402.08,926.215 1382,932.5 C1170.77,998.598 916.067,1021.3234 779.509,1029.2024 " fill="none" id="TestInQA-to-CreateReleaseBranch" style="stroke:#181818;stroke-width:1.0;stroke-dasharray:7.0,7.0;"/><polygon fill="#181818" points="773.519,1029.548,782.7345,1033.0229,778.5107,1029.26,782.2737,1025.0362,773.519,1029.548" style="stroke:#181818;stroke-width:1.0;"/><text fill="#4B6EAF" font-family="sans-serif" font-size="13" lengthAdjust="spacing" textLength="66" x="1328" y="958.0669">[approval]</text></g><!--link CreateReleaseBranch to DeployToUAT--><g id="link_CreateReleaseBranch_DeployToUAT"><path d="M680,1056.144 C680,1083.013 680,1123.393 680,1147.659 " fill="none" id="CreateReleaseBranch-to-DeployToUAT" style="stroke:#181818;stroke-width:1.0;stroke-dasharray:7.0,7.0;"/><polygon fill="#181818" points="680,1153.659,684,1144.659,680,1148.659,676,1144.659,680,1153.659" style="stroke:#181818;stroke-width:1.0;"/><text fill="#4B6EAF" font-family="sans-serif" font-size="13" lengthAdjust="spacing" textLength="53" x="681" y="1099.0669">[deploy]</text></g><!--link Stakeholder to ValidateInUAT--><g id="link_Stakeholder_ValidateInUAT"><path d="M96,81.73 C96,109.06 96,147.09 96,180.5 C96,180.5 96,180.5 96,526 C96,582.448 105.392,598.264 133,647.5 C181.231,733.514 395.6555,952.5003 456.1965,1013.5883 " fill="none" id="Stakeholder-to-ValidateInUAT" style="stroke:#181818;stroke-width:1.0;"/><polygon fill="#181818" points="460.42,1017.85,456.9258,1008.6418,456.9004,1014.2986,451.2436,1014.2732,460.42,1017.85" style="stroke:#181818;stroke-width:1.0;"/></g><!--link QAEngineer to ValidateInUAT--><g id="link_QAEngineer_ValidateInUAT"><path d="M1500.85,778.843 C1514.8,794.24 1528.71,813.225 1536,833.5 C1550.89,874.904 1563.54,898.184 1536,932.5 C1498.1,979.722 1463.16,955.118 1403,962 C1356.8,967.286 610.257,955.726 566,970 C536.699,979.451 513.0591,998.0541 496.2811,1013.5851 " fill="none" id="QAEngineer-to-ValidateInUAT" style="stroke:#181818;stroke-width:1.0;"/><polygon fill="#181818" points="491.878,1017.661,501.1999,1014.4826,495.5473,1014.2645,495.7654,1008.6118,491.878,1017.661" style="stroke:#181818;stroke-width:1.0;"/></g><!--link ReleaseEngineer to MergeToMain--><g id="link_ReleaseEngineer_MergeToMain"><path d="M683.513,486.814 C671.13,527.82 648.324,594.856 618,647.5 C490.444,868.945 276.3572,1090.1589 216.6932,1149.9489 " fill="none" id="ReleaseEngineer-to-MergeToMain" style="stroke:#181818;stroke-width:1.0;"/><polygon fill="#181818" points="212.455,1154.196,221.6437,1150.6508,215.9868,1150.6567,215.9808,1144.9999,212.455,1154.196" style="stroke:#181818;stroke-width:1.0;"/></g><!--link ValidateInUAT to MergeToMain--><g id="link_ValidateInUAT_MergeToMain"><path d="M445.877,1049.968 C392.051,1075.819 285.4135,1127.0364 231.9845,1152.6974 " fill="none" id="ValidateInUAT-to-MergeToMain" style="stroke:#181818;stroke-width:1.0;stroke-dasharray:7.0,7.0;"/><polygon fill="#181818" points="226.576,1155.295,236.4206,1155.0043,231.0831,1153.1303,232.9571,1147.7929,226.576,1155.295" style="stroke:#181818;stroke-width:1.0;"/><text fill="#4B6EAF" font-family="sans-serif" font-size="13" lengthAdjust="spacing" textLength="66" x="371" y="1099.0669">[approval]</text></g><!--link MergeToMain to DeployToProduction--><g id="link_MergeToMain_DeployToProduction"><path d="M193.941,1187.421 C189.998,1207.944 184.2713,1237.7496 179.9783,1260.0898 " fill="none" id="MergeToMain-to-DeployToProduction" style="stroke:#181818;stroke-width:1.0;stroke-dasharray:7.0,7.0;"/><polygon fill="#181818" points="178.846,1265.982,184.4725,1257.8986,179.7896,1261.0718,176.6163,1256.3889,178.846,1265.982" style="stroke:#181818;stroke-width:1.0;"/><text fill="#4B6EAF" font-family="sans-serif" font-size="13" lengthAdjust="spacing" textLength="53" x="189" y="1232.0669">[deploy]</text></g><!--link Stakeholder to Uses--><g id="link_Stakeholder_Uses"><path d="M64.238,81.69 C45.3338,107.63 25,144.01 25,180.5 C25,180.5 25,180.5 25,1035.5 C25,1080.705 40.2975,1126.5963 49.4272,1150.4543 " fill="none" id="Stakeholder-to-Uses" style="stroke:#181818;stroke-width:1.0;"/><polygon fill="#181818" points="51.5716,1156.058,52.0909,1146.2228,49.7846,1151.3882,44.6192,1149.082,51.5716,1156.058" style="stroke:#181818;stroke-width:1.0;"/></g><!--link Stakeholder to IdentifyProdBug--><g id="link_Stakeholder_IdentifyProdBug"><path d="M132.889,81.66 C159.433,108.4 189.761,138.9518 209.982,159.3218 " fill="none" id="Stakeholder-to-IdentifyProdBug" style="stroke:#181818;stroke-width:1.0;"/><polygon fill="#181818" points="214.209,163.58,210.7072,154.3747,210.6865,160.0315,205.0297,160.0107,214.209,163.58" style="stroke:#181818;stroke-width:1.0;"/></g><!--link IdentifyProdBug to CreateHotfixBranch--><g id="link_IdentifyProdBug_CreateHotfixBranch"><path d="M232.086,199.63 C233.759,226.04 236.5824,270.582 238.3574,298.582 " fill="none" id="IdentifyProdBug-to-CreateHotfixBranch" style="stroke:#181818;stroke-width:1.0;stroke-dasharray:7.0,7.0;"/><polygon fill="#181818" points="238.737,304.57,242.1596,295.335,238.4207,299.58,234.1756,295.8411,238.737,304.57" style="stroke:#181818;stroke-width:1.0;"/></g><!--link CreateHotfixBranch to TestAndFix--><g id="link_CreateHotfixBranch_TestAndFix"><path d="M240,346.21 C240,370.452 240,405.048 240,426.755 " fill="none" id="CreateHotfixBranch-to-TestAndFix" style="stroke:#181818;stroke-width:1.0;stroke-dasharray:7.0,7.0;"/><polygon fill="#181818" points="240,432.755,244,423.755,240,427.755,236,423.755,240,432.755" style="stroke:#181818;stroke-width:1.0;"/></g><!--link TestAndFix to MergeHotfixToMain--><g id="link_TestAndFix_MergeHotfixToMain"><path d="M239.793,464.265 C239.43,490.24 238.7609,538.0966 238.3559,567.0616 " fill="none" id="TestAndFix-to-MergeHotfixToMain" style="stroke:#181818;stroke-width:1.0;stroke-dasharray:7.0,7.0;"/><polygon fill="#181818" points="238.272,573.061,242.3974,564.1178,238.3419,568.0615,234.3982,564.006,238.272,573.061" style="stroke:#181818;stroke-width:1.0;"/></g><!--link ReleaseEngineer to MergeHotfixToMain--><g id="link_ReleaseEngineer_MergeHotfixToMain"><path d="M633.87,479.994 C628.555,482.316 623.214,484.522 618,486.5 C602.531,492.368 399.6604,548.1933 298.2994,575.9873 " fill="none" id="ReleaseEngineer-to-MergeHotfixToMain" style="stroke:#181818;stroke-width:1.0;"/><polygon fill="#181818" points="292.513,577.574,302.2504,579.0516,297.335,576.2518,300.1348,571.3364,292.513,577.574" style="stroke:#181818;stroke-width:1.0;"/></g><!--link Developer to MergeHotfixToDevelopment--><g id="link_Developer_MergeHotfixToDevelopment"><path d="M1139.38,182.08 C1067.61,182.74 907.826,191.27 790,249.5 C642.198,322.55 535.7474,494.8922 498.6634,561.4762 " fill="none" id="Developer-to-MergeHotfixToDevelopment" style="stroke:#181818;stroke-width:1.0;"/><polygon fill="#181818" points="495.744,566.718,503.6177,560.8015,498.1769,562.3498,496.6286,556.9089,495.744,566.718" style="stroke:#181818;stroke-width:1.0;"/></g><!--link TestAndFix to MergeHotfixToDevelopment--><g id="link_TestAndFix_MergeHotfixToDevelopment"><path d="M263.204,463.211 C304.255,487.469 384.9955,535.1786 436.1005,565.3776 " fill="none" id="TestAndFix-to-MergeHotfixToDevelopment" style="stroke:#181818;stroke-width:1.0;stroke-dasharray:7.0,7.0;"/><polygon fill="#181818" points="441.266,568.43,435.5526,560.4077,436.9614,565.8863,431.4828,567.2951,441.266,568.43" style="stroke:#181818;stroke-width:1.0;"/></g><!--link MergeHotfixToMain to DeployToProduction--><g id="link_MergeHotfixToMain_DeployToProduction"><path d="M236.282,613.775 C231.797,668.622 221.382,830.1 241,962 C257.533,1073.158 335.734,1110.723 285,1211 C271.591,1237.502 249.2928,1253.6066 225.0638,1265.7526 " fill="none" id="MergeHotfixToMain-to-DeployToProduction" style="stroke:#181818;stroke-width:1.0;stroke-dasharray:7.0,7.0;"/><polygon fill="#181818" points="219.7,1268.4415,229.5382,1267.9841,224.1698,1266.2008,225.9531,1260.8324,219.7,1268.4415" style="stroke:#181818;stroke-width:1.0;"/><text fill="#4B6EAF" font-family="sans-serif" font-size="13" lengthAdjust="spacing" textLength="53" x="242" y="958.0669">[deploy]</text></g><!--link MergeHotfixToDevelopment to DeployToDEV--><g id="link_MergeHotfixToDevelopment_DeployToDEV"><path d="M563.763,612.938 C698.724,643.373 958.324,701.9142 1068.927,726.8542 " fill="none" id="MergeHotfixToDevelopment-to-DeployToDEV" style="stroke:#181818;stroke-width:1.0;stroke-dasharray:7.0,7.0;"/><polygon fill="#181818" points="1074.78,728.174,1066.8803,722.2923,1069.9025,727.0742,1065.1206,730.0963,1074.78,728.174" style="stroke:#181818;stroke-width:1.0;"/><text fill="#4B6EAF" font-family="sans-serif" font-size="13" lengthAdjust="spacing" textLength="53" x="824" y="668.5669">[deploy]</text></g><!--SRC=[ZLLBZzem4BxdLrZR2qZGKzK3XqhPiBGSLWMMtGlYO999OgsnKzlXeMh_UyTn875uT8Lab9dlcsyUdaI_Cr5GHRVaRw1pciWz4nb9ATSG993Iafib74p8MIQs80o9yG0LX4h9FNAg_qXogSYNRvllGDDW8eNnBH_u2sXiq3I67N1PO0JtF0-VHCO4d0qBu40rTAmlXhv3Bdc2beGQka48-SdC0WeP1EUWPBYgDTV37oV_YCHS2XYGejIvFJaF6baoR911e20sL6GSo4E4PJ1HobAJAPQSAMgO5AGNJViFM7XB4mFq8WNKm0IFKi6ZeYBE-nSOkTqo4ufaXeb4EUg0lW2zb1i4pJ391VmfGPj-SCL6lbhiOybuWl6Mzs6HJ601EmPx17aSvty6bK6BjfHrJdRWI6dnFqNuyFhOSf7U-Ecjwjv_GZYPCHHS7j63fD4ggPxMtNxPEgR2GZgwyv9oPeuarBgqym3IcuTElE7uGkWVhMXHABc3TVUEr2p4T8HUDIB2E8R2L38MPvUeznekAxtEbMvVcDfrkZ2DHZsvAw0HgLEaV1rSHVX5sIoGSsfVQvDS8c_O9bmfc0gBlAYwu_PBdocPbB7RYzdYz_XskTMyb_APCe5b-a5Rbwf6-3MsFNvjZVxT4d52kflwBsbITW1jCxuWJ1EyXImzslYFPOOPTotj-RXGvnbUCJgq7IvkteGTwadN3wtw7UlKfzkTz76TbV0G_YhVL_MnbqAVQVxjY5UMkg7XS8GqG1JBSaDashoyjrJZ1sT04XTgG5BtaXqGvTep87cbHZPLiq7_0m00]--></g></svg>