<?xml version="1.0" encoding="us-ascii" standalone="no"?><svg xmlns="http://www.w3.org/2000/svg" xmlns:xlink="http://www.w3.org/1999/xlink" contentStyleType="text/css" height="1134px" preserveAspectRatio="none" style="width:645px;height:1134px;background:#FFFFFF;" version="1.1" viewBox="0 0 645 1134" width="645px" zoomAndPan="magnify"><defs/><g><text fill="#000000" font-family="sans-serif" font-size="14" font-weight="bold" lengthAdjust="spacing" textLength="308" x="161.75" y="22.9951">TECH Stories: Current JIRA flow + DOR</text><g id="NEW"><rect fill="#F1F1F1" height="64.2344" rx="12.5" ry="12.5" style="stroke:#181818;stroke-width:0.5;" width="256" x="29.5" y="44.2969"/><line style="stroke:#181818;stroke-width:0.5;" x1="29.5" x2="285.5" y1="70.5938" y2="70.5938"/><text fill="#000000" font-family="sans-serif" font-size="14" lengthAdjust="spacing" textLength="33" x="141" y="62.292">NEW</text><text fill="#000000" font-family="sans-serif" font-size="12" lengthAdjust="spacing" textLength="236" x="34.5" y="86.7324">Business Value or Tech need identified</text><text fill="#000000" font-family="sans-serif" font-size="12" lengthAdjust="spacing" textLength="128" x="34.5" y="100.7012">Descriptive summary</text></g><g id="BACKLOG"><rect fill="#F1F1F1" height="50.2656" rx="12.5" ry="12.5" style="stroke:#181818;stroke-width:0.5;" width="279" x="18" y="168.2969"/><line style="stroke:#181818;stroke-width:0.5;" x1="18" x2="297" y1="194.5938" y2="194.5938"/><text fill="#000000" font-family="sans-serif" font-size="14" lengthAdjust="spacing" textLength="70" x="122.5" y="186.292">BACKLOG</text><text fill="#000000" font-family="sans-serif" font-size="12" lengthAdjust="spacing" textLength="259" x="23" y="210.7324">Description with required/available context</text></g><g id="dev_todo"><rect fill="#F1F1F1" height="106.1406" rx="12.5" ry="12.5" style="stroke:#181818;stroke-width:0.5;" width="173" x="71" y="278.2969"/><line style="stroke:#181818;stroke-width:0.5;" x1="71" x2="244" y1="304.5938" y2="304.5938"/><text fill="#000000" font-family="sans-serif" font-size="14" lengthAdjust="spacing" textLength="80" x="117.5" y="296.292">DEV TO DO</text><text fill="#000000" font-family="sans-serif" font-size="12" lengthAdjust="spacing" textLength="60" x="76" y="320.7324">Prioritized</text><text fill="#000000" font-family="sans-serif" font-size="12" lengthAdjust="spacing" textLength="153" x="76" y="334.7012">Clear Acceptance Criteria</text><text fill="#000000" font-family="sans-serif" font-size="12" font-weight="bold" lengthAdjust="spacing" textLength="149" x="76" y="348.6699">Data Modelling Done</text><text fill="#000000" font-family="sans-serif" font-size="12" lengthAdjust="spacing" textLength="59" x="76" y="362.6387">Estimated</text><text fill="#000000" font-family="sans-serif" font-size="12" lengthAdjust="spacing" textLength="129" x="76" y="376.6074">QA Approach Agreed</text></g><g id="dev_inpr"><rect fill="#F1F1F1" height="50.2656" rx="12.5" ry="12.5" style="stroke:#181818;stroke-width:0.5;" width="183" x="66" y="444.2969"/><line style="stroke:#181818;stroke-width:0.5;" x1="66" x2="249" y1="470.5938" y2="470.5938"/><text fill="#000000" font-family="sans-serif" font-size="14" lengthAdjust="spacing" textLength="130" x="92.5" y="462.292">DEV IN PROGRESS</text><text fill="#000000" font-family="sans-serif" font-size="12" lengthAdjust="spacing" textLength="163" x="71" y="486.7324">All dependencies resolved</text></g><g id="dev_compl"><rect fill="#F1F1F1" height="64.2344" rx="12.5" ry="12.5" style="stroke:#181818;stroke-width:0.5;" width="235" x="40" y="554.2969"/><line style="stroke:#181818;stroke-width:0.5;" x1="40" x2="275" y1="580.5938" y2="580.5938"/><text fill="#000000" font-family="sans-serif" font-size="14" lengthAdjust="spacing" textLength="111" x="102" y="572.292">DEV COMPLETE</text><text fill="#000000" font-family="sans-serif" font-size="12" lengthAdjust="spacing" textLength="152" x="45" y="596.7324">PR reviewed and merged</text><text fill="#000000" font-family="sans-serif" font-size="12" lengthAdjust="spacing" textLength="215" x="45" y="610.7012">Required artefacts delivered in DEV</text></g><g id="qa_todo"><rect fill="#F1F1F1" height="64.2344" rx="12.5" ry="12.5" style="stroke:#181818;stroke-width:0.5;" width="243" x="36" y="678.2969"/><line style="stroke:#181818;stroke-width:0.5;" x1="36" x2="279" y1="704.5938" y2="704.5938"/><text fill="#000000" font-family="sans-serif" font-size="14" lengthAdjust="spacing" textLength="71" x="122" y="696.292">QA TO DO</text><text fill="#000000" font-family="sans-serif" font-size="12" lengthAdjust="spacing" textLength="223" x="41" y="720.7324">Static Code Analysis run successfully</text><text fill="#000000" font-family="sans-serif" font-size="12" lengthAdjust="spacing" textLength="159" x="41" y="734.7012">Dev tests run successfully</text></g><g id="qa_inpr"><rect fill="#F1F1F1" height="64.2344" rx="12.5" ry="12.5" style="stroke:#181818;stroke-width:0.5;" width="301" x="7" y="802.2969"/><line style="stroke:#181818;stroke-width:0.5;" x1="7" x2="308" y1="828.5938" y2="828.5938"/><text fill="#000000" font-family="sans-serif" font-size="14" lengthAdjust="spacing" textLength="121" x="97" y="820.292">QA IN PROGRESS</text><text fill="#000000" font-family="sans-serif" font-size="12" lengthAdjust="spacing" textLength="281" x="12" y="844.7324">Required artefacts deployed in QA (if needed)</text><text fill="#000000" font-family="sans-serif" font-size="12" lengthAdjust="spacing" textLength="176" x="12" y="858.7012">Test Plan created (if needed)</text></g><g id="qa_compl"><rect fill="#F1F1F1" height="92.1719" rx="12.5" ry="12.5" style="stroke:#181818;stroke-width:0.5;" width="195" x="60" y="926.2969"/><line style="stroke:#181818;stroke-width:0.5;" x1="60" x2="255" y1="952.5938" y2="952.5938"/><text fill="#000000" font-family="sans-serif" font-size="14" lengthAdjust="spacing" textLength="102" x="106.5" y="944.292">QA COMPLETE</text><text fill="#000000" font-family="sans-serif" font-size="12" lengthAdjust="spacing" textLength="131" x="65" y="968.7324">All found bugs closed</text><text fill="#000000" font-family="sans-serif" font-size="12" lengthAdjust="spacing" textLength="173" x="65" y="982.7012">Deployed in UAT (if needed)</text><text fill="#000000" font-family="sans-serif" font-size="12" lengthAdjust="spacing" textLength="175" x="65" y="996.6699">Quality assured per test plan</text><text fill="#000000" font-family="sans-serif" font-size="12" lengthAdjust="spacing" textLength="109" x="65" y="1010.6387">Test plan updated</text></g><g id="closed_compl"><rect fill="#F1F1F1" height="50.2656" rx="12.5" ry="12.5" style="stroke:#181818;stroke-width:0.5;" width="187" x="64" y="1078.2969"/><line style="stroke:#181818;stroke-width:0.5;" x1="64" x2="251" y1="1104.5938" y2="1104.5938"/><text fill="#000000" font-family="sans-serif" font-size="14" lengthAdjust="spacing" textLength="149" x="83" y="1096.292">CLOSED - COMPLETE</text><text fill="#000000" font-family="sans-serif" font-size="12" lengthAdjust="spacing" textLength="167" x="69" y="1120.7324">PROD Deployed (if needed)</text></g><g id="closed_cancelled"><rect fill="#F1F1F1" height="50.2656" rx="12.5" ry="12.5" style="stroke:#181818;stroke-width:0.5;" width="306" x="332.5" y="168.2969"/><line style="stroke:#181818;stroke-width:0.5;" x1="332.5" x2="638.5" y1="194.5938" y2="194.5938"/><text fill="#000000" font-family="sans-serif" font-size="14" lengthAdjust="spacing" textLength="157" x="407" y="186.292">CLOSED - CANCELLED</text><text fill="#000000" font-family="sans-serif" font-size="12" lengthAdjust="spacing" textLength="286" x="337.5" y="210.7324">Not needed, created by mistake, duplicate, etc</text></g><g id="ALL"><rect fill="#F1F1F1" height="50" rx="12.5" ry="12.5" style="stroke:#181818;stroke-width:0.5;" width="50" x="460.5" y="51.2969"/><line style="stroke:#181818;stroke-width:0.5;" x1="460.5" x2="510.5" y1="77.5938" y2="77.5938"/><text fill="#000000" font-family="sans-serif" font-size="14" lengthAdjust="spacing" textLength="26" x="472.5" y="69.292">ALL</text></g><!--link NEW to BACKLOG--><g id="link_NEW_BACKLOG"><path d="M157.5,108.4169 C157.5,127.1769 157.5,144.7169 157.5,162.0809 " fill="none" id="NEW-to-BACKLOG" style="stroke:#181818;stroke-width:1.0;"/><polygon fill="#181818" points="157.5,168.0809,161.5,159.0809,157.5,163.0809,153.5,159.0809,157.5,168.0809" style="stroke:#181818;stroke-width:1.0;"/></g><!--link BACKLOG to dev_todo--><g id="link_BACKLOG_dev_todo"><path d="M157.5,218.2979 C157.5,234.8449 157.5,251.4849 157.5,272.0799 " fill="none" id="BACKLOG-to-dev_todo" style="stroke:#181818;stroke-width:1.0;"/><polygon fill="#181818" points="157.5,278.0799,161.5,269.0799,157.5,273.0799,153.5,269.0799,157.5,278.0799" style="stroke:#181818;stroke-width:1.0;"/></g><!--link dev_todo to dev_inpr--><g id="link_dev_todo_dev_inpr"><path d="M157.5,384.4889 C157.5,405.0139 157.5,421.5729 157.5,438.1099 " fill="none" id="dev_todo-to-dev_inpr" style="stroke:#181818;stroke-width:1.0;"/><polygon fill="#181818" points="157.5,444.1099,161.5,435.1099,157.5,439.1099,153.5,435.1099,157.5,444.1099" style="stroke:#181818;stroke-width:1.0;"/></g><!--link dev_inpr to dev_compl--><g id="link_dev_inpr_dev_compl"><path d="M157.5,494.4049 C157.5,511.7929 157.5,529.4149 157.5,548.2189 " fill="none" id="dev_inpr-to-dev_compl" style="stroke:#181818;stroke-width:1.0;"/><polygon fill="#181818" points="157.5,554.2189,161.5,545.2189,157.5,549.2189,153.5,545.2189,157.5,554.2189" style="stroke:#181818;stroke-width:1.0;"/></g><!--link dev_compl to qa_todo--><g id="link_dev_compl_qa_todo"><path d="M157.5,618.3979 C157.5,636.7539 157.5,653.9069 157.5,672.2519 " fill="none" id="dev_compl-to-qa_todo" style="stroke:#181818;stroke-width:1.0;"/><polygon fill="#181818" points="157.5,678.2519,161.5,669.2519,157.5,673.2519,153.5,669.2519,157.5,678.2519" style="stroke:#181818;stroke-width:1.0;"/></g><!--link qa_todo to qa_inpr--><g id="link_qa_todo_qa_inpr"><path d="M157.5,742.3979 C157.5,760.7539 157.5,777.9069 157.5,796.2519 " fill="none" id="qa_todo-to-qa_inpr" style="stroke:#181818;stroke-width:1.0;"/><polygon fill="#181818" points="157.5,802.2519,161.5,793.2519,157.5,797.2519,153.5,793.2519,157.5,802.2519" style="stroke:#181818;stroke-width:1.0;"/></g><!--link qa_inpr to qa_compl--><g id="link_qa_inpr_qa_compl"><path d="M157.5,866.4979 C157.5,884.1429 157.5,900.5179 157.5,920.0589 " fill="none" id="qa_inpr-to-qa_compl" style="stroke:#181818;stroke-width:1.0;"/><polygon fill="#181818" points="157.5,926.0589,161.5,917.0589,157.5,921.0589,153.5,917.0589,157.5,926.0589" style="stroke:#181818;stroke-width:1.0;"/></g><!--link qa_compl to closed_compl--><g id="link_qa_compl_closed_compl"><path d="M157.5,1018.4149 C157.5,1038.4679 157.5,1055.2764 157.5,1072.0425 " fill="none" id="qa_compl-to-closed_compl" style="stroke:#181818;stroke-width:1.0;"/><polygon fill="#181818" points="157.5,1078.0425,161.5,1069.0425,157.5,1073.0425,153.5,1069.0425,157.5,1078.0425" style="stroke:#181818;stroke-width:1.0;"/></g><!--link ALL to closed_cancelled--><g id="link_ALL_closed_cancelled"><path d="M485.5,101.4069 C485.5,121.0269 485.5,142.6019 485.5,162.2209 " fill="none" id="ALL-to-closed_cancelled" style="stroke:#181818;stroke-width:1.0;"/><polygon fill="#181818" points="485.5,168.2209,489.5,159.2209,485.5,163.2209,481.5,159.2209,485.5,168.2209" style="stroke:#181818;stroke-width:1.0;"/></g><!--SRC=[ZPHFSvim4CNlV8gTd5etcTvzw0m19arBZ6EJzDXHnDhPgImH_N7gVlek6B39n7LF4W_zTdRV4tZo2g7Cag-mzCOIkYaamLhK7hxTBc9OAVCAdo0j5b7alF08i-p75Aw38utEmQDG0S5OA54-WqQiW2gcQKLO7HCfEccfzhH5S66p4NRNLxoEa-zvSNDqncXu9VyC5by2MQm-YwqW9PwuLscqnz- -Po_Ix17AWXky0E6WmkrFRoepXRabdiVJdw6DaqSJXS92B2NMNcY9a328biGvS399XHTmPofKYlGQKgDnCZc7PSxJXa-SRUm-XhYkhH5iRRosREvexDiPp1V5pI9RBWUGT6sd42l5JpLgZa9og6oaCshxXa-AktcUbTa0IxEf5LktuFDRmbSEK-WADcZNusPFaOikBn3Muqf8txnL77cZaGPcXmvukCFCBw8RUSalIKB2baAiXTevukw3vZl3-JYt2ahj_bqYnIruTFuTxWXyQnxZU-_UdQ5MPhSVWT4Fj6flEbOV_wTWoRt0N0aDqc8J-wZ0KOMHguntfZPXhapW89x2se5KnXtIE8sbHqq_nEM9ha_0zq4eyZiMNMYygD6sdaBDSvp7o_ueXBfgRthF97cnp5Au6fFxcGxthqWFxRzdrg5AF4koFC_IKPdc8rOAgodCZE_Woy7zfnriY0lzmakeGgr8idm9w6KKyQyAhgw-zB-ag5jRhVyketupg4tEKRyPr7QQQDYrUdT9esxjjRP0j_RQ7kythNfiKnJ5UJvI-wd_0W00]--></g></svg>