<?xml version="1.0" encoding="us-ascii" standalone="no"?><svg xmlns="http://www.w3.org/2000/svg" xmlns:xlink="http://www.w3.org/1999/xlink" contentStyleType="text/css" height="1529px" preserveAspectRatio="none" style="width:513px;height:1529px;background:#FFFFFF;" version="1.1" viewBox="0 0 513 1529" width="513px" zoomAndPan="magnify"><defs/><g><text fill="#000000" font-family="sans-serif" font-size="14" font-weight="bold" lengthAdjust="spacing" textLength="299" x="100.25" y="22.9951">TECH Stories: Target JIRA flow (DOR)</text><rect fill="#555555" height="8" style="stroke:none;stroke-width:1.0;" width="80" x="112" y="669.2969"/><rect fill="#555555" height="8" style="stroke:none;stroke-width:1.0;" width="80" x="281" y="1099.2969"/><rect fill="#555555" height="8" style="stroke:none;stroke-width:1.0;" width="80" x="181" y="1279.2969"/><g id="NEW"><rect fill="#F1F1F1" height="64.2344" rx="12.5" ry="12.5" style="stroke:#181818;stroke-width:0.5;" width="290" x="7" y="44.2969"/><line style="stroke:#181818;stroke-width:0.5;" x1="7" x2="297" y1="70.5938" y2="70.5938"/><text fill="#000000" font-family="sans-serif" font-size="14" lengthAdjust="spacing" textLength="33" x="135.5" y="62.292">NEW</text><text fill="#000000" font-family="sans-serif" font-size="12" lengthAdjust="spacing" textLength="128" x="12" y="86.7324">Descriptive summary</text><text fill="#000000" font-family="sans-serif" font-size="12" lengthAdjust="spacing" textLength="270" x="12" y="100.7012">General description with all context available</text></g><g id="BACKLOG"><rect fill="#F1F1F1" height="64.2344" rx="12.5" ry="12.5" style="stroke:#181818;stroke-width:0.5;" width="173" x="65.5" y="169.2969"/><line style="stroke:#181818;stroke-width:0.5;" x1="65.5" x2="238.5" y1="195.5938" y2="195.5938"/><text fill="#000000" font-family="sans-serif" font-size="14" lengthAdjust="spacing" textLength="70" x="117" y="187.292">BACKLOG</text><text fill="#000000" font-family="sans-serif" font-size="12" lengthAdjust="spacing" textLength="153" x="70.5" y="211.7324">Clear Acceptance Criteria</text><text fill="#000000" font-family="sans-serif" font-size="12" lengthAdjust="spacing" textLength="60" x="70.5" y="225.7012">Prioritized</text></g><g id="dev_todo"><rect fill="#F1F1F1" height="64.2344" rx="12.5" ry="12.5" style="stroke:#181818;stroke-width:0.5;" width="100" x="102" y="294.2969"/><line style="stroke:#181818;stroke-width:0.5;" x1="102" x2="202" y1="320.5938" y2="320.5938"/><text fill="#000000" font-family="sans-serif" font-size="14" lengthAdjust="spacing" textLength="80" x="112" y="312.292">DEV TO DO</text><text fill="#000000" font-family="sans-serif" font-size="12" lengthAdjust="spacing" textLength="73" x="107" y="336.7324">Scope clear</text><text fill="#000000" font-family="sans-serif" font-size="12" lengthAdjust="spacing" textLength="59" x="107" y="350.7012">Estimated</text></g><g id="dev_inpr"><rect fill="#F1F1F1" height="64.2344" rx="12.5" ry="12.5" style="stroke:#181818;stroke-width:0.5;" width="183" x="60.5" y="419.2969"/><line style="stroke:#181818;stroke-width:0.5;" x1="60.5" x2="243.5" y1="445.5938" y2="445.5938"/><text fill="#000000" font-family="sans-serif" font-size="14" lengthAdjust="spacing" textLength="130" x="87" y="437.292">DEV IN PROGRESS</text><text fill="#000000" font-family="sans-serif" font-size="12" lengthAdjust="spacing" textLength="163" x="65.5" y="461.7324">All dependencies resolved</text><text fill="#000000" font-family="sans-serif" font-size="12" lengthAdjust="spacing" textLength="134" x="65.5" y="475.7012">In active development</text></g><g id="dev_compl"><rect fill="#F1F1F1" height="64.2344" rx="12.5" ry="12.5" style="stroke:#181818;stroke-width:0.5;" width="235" x="34.5" y="544.2969"/><line style="stroke:#181818;stroke-width:0.5;" x1="34.5" x2="269.5" y1="570.5938" y2="570.5938"/><text fill="#000000" font-family="sans-serif" font-size="14" lengthAdjust="spacing" textLength="111" x="96.5" y="562.292">DEV COMPLETE</text><text fill="#000000" font-family="sans-serif" font-size="12" lengthAdjust="spacing" textLength="152" x="39.5" y="586.7324">PR reviewed and merged</text><text fill="#000000" font-family="sans-serif" font-size="12" lengthAdjust="spacing" textLength="215" x="39.5" y="600.7012">Required artefacts delivered in DEV</text></g><g id="qa_todo"><rect fill="#F1F1F1" height="50.2656" rx="12.5" ry="12.5" style="stroke:#181818;stroke-width:0.5;" width="301" x="205.5" y="738.2969"/><line style="stroke:#181818;stroke-width:0.5;" x1="205.5" x2="506.5" y1="764.5938" y2="764.5938"/><text fill="#000000" font-family="sans-serif" font-size="14" lengthAdjust="spacing" textLength="71" x="320.5" y="756.292">QA TO DO</text><text fill="#000000" font-family="sans-serif" font-size="12" lengthAdjust="spacing" textLength="281" x="210.5" y="780.7324">Required artefacts deployed in QA (if needed)</text></g><g id="qa_inpr"><rect fill="#F1F1F1" height="78.2031" rx="12.5" ry="12.5" style="stroke:#181818;stroke-width:0.5;" width="195" x="273.5" y="849.2969"/><line style="stroke:#181818;stroke-width:0.5;" x1="273.5" x2="468.5" y1="875.5938" y2="875.5938"/><text fill="#000000" font-family="sans-serif" font-size="14" lengthAdjust="spacing" textLength="121" x="310.5" y="867.292">QA IN PROGRESS</text><text fill="#000000" font-family="sans-serif" font-size="12" lengthAdjust="spacing" textLength="175" x="278.5" y="891.7324">Quality assured per test plan</text><text fill="#000000" font-family="sans-serif" font-size="12" lengthAdjust="spacing" textLength="109" x="278.5" y="905.7012">Test plan updated</text><text fill="#000000" font-family="sans-serif" font-size="12" lengthAdjust="spacing" textLength="90" x="278.5" y="919.6699">Bugs Resolved</text></g><g id="qa_compl"><rect fill="#F1F1F1" height="50.2656" rx="12.5" ry="12.5" style="stroke:#181818;stroke-width:0.5;" width="193" x="279.5" y="988.2969"/><line style="stroke:#181818;stroke-width:0.5;" x1="279.5" x2="472.5" y1="1014.5938" y2="1014.5938"/><text fill="#000000" font-family="sans-serif" font-size="14" lengthAdjust="spacing" textLength="102" x="325" y="1006.292">QA COMPLETE</text><text fill="#000000" font-family="sans-serif" font-size="12" lengthAdjust="spacing" textLength="173" x="284.5" y="1030.7324">Deployed in UAT (if needed)</text></g><g id="UAT"><rect fill="#F1F1F1" height="50.2656" rx="12.5" ry="12.5" style="stroke:#181818;stroke-width:0.5;" width="94" x="274" y="1168.2969"/><line style="stroke:#181818;stroke-width:0.5;" x1="274" x2="368" y1="1194.5938" y2="1194.5938"/><text fill="#000000" font-family="sans-serif" font-size="14" lengthAdjust="spacing" textLength="28" x="307" y="1186.292">UAT</text><text fill="#000000" font-family="sans-serif" font-size="12" lengthAdjust="spacing" textLength="74" x="279" y="1210.7324">UAT sign-off</text></g><g id="release_rdy"><rect fill="#F1F1F1" height="64.2344" rx="12.5" ry="12.5" style="stroke:#181818;stroke-width:0.5;" width="223" x="109.5" y="1348.2969"/><line style="stroke:#181818;stroke-width:0.5;" x1="109.5" x2="332.5" y1="1374.5938" y2="1374.5938"/><text fill="#000000" font-family="sans-serif" font-size="14" lengthAdjust="spacing" textLength="117" x="162.5" y="1366.292">RELEASE READY</text><text fill="#000000" font-family="sans-serif" font-size="12" lengthAdjust="spacing" textLength="203" x="114.5" y="1390.7324">Scheduled for next PROD Release</text><text fill="#000000" font-family="sans-serif" font-size="12" lengthAdjust="spacing" textLength="129" x="114.5" y="1404.7012">Release Notes READY</text></g><g id="closed_compl"><rect fill="#F1F1F1" height="50.2656" rx="12.5" ry="12.5" style="stroke:#181818;stroke-width:0.5;" width="187" x="127.5" y="1473.2969"/><line style="stroke:#181818;stroke-width:0.5;" x1="127.5" x2="314.5" y1="1499.5938" y2="1499.5938"/><text fill="#000000" font-family="sans-serif" font-size="14" lengthAdjust="spacing" textLength="149" x="146.5" y="1491.292">CLOSED - COMPLETE</text><text fill="#000000" font-family="sans-serif" font-size="12" lengthAdjust="spacing" textLength="167" x="132.5" y="1515.7324">PROD Deployed (if needed)</text></g><!--link NEW to BACKLOG--><g id="link_NEW_BACKLOG"><path d="M152,108.3369 C152,126.9769 152,144.6269 152,163.2669 " fill="none" id="NEW-to-BACKLOG" style="stroke:#181818;stroke-width:1.0;"/><polygon fill="#181818" points="152,169.2669,156,160.2669,152,164.2669,148,160.2669,152,169.2669" style="stroke:#181818;stroke-width:1.0;"/></g><!--link BACKLOG to dev_todo--><g id="link_BACKLOG_dev_todo"><path d="M152,233.3369 C152,251.9769 152,269.6269 152,288.2669 " fill="none" id="BACKLOG-to-dev_todo" style="stroke:#181818;stroke-width:1.0;"/><polygon fill="#181818" points="152,294.2669,156,285.2669,152,289.2669,148,285.2669,152,294.2669" style="stroke:#181818;stroke-width:1.0;"/></g><!--link dev_todo to dev_inpr--><g id="link_dev_todo_dev_inpr"><path d="M152,358.3369 C152,376.9769 152,394.6269 152,413.2669 " fill="none" id="dev_todo-to-dev_inpr" style="stroke:#181818;stroke-width:1.0;"/><polygon fill="#181818" points="152,419.2669,156,410.2669,152,414.2669,148,410.2669,152,419.2669" style="stroke:#181818;stroke-width:1.0;"/></g><!--link dev_inpr to dev_compl--><g id="link_dev_inpr_dev_compl"><path d="M152,483.3369 C152,501.9769 152,519.6249 152,538.2689 " fill="none" id="dev_inpr-to-dev_compl" style="stroke:#181818;stroke-width:1.0;"/><polygon fill="#181818" points="152,544.2689,156,535.2689,152,539.2689,148,535.2689,152,544.2689" style="stroke:#181818;stroke-width:1.0;"/></g><!--link dev_compl to fork_state1--><g id="link_dev_compl_fork_state1"><path d="M152,608.4039 C152,631.1309 152,653.5659 152,663.0509 " fill="none" id="dev_compl-to-fork_state1" style="stroke:#181818;stroke-width:1.0;"/><polygon fill="#181818" points="152,669.0509,156,660.0509,152,664.0509,148,660.0509,152,669.0509" style="stroke:#181818;stroke-width:1.0;"/></g><!--link fork_state1 to qa_todo--><g id="link_fork_state1_qa_todo"><path d="M159.26,677.4289 C181.476,687.0119 244.5467,714.2194 294.4997,735.7674 " fill="none" id="fork_state1-to-qa_todo" style="stroke:#181818;stroke-width:1.0;"/><polygon fill="#181818" points="300.009,738.1439,293.3294,730.9062,295.4179,736.1634,290.1607,738.252,300.009,738.1439" style="stroke:#181818;stroke-width:1.0;"/></g><!--link fork_state1 to join_state1--><g id="link_fork_state1_join_state1"><path d="M150.688,677.5919 C146.238,689.0729 132,728.4549 132,762.2969 C132,762.2969 132,762.2969 132,1194.2969 C132,1239.9279 186.3814,1267.5315 207.9044,1276.8335 " fill="none" id="fork_state1-to-join_state1" style="stroke:#181818;stroke-width:1.0;"/><polygon fill="#181818" points="213.412,1279.2139,206.7374,1271.9716,208.8223,1277.2303,203.5637,1279.3151,213.412,1279.2139" style="stroke:#181818;stroke-width:1.0;"/><text fill="#000000" font-family="sans-serif" font-size="13" lengthAdjust="spacing" textLength="110" x="133" y="1017.8638">for Dev/Ingestion</text></g><!--link qa_todo to qa_inpr--><g id="link_qa_todo_qa_inpr"><path d="M358.928,788.3049 C361.025,805.5029 363.1676,823.071 365.5826,842.872 " fill="none" id="qa_todo-to-qa_inpr" style="stroke:#181818;stroke-width:1.0;"/><polygon fill="#181818" points="366.309,848.8279,369.19,839.4098,365.7037,843.8647,361.2488,840.3783,366.309,848.8279" style="stroke:#181818;stroke-width:1.0;"/></g><!--link qa_inpr to qa_compl--><g id="link_qa_inpr_qa_compl"><path d="M372.555,927.5409 C373.357,947.2869 374.0682,964.7888 374.7692,982.0288 " fill="none" id="qa_inpr-to-qa_compl" style="stroke:#181818;stroke-width:1.0;"/><polygon fill="#181818" points="375.013,988.0239,378.644,978.8688,374.8099,983.028,370.6507,979.1938,375.013,988.0239" style="stroke:#181818;stroke-width:1.0;"/></g><!--link qa_compl to fork_state2--><g id="link_qa_compl_fork_state2"><path d="M360.971,1038.3429 C347.485,1059.9199 332.1042,1084.531 326.1212,1094.103 " fill="none" id="qa_compl-to-fork_state2" style="stroke:#181818;stroke-width:1.0;"/><polygon fill="#181818" points="322.941,1099.1909,331.1032,1093.6792,325.5912,1094.951,324.3194,1089.4389,322.941,1099.1909" style="stroke:#181818;stroke-width:1.0;"/></g><!--link fork_state2 to UAT--><g id="link_fork_state2_UAT"><path d="M321,1107.6389 C321,1117.4339 321,1140.7279 321,1162.1199 " fill="none" id="fork_state2-to-UAT" style="stroke:#181818;stroke-width:1.0;"/><polygon fill="#181818" points="321,1168.1199,325,1159.1199,321,1163.1199,317,1159.1199,321,1168.1199" style="stroke:#181818;stroke-width:1.0;"/></g><!--link UAT to join_state1--><g id="link_UAT_join_state1"><path d="M293.675,1218.3429 C269.155,1239.9199 239.9112,1265.6551 229.0342,1275.2271 " fill="none" id="UAT-to-join_state1" style="stroke:#181818;stroke-width:1.0;"/><polygon fill="#181818" points="224.53,1279.1909,233.9289,1276.248,228.2835,1275.8877,228.6438,1270.2423,224.53,1279.1909" style="stroke:#181818;stroke-width:1.0;"/></g><!--link fork_state2 to join_state1--><g id="link_fork_state2_join_state1"><path d="M316.552,1107.5009 C305.003,1116.0469 273.799,1140.6269 257,1168.2969 C232.873,1208.0379 224.2655,1259.5748 222.2755,1273.3228 " fill="none" id="fork_state2-to-join_state1" style="stroke:#181818;stroke-width:1.0;"/><polygon fill="#181818" points="221.416,1279.2609,226.664,1270.9267,222.1323,1274.3124,218.7466,1269.7807,221.416,1279.2609" style="stroke:#181818;stroke-width:1.0;"/></g><!--link join_state1 to release_rdy--><g id="link_join_state1_release_rdy"><path d="M221,1287.4579 C221,1296.8589 221,1319.4079 221,1342.2069 " fill="none" id="join_state1-to-release_rdy" style="stroke:#181818;stroke-width:1.0;"/><polygon fill="#181818" points="221,1348.2069,225,1339.2069,221,1343.2069,217,1339.2069,221,1348.2069" style="stroke:#181818;stroke-width:1.0;"/></g><!--link release_rdy to closed_compl--><g id="link_release_rdy_closed_compl"><path d="M221,1412.3829 C221,1431.4422 221,1449.4838 221,1467.1163 " fill="none" id="release_rdy-to-closed_compl" style="stroke:#181818;stroke-width:1.0;"/><polygon fill="#181818" points="221,1473.1163,225,1464.1163,221,1468.1163,217,1464.1163,221,1473.1163" style="stroke:#181818;stroke-width:1.0;"/></g><!--SRC=[ZLJVRzem47xFNt7gK_k0flKngf1I4Z4sHcYWc_Q4lFYWteoTsWwC_VKxXoGrK6ayvNBVtNS_VKuuYR3CHfzWuRGHQ6DOChD11vydHG9hgVTmc-R5NHHPnnp2MflVgqRy20yF_cyul83kpw5VMgWtB_z7K8lDikynf6XB8oedTWYstcwPEOJm61KQ9e5tPbh1NhWNO592gPN3FmxOZWd9Vahic1-JqPTfFevX994PICeIAyTKYJ0omg4HxDnmRWHrmOc_o3kIcpJx1iiSqlm6cAKCTYkdkOvXKUeAeVJK_pFDh1DRiZWbdSnWNkJZ8biiUdkXAXD38dsf5IgEggIXW46hvOxyhtAVA61bqqhIeTJL5fKx2JtAlywdsJBh7KkzhIJLNr2edS0zSc2AmnPf5_WrdWM-ri9uD-DmJU4zAYa7hnCAo3VgKtXAWZQzihPBxr9KKX-E3EHqAzQW43dokv3hl1F4U6p4KysaS0VIsTeJLsZ0eNLGIQQk8LXsnb1Nl1dW5KwFzSPICUt40e-Jtf5vsxeqAF8vMRvN9QdZ1hDYemPwlUvOYsoQ9OiCYYn9VpIy1caZBQuCF_WTVK5UI-AcvqYaz4eevvIoQuokP6cjOQQfUKUZlgpHD5zaAGnEYokbjiZVjef2zbMUb4Ul6mQ3OVS2e_RRwBht4tL2h_LzZZgXrpRHebvgzC6vYiBJvR5syIxqmR6AcxwbkFimKHlQ1RexKUlMKJIvjDzETyoa4yuIkO_2G-an6cpaXtiM_C8knCABwh5WO54WDrWuZNy0]--></g></svg>