<?xml version="1.0" encoding="us-ascii" standalone="no"?><svg xmlns="http://www.w3.org/2000/svg" xmlns:xlink="http://www.w3.org/1999/xlink" contentStyleType="text/css" height="1729px" preserveAspectRatio="none" style="width:656px;height:1729px;background:#FFFFFF;" version="1.1" viewBox="0 0 656 1729" width="656px" zoomAndPan="magnify"><defs/><g><text fill="#000000" font-family="sans-serif" font-size="14" font-weight="bold" lengthAdjust="spacing" textLength="302" x="170.199" y="22.9951">TECH Stories: Target JIRA flow + DOR</text><rect fill="#555555" height="8" style="stroke:none;stroke-width:1.0;" width="80" x="291.5" y="739.2969"/><rect fill="#555555" height="8" style="stroke:none;stroke-width:1.0;" width="80" x="260.5" y="1213.2969"/><rect fill="#555555" height="8" style="stroke:none;stroke-width:1.0;" width="80" x="313.5" y="1576.2969"/><g id="NEW"><rect fill="#F1F1F1" height="64.2344" rx="12.5" ry="12.5" style="stroke:#181818;stroke-width:0.5;" width="256" x="203.5" y="44.2969"/><line style="stroke:#181818;stroke-width:0.5;" x1="203.5" x2="459.5" y1="70.5938" y2="70.5938"/><text fill="#000000" font-family="sans-serif" font-size="14" lengthAdjust="spacing" textLength="33" x="315" y="62.292">NEW</text><text fill="#000000" font-family="sans-serif" font-size="12" lengthAdjust="spacing" textLength="236" x="208.5" y="86.7324">Business Value or Tech need identified</text><text fill="#000000" font-family="sans-serif" font-size="12" lengthAdjust="spacing" textLength="128" x="208.5" y="100.7012">Descriptive summary</text></g><g id="BACKLOG"><rect fill="#F1F1F1" height="64.2344" rx="12.5" ry="12.5" style="stroke:#181818;stroke-width:0.5;" width="309" x="177" y="169.2969"/><line style="stroke:#181818;stroke-width:0.5;" x1="177" x2="486" y1="195.5938" y2="195.5938"/><text fill="#000000" font-family="sans-serif" font-size="14" lengthAdjust="spacing" textLength="70" x="296.5" y="187.292">BACKLOG</text><text fill="#000000" font-family="sans-serif" font-size="12" lengthAdjust="spacing" textLength="289" x="182" y="211.7324">Descriptiion contains all functional requirements</text><text fill="#000000" font-family="sans-serif" font-size="12" lengthAdjust="spacing" textLength="214" x="182" y="225.7012">Dependencies identified and linked</text></g><g id="dev_todo"><rect fill="#F1F1F1" height="120.1094" rx="12.5" ry="12.5" style="stroke:#181818;stroke-width:0.5;" width="313" x="175" y="294.2969"/><line style="stroke:#181818;stroke-width:0.5;" x1="175" x2="488" y1="320.5938" y2="320.5938"/><text fill="#000000" font-family="sans-serif" font-size="14" lengthAdjust="spacing" textLength="80" x="291.5" y="312.292">DEV TO DO</text><text fill="#000000" font-family="sans-serif" font-size="12" lengthAdjust="spacing" textLength="60" x="180" y="336.7324">Prioritized</text><text fill="#000000" font-family="sans-serif" font-size="12" lengthAdjust="spacing" textLength="293" x="180" y="350.7012">All non-functional requirements described/linked</text><text fill="#000000" font-family="sans-serif" font-size="12" lengthAdjust="spacing" textLength="153" x="180" y="364.6699">Clear Acceptance Criteria</text><text fill="#000000" font-family="sans-serif" font-size="12" lengthAdjust="spacing" textLength="169" x="180" y="378.6387">BIA/DA Data Modelling Done</text><text fill="#000000" font-family="sans-serif" font-size="12" lengthAdjust="spacing" textLength="227" x="180" y="392.6074">STTM and Data Dictionary Provisioned</text><text fill="#000000" font-family="sans-serif" font-size="12" lengthAdjust="spacing" textLength="163" x="180" y="406.5762">All dependencies resolved</text></g><g id="dev_inpr"><rect fill="#F1F1F1" height="78.2031" rx="12.5" ry="12.5" style="stroke:#181818;stroke-width:0.5;" width="183" x="240" y="475.2969"/><line style="stroke:#181818;stroke-width:0.5;" x1="240" x2="423" y1="501.5938" y2="501.5938"/><text fill="#000000" font-family="sans-serif" font-size="14" lengthAdjust="spacing" textLength="130" x="266.5" y="493.292">DEV IN PROGRESS</text><text fill="#000000" font-family="sans-serif" font-size="12" lengthAdjust="spacing" textLength="59" x="245" y="517.7324">Estimated</text><text fill="#000000" font-family="sans-serif" font-size="12" lengthAdjust="spacing" textLength="163" x="245" y="531.7012">All dependencies resolved</text><text fill="#000000" font-family="sans-serif" font-size="12" lengthAdjust="spacing" textLength="129" x="245" y="545.6699">QA Approach Agreed</text></g><g id="dev_compl"><rect fill="#F1F1F1" height="64.2344" rx="12.5" ry="12.5" style="stroke:#181818;stroke-width:0.5;" width="235" x="214" y="614.2969"/><line style="stroke:#181818;stroke-width:0.5;" x1="214" x2="449" y1="640.5938" y2="640.5938"/><text fill="#000000" font-family="sans-serif" font-size="14" lengthAdjust="spacing" textLength="111" x="276" y="632.292">DEV COMPLETE</text><text fill="#000000" font-family="sans-serif" font-size="12" lengthAdjust="spacing" textLength="152" x="219" y="656.7324">PR reviewed and merged</text><text fill="#000000" font-family="sans-serif" font-size="12" lengthAdjust="spacing" textLength="215" x="219" y="670.7012">Required artefacts delivered in DEV</text></g><g id="qa_todo"><rect fill="#F1F1F1" height="64.2344" rx="12.5" ry="12.5" style="stroke:#181818;stroke-width:0.5;" width="243" x="57" y="808.2969"/><line style="stroke:#181818;stroke-width:0.5;" x1="57" x2="300" y1="834.5938" y2="834.5938"/><text fill="#000000" font-family="sans-serif" font-size="14" lengthAdjust="spacing" textLength="71" x="143" y="826.292">QA TO DO</text><text fill="#000000" font-family="sans-serif" font-size="12" lengthAdjust="spacing" textLength="223" x="62" y="850.7324">Static Code Analysis run successfully</text><text fill="#000000" font-family="sans-serif" font-size="12" lengthAdjust="spacing" textLength="159" x="62" y="864.7012">Dev tests run successfully</text></g><g id="qa_inpr"><rect fill="#F1F1F1" height="64.2344" rx="12.5" ry="12.5" style="stroke:#181818;stroke-width:0.5;" width="301" x="7" y="949.2969"/><line style="stroke:#181818;stroke-width:0.5;" x1="7" x2="308" y1="975.5938" y2="975.5938"/><text fill="#000000" font-family="sans-serif" font-size="14" lengthAdjust="spacing" textLength="121" x="97" y="967.292">QA IN PROGRESS</text><text fill="#000000" font-family="sans-serif" font-size="12" lengthAdjust="spacing" textLength="281" x="12" y="991.7324">Required artefacts deployed in QA (if needed)</text><text fill="#000000" font-family="sans-serif" font-size="12" lengthAdjust="spacing" textLength="176" x="12" y="1005.7012">Test Plan created (if needed)</text></g><g id="qa_compl"><rect fill="#F1F1F1" height="78.2031" rx="12.5" ry="12.5" style="stroke:#181818;stroke-width:0.5;" width="195" x="203" y="1074.2969"/><line style="stroke:#181818;stroke-width:0.5;" x1="203" x2="398" y1="1100.5938" y2="1100.5938"/><text fill="#000000" font-family="sans-serif" font-size="14" lengthAdjust="spacing" textLength="102" x="249.5" y="1092.292">QA COMPLETE</text><text fill="#000000" font-family="sans-serif" font-size="12" lengthAdjust="spacing" textLength="131" x="208" y="1116.7324">All found bugs closed</text><text fill="#000000" font-family="sans-serif" font-size="12" lengthAdjust="spacing" textLength="175" x="208" y="1130.7012">Quality assured per test plan</text><text fill="#000000" font-family="sans-serif" font-size="12" lengthAdjust="spacing" textLength="109" x="208" y="1144.6699">Test plan updated</text></g><g id="UAT"><rect fill="#F1F1F1" height="78.2031" rx="12.5" ry="12.5" style="stroke:#181818;stroke-width:0.5;" width="152" x="458.5" y="1282.2969"/><line style="stroke:#181818;stroke-width:0.5;" x1="458.5" x2="610.5" y1="1308.5938" y2="1308.5938"/><text fill="#000000" font-family="sans-serif" font-size="14" lengthAdjust="spacing" textLength="28" x="520.5" y="1300.292">UAT</text><text fill="#000000" font-family="sans-serif" font-size="12" lengthAdjust="spacing" textLength="68" x="463.5" y="1324.7324">QA sign-off</text><text fill="#000000" font-family="sans-serif" font-size="12" lengthAdjust="spacing" textLength="101" x="463.5" y="1338.7012">Deployed in UAT</text><text fill="#000000" font-family="sans-serif" font-size="12" lengthAdjust="spacing" textLength="132" x="463.5" y="1352.6699">UAT artefacts created</text></g><g id="release_rdy"><rect fill="#F1F1F1" height="78.2031" rx="12.5" ry="12.5" style="stroke:#181818;stroke-width:0.5;" width="142" x="460.5" y="1437.2969"/><line style="stroke:#181818;stroke-width:0.5;" x1="460.5" x2="602.5" y1="1463.5938" y2="1463.5938"/><text fill="#000000" font-family="sans-serif" font-size="14" lengthAdjust="spacing" textLength="117" x="473" y="1455.292">RELEASE READY</text><text fill="#000000" font-family="sans-serif" font-size="12" lengthAdjust="spacing" textLength="91" x="465.5" y="1479.7324">UAT Signed-off</text><text fill="#000000" font-family="sans-serif" font-size="12" lengthAdjust="spacing" textLength="122" x="465.5" y="1493.7012">Test Report Created</text><text fill="#000000" font-family="sans-serif" font-size="12" lengthAdjust="spacing" textLength="93" x="465.5" y="1507.6699">All bugs closed</text></g><g id="closed_compl"><rect fill="#F1F1F1" height="78.2031" rx="12.5" ry="12.5" style="stroke:#181818;stroke-width:0.5;" width="223" x="242" y="1645.2969"/><line style="stroke:#181818;stroke-width:0.5;" x1="242" x2="465" y1="1671.5938" y2="1671.5938"/><text fill="#000000" font-family="sans-serif" font-size="14" lengthAdjust="spacing" textLength="149" x="279" y="1663.292">CLOSED - COMPLETE</text><text fill="#000000" font-family="sans-serif" font-size="12" lengthAdjust="spacing" textLength="203" x="247" y="1687.7324">Scheduled for next PROD Release</text><text fill="#000000" font-family="sans-serif" font-size="12" lengthAdjust="spacing" textLength="129" x="247" y="1701.7012">Release Notes READY</text><text fill="#000000" font-family="sans-serif" font-size="12" lengthAdjust="spacing" textLength="95" x="247" y="1715.6699">PROD Deployed</text></g><!--link NEW to BACKLOG--><g id="link_NEW_BACKLOG"><path d="M331.5,108.3369 C331.5,126.9769 331.5,144.6269 331.5,163.2669 " fill="none" id="NEW-to-BACKLOG" style="stroke:#181818;stroke-width:1.0;"/><polygon fill="#181818" points="331.5,169.2669,335.5,160.2669,331.5,164.2669,327.5,160.2669,331.5,169.2669" style="stroke:#181818;stroke-width:1.0;"/></g><!--link BACKLOG to dev_todo--><g id="link_BACKLOG_dev_todo"><path d="M331.5,233.5869 C331.5,251.1169 331.5,267.5669 331.5,288.2769 " fill="none" id="BACKLOG-to-dev_todo" style="stroke:#181818;stroke-width:1.0;"/><polygon fill="#181818" points="331.5,294.2769,335.5,285.2769,331.5,289.2769,327.5,285.2769,331.5,294.2769" style="stroke:#181818;stroke-width:1.0;"/></g><!--link dev_todo to dev_inpr--><g id="link_dev_todo_dev_inpr"><path d="M331.5,414.5769 C331.5,434.8969 331.5,451.0669 331.5,469.2469 " fill="none" id="dev_todo-to-dev_inpr" style="stroke:#181818;stroke-width:1.0;"/><polygon fill="#181818" points="331.5,475.2469,335.5,466.2469,331.5,470.2469,327.5,466.2469,331.5,475.2469" style="stroke:#181818;stroke-width:1.0;"/></g><!--link dev_inpr to dev_compl--><g id="link_dev_inpr_dev_compl"><path d="M331.5,553.5969 C331.5,572.9169 331.5,590.0569 331.5,608.2469 " fill="none" id="dev_inpr-to-dev_compl" style="stroke:#181818;stroke-width:1.0;"/><polygon fill="#181818" points="331.5,614.2469,335.5,605.2469,331.5,609.2469,327.5,605.2469,331.5,614.2469" style="stroke:#181818;stroke-width:1.0;"/></g><!--link dev_compl to fork_state1--><g id="link_dev_compl_fork_state1"><path d="M331.5,678.4069 C331.5,701.1269 331.5,723.5659 331.5,733.0509 " fill="none" id="dev_compl-to-fork_state1" style="stroke:#181818;stroke-width:1.0;"/><polygon fill="#181818" points="331.5,739.0509,335.5,730.0509,331.5,734.0509,327.5,730.0509,331.5,739.0509" style="stroke:#181818;stroke-width:1.0;"/></g><!--link fork_state1 to qa_todo--><g id="link_fork_state1_qa_todo"><path d="M326.409,747.4579 C311.269,756.8589 270.3873,782.2429 233.6683,805.0419 " fill="none" id="fork_state1-to-qa_todo" style="stroke:#181818;stroke-width:1.0;"/><polygon fill="#181818" points="228.571,808.2069,238.327,806.8577,232.8188,805.5694,234.107,800.0612,228.571,808.2069" style="stroke:#181818;stroke-width:1.0;"/></g><!--link fork_state1 to qa_compl--><g id="link_fork_state1_qa_compl"><path d="M331.7,747.5159 C333.038,769.9279 340.193,904.9809 325.5,1013.2969 C322.736,1033.6739 318.9521,1050.1304 313.8811,1068.3584 " fill="none" id="fork_state1-to-qa_compl" style="stroke:#181818;stroke-width:1.0;"/><polygon fill="#181818" points="312.273,1074.1389,318.5388,1066.5402,313.6131,1069.3218,310.8315,1064.3961,312.273,1074.1389" style="stroke:#181818;stroke-width:1.0;"/><text fill="#000000" font-family="sans-serif" font-size="13" lengthAdjust="spacing" textLength="229" x="335.5" y="915.3638">QA not needed or 100% automated</text></g><!--link qa_todo to qa_inpr--><g id="link_qa_todo_qa_inpr"><path d="M173.787,872.4909 C170.329,895.3839 166.5483,920.4062 163.0933,943.2742 " fill="none" id="qa_todo-to-qa_inpr" style="stroke:#181818;stroke-width:1.0;"/><polygon fill="#181818" points="162.197,949.2069,167.4966,940.9054,162.9439,944.263,159.5864,939.7103,162.197,949.2069" style="stroke:#181818;stroke-width:1.0;"/></g><!--link qa_inpr to qa_compl--><g id="link_qa_inpr_qa_compl"><path d="M191.752,1013.4349 C211.831,1031.6879 232.9064,1050.8478 254.1754,1070.1838 " fill="none" id="qa_inpr-to-qa_compl" style="stroke:#181818;stroke-width:1.0;"/><polygon fill="#181818" points="258.615,1074.2199,254.6464,1065.206,254.9153,1070.8565,249.2649,1071.1254,258.615,1074.2199" style="stroke:#181818;stroke-width:1.0;"/></g><!--link qa_compl to fork_state2--><g id="link_qa_compl_fork_state2"><path d="M300.5,1152.5679 C300.5,1176.0839 300.5,1197.4579 300.5,1206.8959 " fill="none" id="qa_compl-to-fork_state2" style="stroke:#181818;stroke-width:1.0;"/><polygon fill="#181818" points="300.5,1212.8959,304.5,1203.8959,300.5,1207.8959,296.5,1203.8959,300.5,1212.8959" style="stroke:#181818;stroke-width:1.0;"/></g><!--link fork_state2 to UAT--><g id="link_fork_state2_UAT"><path d="M307.503,1221.3499 C329.86,1231.0949 395.8888,1259.8763 452.7458,1284.6603 " fill="none" id="fork_state2-to-UAT" style="stroke:#181818;stroke-width:1.0;"/><polygon fill="#181818" points="458.246,1287.0579,451.5941,1279.7948,453.6625,1285.0599,448.3974,1287.1284,458.246,1287.0579" style="stroke:#181818;stroke-width:1.0;"/></g><!--link UAT to release_rdy--><g id="link_UAT_release_rdy"><path d="M610.652,1353.0389 C633.356,1367.1079 649.398,1385.5289 637.5,1407.2969 C629.426,1422.0699 621.5612,1430.7058 607.5992,1440.3168 " fill="none" id="UAT-to-release_rdy" style="stroke:#181818;stroke-width:1.0;"/><polygon fill="#181818" points="602.657,1443.7189,612.3384,1441.9106,606.7755,1440.8838,607.8023,1435.3209,602.657,1443.7189" style="stroke:#181818;stroke-width:1.0;"/></g><!--link release_rdy to join_state1--><g id="link_release_rdy_join_state1"><path d="M464.966,1515.4229 C423.493,1539.1889 380.2609,1563.9618 364.1919,1573.1698 " fill="none" id="release_rdy-to-join_state1" style="stroke:#181818;stroke-width:1.0;"/><polygon fill="#181818" points="358.986,1576.1529,368.7835,1575.1488,363.3242,1573.6669,364.8061,1568.2076,358.986,1576.1529" style="stroke:#181818;stroke-width:1.0;"/></g><!--link fork_state2 to join_state1--><g id="link_fork_state2_join_state1"><path d="M299.212,1221.4459 C291.95,1239.6179 257.036,1332.8609 273.5,1407.2969 C289.716,1480.6119 337.1848,1554.7686 348.1008,1571.2066 " fill="none" id="fork_state2-to-join_state1" style="stroke:#181818;stroke-width:1.0;"/><polygon fill="#181818" points="351.42,1576.2049,349.7734,1566.4946,348.654,1572.0396,343.109,1570.9203,351.42,1576.2049" style="stroke:#181818;stroke-width:1.0;"/><text fill="#000000" font-family="sans-serif" font-size="13" lengthAdjust="spacing" textLength="354" x="274.5" y="1403.3638">for stories not needed Release (e.g. Spikes, POCs, etc.)</text></g><!--link join_state1 to closed_compl--><g id="link_join_state1_closed_compl"><path d="M353.5,1584.6909 C353.5,1594.1279 353.5,1615.5349 353.5,1639.0665 " fill="none" id="join_state1-to-closed_compl" style="stroke:#181818;stroke-width:1.0;"/><polygon fill="#181818" points="353.5,1645.0665,357.5,1636.0665,353.5,1640.0665,349.5,1636.0665,353.5,1645.0665" style="stroke:#181818;stroke-width:1.0;"/></g><!--SRC=[bLRRRjim37ttLn051gpOqjjZC1HmOwFhrZQfxMtOKw7QTAfLaLn9JfTz_IZPJjNRahtOCgd3oo4fsN8h48fqyXbogpH7CuQ2wJbQ-7AMnL0BzG0V89bcKMGiimYrqdVNVda8dpwvh-FZ5wgZvwfVYij7bFiYLQ-xJ7-CuQGrNA8ny9s95a5fAB2y1ObO0QzGMbvph494WgRKlB5yYM3QnOBfrM3n99vyFP-U1dkuab0gQHcN1fWGKBUoj2Hb0ZJUjrpZWfoObmOQbEI-96Q2E8392WINTnJIu7GdIRz3CIMkTe0Pg71vRLMbnZ3Jd9Yr_Cyw_ZUtnXIPL7BqHdIqq-LpWzL-xto3lOb0fY4kIsmiaoN2X091pTacuCbPl9_4a33Bu49LACZV718bSHCoBueBJu_79hpBGw-81hNaXZwsew4AcTTeb5WwiWFasINCikbfbkRv6izbeyUG6iiNjA_QRllRxhQ2NyKGDurMZFerdcjy5kPaUZ4xJujqZIhLeX7K5XdvMN9ywDjfWJHsrJR8h6i9WccBDIjzOmYQ0oVZ4WYxZe22UsJudWr58YKlOKALXPYwR6KuPTrA6YJg5MFgLeZLlqqak0IBnhw22u3FMIDuHzghEJH2hReK2FgUrtxyiThTnc11iS1CC9fpZQxsJmm45fwmIl2ULDS4jMgf43Vjt40fb7cinjkmgvO9RbSaDArBfq7jQO66GjaCBuQjq3QLxzWUyoqkV6SPFfSZLTUXE0c88a6eeaV0QC_4EliiFK_ZF8KiZPEVFXADT48OlDRLgWFdv0-hmECcaCyWmqPfIwSBXbEt0UaO3xaUO9FpQPucC7hAMRTfu2qlRx5g1N50rmnL-RTrRP5G8Dx1_vZg8N2fg6vThFy3zsw7YaHqCy5eT3nS857_zhBXV8k6nLhgEZWQ5ckfTn2jLruUtBvHU1CxNJ-Qhyc7PetfTh7zKBWxzl3Wu1smrghkjEmj32WVLlz-OYaQ5izYEeh2Nm2dS-tfsigjW-97mThhWl-35pO2tTYNstH_Ac4kGn7Vuzvy3_A6tw7v2BFfX9veoxtTAFm3SLR3Alu5]--></g></svg>