<?xml version="1.0" encoding="us-ascii" standalone="no"?><svg xmlns="http://www.w3.org/2000/svg" xmlns:xlink="http://www.w3.org/1999/xlink" contentStyleType="text/css" height="513px" preserveAspectRatio="none" style="width:1717px;height:513px;background:#FFFFFF;" version="1.1" viewBox="0 0 1717 513" width="1717px" zoomAndPan="magnify"><defs/><g><text fill="#000000" font-family="sans-serif" font-size="14" font-weight="bold" lengthAdjust="spacing" textLength="320" x="691.94" y="22.9951">Development tickets Release Use Cases</text><!--entity QA--><g id="elem_QA"><ellipse cx="732.5" cy="59.2969" fill="#F1F1F1" rx="16" ry="16" style="stroke:#181818;stroke-width:1.5;"/><path d="M732.5,79.2969 C736.5,79.2969 739.5,79.2969 743.5,75.2969 C751.5,75.2969 759.5,83.2969 759.5,91.2969 L759.5,95.2969 C759.5,99.2969 755.5,103.2969 751.5,103.2969 L713.5,103.2969 C709.5,103.2969 705.5,99.2969 705.5,95.2969 L705.5,91.2969 C705.5,83.2969 713.5,75.2969 721.5,75.2969 C725.5,79.2969 728.5,79.2969 732.5,79.2969 " fill="#F1F1F1" style="stroke:#181818;stroke-width:1.5;"/><text fill="#000000" font-family="sans-serif" font-size="14" lengthAdjust="spacing" textLength="89" x="688" y="117.792">QA Engineer</text></g><!--entity DataDev--><g id="elem_DataDev"><ellipse cx="272.5" cy="59.2969" fill="#F1F1F1" rx="16" ry="16" style="stroke:#181818;stroke-width:1.5;"/><path d="M272.5,79.2969 C276.5,79.2969 279.5,79.2969 283.5,75.2969 C291.5,75.2969 299.5,83.2969 299.5,91.2969 L299.5,95.2969 C299.5,99.2969 295.5,103.2969 291.5,103.2969 L253.5,103.2969 C249.5,103.2969 245.5,99.2969 245.5,95.2969 L245.5,91.2969 C245.5,83.2969 253.5,75.2969 261.5,75.2969 C265.5,79.2969 268.5,79.2969 272.5,79.2969 " fill="#F1F1F1" style="stroke:#181818;stroke-width:1.5;"/><text fill="#000000" font-family="sans-serif" font-size="14" lengthAdjust="spacing" textLength="66" x="239.5" y="117.792">Data Dev</text></g><!--entity BIDev--><g id="elem_BIDev"><ellipse cx="1622.5" cy="59.2969" fill="#F1F1F1" rx="16" ry="16" style="stroke:#181818;stroke-width:1.5;"/><path d="M1622.5,79.2969 C1626.5,79.2969 1629.5,79.2969 1633.5,75.2969 C1641.5,75.2969 1649.5,83.2969 1649.5,91.2969 L1649.5,95.2969 C1649.5,99.2969 1645.5,103.2969 1641.5,103.2969 L1603.5,103.2969 C1599.5,103.2969 1595.5,99.2969 1595.5,95.2969 L1595.5,91.2969 C1595.5,83.2969 1603.5,75.2969 1611.5,75.2969 C1615.5,79.2969 1618.5,79.2969 1622.5,79.2969 " fill="#F1F1F1" style="stroke:#181818;stroke-width:1.5;"/><text fill="#000000" font-family="sans-serif" font-size="14" lengthAdjust="spacing" textLength="46" x="1599.5" y="117.792">BI Dev</text></g><!--entity DevOps--><g id="elem_DevOps"><ellipse cx="1173.5" cy="199.2969" fill="#F1F1F1" rx="16" ry="16" style="stroke:#181818;stroke-width:1.5;"/><path d="M1173.5,219.2969 C1177.5,219.2969 1180.5,219.2969 1184.5,215.2969 C1192.5,215.2969 1200.5,223.2969 1200.5,231.2969 L1200.5,235.2969 C1200.5,239.2969 1196.5,243.2969 1192.5,243.2969 L1154.5,243.2969 C1150.5,243.2969 1146.5,239.2969 1146.5,235.2969 L1146.5,231.2969 C1146.5,223.2969 1154.5,215.2969 1162.5,215.2969 C1166.5,219.2969 1169.5,219.2969 1173.5,219.2969 " fill="#F1F1F1" style="stroke:#181818;stroke-width:1.5;"/><text fill="#000000" font-family="sans-serif" font-size="14" lengthAdjust="spacing" textLength="194" x="1076.5" y="257.792">Release Engineer (DevOps)</text></g><!--entity PT--><g id="elem_PT"><ellipse cx="1463.5" cy="59.2969" fill="#F1F1F1" rx="16" ry="16" style="stroke:#181818;stroke-width:1.5;"/><path d="M1463.5,79.2969 C1467.5,79.2969 1470.5,79.2969 1474.5,75.2969 C1482.5,75.2969 1490.5,83.2969 1490.5,91.2969 L1490.5,95.2969 C1490.5,99.2969 1486.5,103.2969 1482.5,103.2969 L1444.5,103.2969 C1440.5,103.2969 1436.5,99.2969 1436.5,95.2969 L1436.5,91.2969 C1436.5,83.2969 1444.5,75.2969 1452.5,75.2969 C1456.5,79.2969 1459.5,79.2969 1463.5,79.2969 " fill="#F1F1F1" style="stroke:#181818;stroke-width:1.5;"/><text fill="#000000" font-family="sans-serif" font-size="14" lengthAdjust="spacing" textLength="100" x="1413.5" y="117.792">Product Team</text></g><g id="elem_DEV_deploy"><ellipse cx="382.6678" cy="483.6304" fill="#F1F1F1" rx="67.1678" ry="15.8336" style="stroke:#181818;stroke-width:0.5;"/><text fill="#000000" font-family="sans-serif" font-size="14" lengthAdjust="spacing" textLength="85" x="337.1678" y="487.378">Deploy DEV</text></g><g id="elem_UAT_deploy"><ellipse cx="1244.4626" cy="360.9894" fill="#F1F1F1" rx="66.4626" ry="15.6925" style="stroke:#181818;stroke-width:0.5;"/><text fill="#000000" font-family="sans-serif" font-size="14" lengthAdjust="spacing" textLength="83" x="1199.9626" y="364.737">Deploy UAT</text></g><g id="elem_QA_deploy"><ellipse cx="787.5594" cy="484.0088" fill="#F1F1F1" rx="64.0594" ry="15.2119" style="stroke:#181818;stroke-width:0.5;"/><text fill="#000000" font-family="sans-serif" font-size="14" lengthAdjust="spacing" textLength="76" x="746.5594" y="487.7563">Deploy QA</text></g><g id="elem_PROD_deploy"><ellipse cx="1417.6781" cy="360.9325" fill="#F1F1F1" rx="71.1781" ry="16.6356" style="stroke:#181818;stroke-width:0.5;"/><text fill="#000000" font-family="sans-serif" font-size="14" lengthAdjust="spacing" textLength="96" x="1366.6781" y="364.6801">Deploy PROD</text></g><g id="elem_PR_create"><ellipse cx="68.7349" cy="221.2438" fill="#F1F1F1" rx="62.7349" ry="14.947" style="stroke:#181818;stroke-width:0.5;"/><text fill="#000000" font-family="sans-serif" font-size="14" lengthAdjust="spacing" textLength="72" x="29.7349" y="224.9914">Create PR</text></g><g id="elem_PR_review"><ellipse cx="580.3925" cy="221.3754" fill="#F1F1F1" rx="63.3925" ry="15.0785" style="stroke:#181818;stroke-width:0.5;"/><text fill="#000000" font-family="sans-serif" font-size="14" lengthAdjust="spacing" textLength="74" x="540.3925" y="225.1229">Review PR</text></g><g id="elem_PR_merge"><ellipse cx="184.313" cy="360.574" fill="#F1F1F1" rx="60.813" ry="14.7771" style="stroke:#181818;stroke-width:0.5;"/><text fill="#000000" font-family="sans-serif" font-size="14" lengthAdjust="spacing" textLength="68" x="147.313" y="364.3216">Merge PR</text></g><g id="elem_test_automation"><ellipse cx="569.4263" cy="483.5821" fill="#F1F1F1" rx="84.4263" ry="19.2853" style="stroke:#181818;stroke-width:0.5;"/><text fill="#000000" font-family="sans-serif" font-size="14" lengthAdjust="spacing" textLength="129" x="504.805" y="486.4708">Quality Gate: AQA</text></g><g id="elem_dev_tests"><ellipse cx="382.7481" cy="360.6465" fill="#F1F1F1" rx="102.2481" ry="22.8496" style="stroke:#181818;stroke-width:0.5;"/><text fill="#000000" font-family="sans-serif" font-size="14" lengthAdjust="spacing" textLength="169" x="298.2481" y="363.4932">Quality Gate: Dev Tests</text></g><g id="elem_terraform_release"><ellipse cx="1244.6693" cy="483.9307" fill="#F1F1F1" rx="93.6693" ry="21.1339" style="stroke:#181818;stroke-width:0.5;"/><text fill="#000000" font-family="sans-serif" font-size="14" lengthAdjust="spacing" textLength="150" x="1169.6693" y="486.7774">IaC/Platform Release</text></g><g id="elem_QA_signoff"><ellipse cx="932.6701" cy="221.4309" fill="#F1F1F1" rx="108.6701" ry="24.134" style="stroke:#181818;stroke-width:0.5;"/><text fill="#000000" font-family="sans-serif" font-size="14" lengthAdjust="spacing" textLength="183" x="841.1701" y="224.2776">Quality Gate: QA Sign-Off</text></g><g id="elem_UAT_signoff"><ellipse cx="1417.4079" cy="221.0785" fill="#F1F1F1" rx="111.9079" ry="24.7816" style="stroke:#181818;stroke-width:0.5;"/><text fill="#000000" font-family="sans-serif" font-size="14" lengthAdjust="spacing" textLength="190" x="1322.4079" y="223.9251">Quality Gate: UAT Sign-Off</text></g><g id="elem_DEV_QA_test"><ellipse cx="412.464" cy="221.4897" fill="#F1F1F1" rx="68.964" ry="16.1928" style="stroke:#181818;stroke-width:0.5;"/><text fill="#000000" font-family="sans-serif" font-size="14" lengthAdjust="spacing" textLength="90" x="364.464" y="225.2372">Dev/QA Test</text></g><g id="elem_UAT_test"><ellipse cx="1622.3265" cy="221.0535" fill="#F1F1F1" rx="57.8265" ry="14.7566" style="stroke:#181818;stroke-width:0.5;"/><text fill="#000000" font-family="sans-serif" font-size="14" lengthAdjust="spacing" textLength="64" x="1587.3265" y="224.801">UAT Test</text></g><g id="elem_PROD_bi"><ellipse cx="1503.5751" cy="484.0119" fill="#F1F1F1" rx="104.0751" ry="23.215" style="stroke:#181818;stroke-width:0.5;"/><text fill="#000000" font-family="sans-serif" font-size="14" lengthAdjust="spacing" textLength="173" x="1417.0751" y="486.8586">MART PROD ready for BI</text></g><!--link DataDev to PR_create--><g id="link_DataDev_PR_create"><path d="M239.436,100.7979 C216.333,114.0539 185.001,132.6929 158.5,150.7969 C131.929,168.9479 107.3557,188.3665 89.631,202.8365 " fill="none" id="DataDev-to-PR_create" style="stroke:#181818;stroke-width:1.0;"/><polygon fill="#181818" points="84.9831,206.6309,94.4845,204.0379,88.8563,203.4689,89.4253,197.8407,84.9831,206.6309" style="stroke:#181818;stroke-width:1.0;"/></g><!--link DataDev to PR_review--><g id="link_DataDev_PR_review"><path d="M305.548,96.5489 C349.674,115.6459 430.208,150.7369 498.5,181.7969 C517.111,190.2609 532.5442,197.4871 548.5642,205.0801 " fill="none" id="DataDev-to-PR_review" style="stroke:#181818;stroke-width:1.0;"/><polygon fill="#181818" points="553.986,207.6499,547.5664,200.1806,549.4678,205.5084,544.1401,207.4098,553.986,207.6499" style="stroke:#181818;stroke-width:1.0;"/></g><!--link QA to PR_review--><g id="link_QA_PR_review"><path d="M689.755,121.1049 C658.32,149.6449 621.8712,182.7357 600.1172,202.4867 " fill="none" id="QA-to-PR_review" style="stroke:#181818;stroke-width:1.0;"/><polygon fill="#181818" points="595.675,206.5199,605.0271,203.4316,599.3768,203.1589,599.6495,197.5086,595.675,206.5199" style="stroke:#181818;stroke-width:1.0;"/></g><!--link BIDev to PR_review--><g id="link_BIDev_PR_review"><path d="M1593.8,97.2109 C1576.28,105.6059 1553.15,115.4509 1531.5,120.7969 C1217.57,198.3169 1127.28,141.0529 806.5,181.7969 C744.312,189.6959 678.996,201.3302 633.403,209.9742 " fill="none" id="BIDev-to-PR_review" style="stroke:#181818;stroke-width:1.0;"/><polygon fill="#181818" points="627.508,211.0919,637.0956,213.3454,632.4205,210.1605,635.6054,205.4854,627.508,211.0919" style="stroke:#181818;stroke-width:1.0;"/></g><!--link PR_review to PR_merge--><g id="link_PR_review_PR_merge"><path d="M555.395,235.1519 C539.357,243.0959 517.985,253.1899 498.5,260.7969 C446.785,280.9859 298.5123,325.8207 227.2173,347.1027 " fill="none" id="PR_review-to-PR_merge" style="stroke:#181818;stroke-width:1.0;stroke-dasharray:7.0,7.0;"/><polygon fill="#181818" points="221.468,348.8189,231.2361,350.0774,226.2591,347.3887,228.9478,342.4117,221.468,348.8189" style="stroke:#181818;stroke-width:1.0;"/><text fill="#000000" font-family="sans-serif" font-size="13" lengthAdjust="spacing" textLength="53" x="410.5" y="303.8638">approve</text></g><!--link DataDev to PR_merge--><g id="link_DataDev_PR_merge"><path d="M254.076,120.9529 C245.852,139.1479 236.467,161.3079 229.5,181.7969 C209.182,241.5499 194.5591,309.4711 188.4391,339.8461 " fill="none" id="DataDev-to-PR_merge" style="stroke:#181818;stroke-width:1.0;"/><polygon fill="#181818" points="187.254,345.7279,192.9528,337.6952,188.2416,340.8264,185.1104,336.1151,187.254,345.7279" style="stroke:#181818;stroke-width:1.0;"/></g><!--link DataDev to dev_tests--><g id="link_DataDev_dev_tests"><path d="M269.159,121.0409 C267.513,158.4889 269.24,215.9779 289.5,260.7969 C303.779,292.3849 327.7125,316.5004 349.4315,334.5784 " fill="none" id="DataDev-to-dev_tests" style="stroke:#181818;stroke-width:1.0;stroke-dasharray:7.0,7.0;"/><polygon fill="#181818" points="354.043,338.4169,349.6847,329.5848,350.2001,335.2182,344.5667,335.7336,354.043,338.4169" style="stroke:#181818;stroke-width:1.0;"/><text fill="#000000" font-family="sans-serif" font-size="13" lengthAdjust="spacing" textLength="34" x="290.5" y="225.8638">owns</text></g><!--link PR_merge to dev_tests--><g id="link_PR_merge_dev_tests"><path d="M245.602,360.7969 C257.188,360.7969 262.774,360.7969 274.361,360.7969 " fill="none" id="PR_merge-to-dev_tests" style="stroke:#181818;stroke-width:1.0;"/><polygon fill="#181818" points="280.361,360.7969,271.361,356.7969,275.361,360.7969,271.361,364.7969,280.361,360.7969" style="stroke:#181818;stroke-width:1.0;"/></g><!--link dev_tests to DEV_deploy--><g id="link_dev_tests_DEV_deploy"><path d="M382.5,383.9899 C382.5,408.2786 382.5,440.56 382.5,461.6329 " fill="none" id="dev_tests-to-DEV_deploy" style="stroke:#181818;stroke-width:1.0;"/><polygon fill="#181818" points="382.5,467.6329,386.5,458.6329,382.5,462.6329,378.5,458.6329,382.5,467.6329" style="stroke:#181818;stroke-width:1.0;"/><text fill="#000000" font-family="sans-serif" font-size="13" lengthAdjust="spacing" textLength="33" x="383.5" y="426.8638">ci/CD</text></g><!--link DEV_deploy to test_automation--><g id="link_DEV_deploy_test_automation"><path d="M449.703,483.7969 C461.402,483.7969 467.101,483.7969 478.8,483.7969 " fill="none" id="DEV_deploy-to-test_automation" style="stroke:#181818;stroke-width:1.0;"/><polygon fill="#181818" points="484.8,483.7969,475.8,479.7969,479.8,483.7969,475.8,487.7969,484.8,483.7969" style="stroke:#181818;stroke-width:1.0;"/></g><!--link QA to test_automation--><g id="link_QA_test_automation"><path d="M717.286,121.0109 C703.016,157.2099 681.012,212.7459 661.5,260.7969 C630.814,336.3669 595.6628,420.4519 579.6658,458.5896 " fill="none" id="QA-to-test_automation" style="stroke:#181818;stroke-width:1.0;stroke-dasharray:7.0,7.0;"/><polygon fill="#181818" points="577.345,464.1226,584.5149,457.3703,579.279,459.5118,577.1376,454.2759,577.345,464.1226" style="stroke:#181818;stroke-width:1.0;"/><text fill="#000000" font-family="sans-serif" font-size="13" lengthAdjust="spacing" textLength="34" x="650.5" y="303.8638">owns</text></g><!--link QA to QA_deploy--><g id="link_QA_QA_deploy"><path d="M737.824,121.0629 C749.685,207.4379 777.0307,406.5615 784.7167,462.5286 " fill="none" id="QA-to-QA_deploy" style="stroke:#181818;stroke-width:1.0;stroke-dasharray:7.0,7.0;"/><polygon fill="#181818" points="785.533,468.4728,788.2713,459.0122,784.8527,463.5193,780.3457,460.1007,785.533,468.4728" style="stroke:#181818;stroke-width:1.0;"/><text fill="#000000" font-family="sans-serif" font-size="13" lengthAdjust="spacing" textLength="53" x="764.5" y="303.8638">approve</text></g><!--link test_automation to QA_deploy--><g id="link_test_automation_QA_deploy"><path d="M654.097,483.7969 C677.076,483.7969 695.581,483.7969 717.235,483.7969 " fill="none" id="test_automation-to-QA_deploy" style="stroke:#181818;stroke-width:1.0;"/><polygon fill="#181818" points="723.235,483.7969,714.235,479.7969,718.235,483.7969,714.235,487.7969,723.235,483.7969" style="stroke:#181818;stroke-width:1.0;"/><text fill="#000000" font-family="sans-serif" font-size="13" lengthAdjust="spacing" textLength="33" x="672.25" y="476.8638">ci/CD</text></g><!--link DevOps to terraform_release--><g id="link_DevOps_terraform_release"><path d="M1099.23,260.7989 C1049.78,291.7929 998.89,337.6539 1028.5,383.7969 C1059.91,432.7491 1116.4353,456.3304 1166.0953,468.9676 " fill="none" id="DevOps-to-terraform_release" style="stroke:#181818;stroke-width:1.0;"/><polygon fill="#181818" points="1171.91,470.4473,1164.1744,464.3513,1167.0644,469.2142,1162.2015,472.1042,1171.91,470.4473" style="stroke:#181818;stroke-width:1.0;"/><text fill="#000000" font-family="sans-serif" font-size="13" lengthAdjust="spacing" textLength="130" x="1029.5" y="365.3638">ext. release process</text></g><!--link DataDev to DEV_QA_test--><g id="link_DataDev_DEV_QA_test"><path d="M305.678,115.0009 C334.787,143.6949 371.4999,179.8829 393.2689,201.3409 " fill="none" id="DataDev-to-DEV_QA_test" style="stroke:#181818;stroke-width:1.0;"/><polygon fill="#181818" points="397.542,205.5529,393.9404,196.3862,393.9811,202.0429,388.3244,202.0836,397.542,205.5529" style="stroke:#181818;stroke-width:1.0;"/></g><!--link QA to DEV_QA_test--><g id="link_QA_DEV_QA_test"><path d="M687.758,101.1989 C640.795,121.0879 564.848,153.3859 499.5,181.7969 C480.566,190.0289 464.8625,196.9633 448.1375,204.3993 " fill="none" id="QA-to-DEV_QA_test" style="stroke:#181818;stroke-width:1.0;"/><polygon fill="#181818" points="442.655,206.8369,452.5039,206.8356,447.2238,204.8056,449.2538,199.5255,442.655,206.8369" style="stroke:#181818;stroke-width:1.0;"/></g><!--link QA to QA_signoff--><g id="link_QA_QA_signoff"><path d="M777.384,113.2669 C814.814,139.0939 862.2876,171.8503 895.5796,194.8223 " fill="none" id="QA-to-QA_signoff" style="stroke:#181818;stroke-width:1.0;"/><polygon fill="#181818" points="900.518,198.2299,895.3821,189.8262,896.4026,195.3902,890.8386,196.4108,900.518,198.2299" style="stroke:#181818;stroke-width:1.0;"/></g><!--link QA_signoff to UAT_deploy--><g id="link_QA_signoff_UAT_deploy"><path d="M979.547,243.0309 C1044.75,271.7649 1155.1696,320.4291 1209.4396,344.3471 " fill="none" id="QA_signoff-to-UAT_deploy" style="stroke:#181818;stroke-width:1.0;stroke-dasharray:7.0,7.0;"/><polygon fill="#181818" points="1214.93,346.7669,1208.3075,339.477,1210.3546,344.7504,1205.0812,346.7975,1214.93,346.7669" style="stroke:#181818;stroke-width:1.0;"/><text fill="#000000" font-family="sans-serif" font-size="13" lengthAdjust="spacing" textLength="53" x="1126.5" y="303.8638">approve</text></g><!--link UAT_deploy to terraform_release--><g id="link_UAT_deploy_terraform_release"><path d="M1244.5,376.6339 C1244.5,398.2159 1244.5,432.334 1244.5,456.5953 " fill="none" id="UAT_deploy-to-terraform_release" style="stroke:#181818;stroke-width:1.0;stroke-dasharray:7.0,7.0;"/><polygon fill="#181818" points="1244.5,462.5953,1248.5,453.5953,1244.5,457.5953,1240.5,453.5953,1244.5,462.5953" style="stroke:#181818;stroke-width:1.0;"/><text fill="#000000" font-family="sans-serif" font-size="13" lengthAdjust="spacing" textLength="75" x="1245.5" y="426.8638">depends on</text></g><!--link DevOps to UAT_deploy--><g id="link_DevOps_UAT_deploy"><path d="M1193.47,260.9639 C1207.9,288.9239 1223.8577,319.8214 1234.1377,339.7344 " fill="none" id="DevOps-to-UAT_deploy" style="stroke:#181818;stroke-width:1.0;"/><polygon fill="#181818" points="1236.89,345.0659,1236.3158,335.2338,1234.5964,340.623,1229.2072,338.9036,1236.89,345.0659" style="stroke:#181818;stroke-width:1.0;"/><text fill="#000000" font-family="sans-serif" font-size="13" lengthAdjust="spacing" textLength="29" x="1217.5" y="303.8638">ci/cd</text></g><!--link QA to UAT_test--><g id="link_QA_UAT_test"><path d="M777.368,82.2979 C902.317,83.4529 1263.73,94.6769 1547.5,181.7969 C1566.95,187.7679 1582.2275,195.5473 1596.8475,204.2063 " fill="none" id="QA-to-UAT_test" style="stroke:#181818;stroke-width:1.0;"/><polygon fill="#181818" points="1602.01,207.2639,1596.3047,199.2358,1597.7079,204.7159,1592.2279,206.1191,1602.01,207.2639" style="stroke:#181818;stroke-width:1.0;"/></g><!--link PT to UAT_test--><g id="link_PT_UAT_test"><path d="M1508.21,121.1049 C1541.1,149.6449 1579.3384,182.8364 1602.0984,202.5874 " fill="none" id="PT-to-UAT_test" style="stroke:#181818;stroke-width:1.0;"/><polygon fill="#181818" points="1606.63,206.5199,1602.4543,197.6001,1602.8537,203.2428,1597.2109,203.6422,1606.63,206.5199" style="stroke:#181818;stroke-width:1.0;"/></g><!--link BIDev to UAT_test--><g id="link_BIDev_UAT_test"><path d="M1622.5,121.1049 C1622.5,149.4849 1622.5,180.3549 1622.5,200.1869 " fill="none" id="BIDev-to-UAT_test" style="stroke:#181818;stroke-width:1.0;"/><polygon fill="#181818" points="1622.5,206.1869,1626.5,197.1869,1622.5,201.1869,1618.5,197.1869,1622.5,206.1869" style="stroke:#181818;stroke-width:1.0;"/></g><!--link PT to UAT_signoff--><g id="link_PT_UAT_signoff"><path d="M1450.56,121.1049 C1442.54,145.1809 1434.379,169.6733 1427.469,190.3833 " fill="none" id="PT-to-UAT_signoff" style="stroke:#181818;stroke-width:1.0;"/><polygon fill="#181818" points="1425.57,196.0749,1432.2129,188.8036,1427.1525,191.3319,1424.6242,186.2715,1425.57,196.0749" style="stroke:#181818;stroke-width:1.0;"/></g><!--link UAT_signoff to PROD_deploy--><g id="link_UAT_signoff_PROD_deploy"><path d="M1417.5,246.5629 C1417.5,274.6259 1417.5,314.0189 1417.5,337.9169 " fill="none" id="UAT_signoff-to-PROD_deploy" style="stroke:#181818;stroke-width:1.0;stroke-dasharray:7.0,7.0;"/><polygon fill="#181818" points="1417.5,343.9169,1421.5,334.9169,1417.5,338.9169,1413.5,334.9169,1417.5,343.9169" style="stroke:#181818;stroke-width:1.0;"/><text fill="#000000" font-family="sans-serif" font-size="13" lengthAdjust="spacing" textLength="53" x="1418.5" y="303.8638">approve</text></g><!--link PROD_deploy to terraform_release--><g id="link_PROD_deploy_terraform_release"><path d="M1399.43,376.9729 C1381.96,391.3979 1354.54,413.4109 1329.5,430.7969 C1312.73,442.4407 1298.5188,451.3346 1282.5088,460.843 " fill="none" id="PROD_deploy-to-terraform_release" style="stroke:#181818;stroke-width:1.0;stroke-dasharray:7.0,7.0;"/><polygon fill="#181818" points="1277.35,463.9068,1287.1307,462.7502,1281.649,461.3536,1283.0456,455.8719,1277.35,463.9068" style="stroke:#181818;stroke-width:1.0;"/><text fill="#000000" font-family="sans-serif" font-size="13" lengthAdjust="spacing" textLength="75" x="1352.5" y="426.8638">depends on</text></g><!--link DevOps to PROD_deploy--><g id="link_DevOps_PROD_deploy"><path d="M1242.12,260.9639 C1291.87,289.0039 1351.1629,322.4132 1386.4329,342.2892 " fill="none" id="DevOps-to-PROD_deploy" style="stroke:#181818;stroke-width:1.0;"/><polygon fill="#181818" points="1391.66,345.2349,1385.7831,337.3316,1387.3041,342.7801,1381.8555,344.3011,1391.66,345.2349" style="stroke:#181818;stroke-width:1.0;"/><text fill="#000000" font-family="sans-serif" font-size="13" lengthAdjust="spacing" textLength="29" x="1325.5" y="303.8638">ci/cd</text></g><!--link PROD_deploy to PROD_bi--><g id="link_PROD_deploy_PROD_bi"><path d="M1437.33,376.7389 C1449.03,386.3299 1463.45,399.6139 1473.5,413.7969 C1483.69,428.1872 1489.4565,440.94 1494.5365,455.1202 " fill="none" id="PROD_deploy-to-PROD_bi" style="stroke:#181818;stroke-width:1.0;"/><polygon fill="#181818" points="1496.56,460.7687,1497.2903,450.9469,1494.8737,456.0616,1489.759,453.645,1496.56,460.7687" style="stroke:#181818;stroke-width:1.0;"/></g><!--link BIDev to PROD_bi--><g id="link_BIDev_PROD_bi"><path d="M1651.08,109.3389 C1668.48,127.8489 1689.1,153.9989 1698.5,181.7969 C1709.75,215.0569 1710.88,227.9409 1698.5,260.7969 C1665.04,349.6039 1582.8339,422.3059 1537.1939,457.8468 " fill="none" id="BIDev-to-PROD_bi" style="stroke:#181818;stroke-width:1.0;"/><polygon fill="#181818" points="1532.46,461.5333,1542.0185,459.1596,1536.405,458.4613,1537.1033,452.8477,1532.46,461.5333" style="stroke:#181818;stroke-width:1.0;"/></g><!--SRC=[bLGzR-Cm3DtrAmXFpP1apt206nU738TyDBqrK6qw46fRXgGabtz_b6n9_kZI8G3r7ldqHD8nmbG86TwnacsDZG4ZyYyq6avO8TS87_JRKg0Pqr-YQRdYDV3SIFLkdbJB7wXbZOonv9Z2MtCL3Q9AW6iufYp9kE5Mtm7sG35BNdS1Uzqvn5_d1U25u7sh5rsXYrboKBAuvGREo6j77CvqRuPj9P-GlVrrs0i5by9XYq1-fEUEf6167jEEEwOpwd3QPnrfeq2pPAkG6oJUivVS8Glxbhl0nv1I3Y7g3whhgAYs01776w-4US9lajX0wXqPrER2RqRMt0ZPp1AfCTGCRNINNk3zOakqTRZZs_MXugQKglRZzAfASGkJCGVRzB4mpV9TN9lblYn3RpG1iYnd9gYbasJRv91jUtbVaw0r6YT4WjOggTdwoDdQZg1sfQUp6m5GRuida6TQcC4yFWMbzMi5o-Kl27EOejq86DaO0sx_9bY8OBLok9lI1dZRAdcVIJisWBOap643yj5evfDWEU1OY9nGtDeDv6AzpLX4RDra5PXzYhrhWlStzcJOw6X-ac-b1rdzpUvxSxPckx81_6TMq9-0H7FKUjIJmNXzmx-1uaRPj_ZOsOuVQVGTiVxPCr_4ObDeeEOC7Z3KejVbXR_VBnexdCVdk1BVfGJFWqE_9-4F8heUW3-pFLBhV0-rGigd6AsmG_u3]--></g></svg>