<?xml version="1.0" encoding="utf-8"?>
<!-- Generator: Adobe Illustrator 25.2.3, SVG Export Plug-In . SVG Version: 6.00 Build 0)  -->
<svg version="1.1" id="Layer_1" xmlns="http://www.w3.org/2000/svg" xmlns:xlink="http://www.w3.org/1999/xlink" x="0px" y="0px" 
	  width="227.9" height="52" viewBox="0 0 227.9 52" xml:space="preserve">
<style type="text/css">
	.st0{clip-path:url(#SVGID_2_);}
	.st1{clip-path:url(#SVGID_4_);fill:#FFFFFF;}
</style>
<g>
	<g>
		<defs>
			<rect id="SVGID_1_" width="227.9" height="52"/>
		</defs>
		<clipPath id="SVGID_2_">
			<use xlink:href="#SVGID_1_"  style="overflow:visible;"/>
		</clipPath>
		<g class="st0">
			<defs>
				<rect id="SVGID_3_" y="0" width="227.9" height="52"/>
			</defs>
			<clipPath id="SVGID_4_">
				<use xlink:href="#SVGID_3_"  style="overflow:visible;"/>
			</clipPath>
			<path class="st1" d="M21.1,14.8c0-3.6-2.4-6.4-5.6-6.4c-3.1,0-5.6,2.1-5.6,4.9c0,8.2,20.8,7.7,20.8,24.2c0,7.7-6.5,14-14.8,14
				h-1.1C6.6,51.6,0,45.2,0,37.5v-2.3h9.1v2.3c0,3,2.7,5.7,5.9,5.7h0.8c3.2,0,5.8-2.5,5.8-5.2c0-10.3-20.8-8.3-20.8-24.1
				C0.8,6,7.3,0,15.5,0c8.2,0,14.6,5.9,14.6,14.8H21.1z"/>
			<polygon class="st1" points="44.6,0.5 74.1,0.5 74.1,8.8 63.9,8.8 63.9,51.6 54.7,51.6 54.7,8.8 44.6,8.8 			"/>
			<path class="st1" d="M118.4,37.5c0,7.7-6.5,14-14.7,14l-1.1,0c-8.2,0-14.8-6.4-14.8-14.1V14c0-7.7,6.6-14,14.8-14h1.1
				c8.2,0,14.7,6.4,14.7,14V37.5z M109.4,13.6c0-2.9-2.6-5.2-5.8-5.2h-0.8c-3.2,0-5.9,2.3-5.9,5.2v24.3c0,2.9,2.7,5.3,5.9,5.3h0.7
				c3.2,0,5.9-2.3,5.9-5.2V13.6z"/>
			<path class="st1" d="M140.4,0.3c1.8,0,3.2,0,4.3,0.7c1.9,1.1,1.9,3.5,1.9,4.2c0,2.7-1,4.6-3.3,4.6c2.8,0,3.6,2.4,3.6,4.8
				c0,2.3-0.2,3.7-1.3,4.9c-1.3,1.4-2.8,1.4-5.4,1.4h-3.5V0.3H140.4z M139.2,8.7h1.7c1.5,0,3.1,0,3.1-3.1c0-3-1.5-3-3.4-3h-1.5V8.7z
				 M139.2,10.9v7.7h1.5c2,0,3.7,0,3.7-3.4c0-4.1-1.2-4.3-3.7-4.3H139.2z"/>
			<path class="st1" d="M160.1,0.3v13.8c0,2.5,0,3.5-0.5,4.6c-0.9,2.2-3.4,2.4-4.5,2.4c-2.2,0-3.8-0.7-4.5-2.2
				c-0.4-0.9-0.5-1.5-0.5-4.6v-14h2.6v14.9c0,1.8,0,3.6,2.5,3.6c2.2,0,2.3-1.5,2.3-2.5c0-0.8,0-1,0-2.5V0.3H160.1z"/>
			<rect x="164.4" y="0.3" class="st1" width="2.5" height="20.5"/>
			<polygon class="st1" points="180,20.8 171.4,20.8 171.4,0.3 174,0.3 174,18.5 180,18.5 			"/>
			<path class="st1" d="M182.6,20.8V0.3h3.9c2,0,3.8,0,5,1.5c1,1.2,1,2.3,1,7.2c0,1.1,0,2.4-0.1,5.2c0,2-0.1,3.5-0.8,4.7
				c-1.2,1.9-3.1,1.9-5.3,1.9H182.6z M185.1,18.5h1.7c1.6,0,2.8-0.1,3.1-2c0.1-1,0.2-3.8,0.2-4.9c0-1.9,0-2.6,0-4.6
				c0-2.2-0.1-3.3-1-4c-0.6-0.4-1.2-0.4-3.9-0.4V18.5z"/>
			<rect x="196.7" y="0.3" class="st1" width="2.5" height="20.5"/>
			<polygon class="st1" points="213.5,20.8 209.9,20.8 205.9,3 206.2,20.8 203.7,20.8 203.7,0.3 207.2,0.3 211.3,18.3 211,0.3 
				213.5,0.3 			"/>
			<path class="st1" d="M227.9,20.8h-2.1v-1.4c-0.6,0.6-1.7,1.7-3.8,1.7c-0.9,0-2.8-0.3-3.7-2.4c-0.3-0.9-0.6-1.7-0.6-7.4
				c0-3.1,0.1-6.3,0.2-7c0.2-2,1.1-4.3,4.9-4.3c2.5,0,3.5,0.7,4.2,1.6c0.7,1,0.7,1.7,0.7,5h-2.4c0-1.4,0-2.4-0.1-2.9
				c-0.2-0.8-0.7-1.5-2.2-1.5c-2.4,0-2.5,1.7-2.6,3.4c-0.1,1.1-0.1,5.4-0.1,6.9c0,1.6,0.1,2.6,0.1,3.9c0,0.8,0.1,2.6,2.3,2.6
				c0.8,0,1.5-0.3,2.1-0.8c0.5-0.5,0.8-1,0.8-3.7v-2.1h-3v-2.2h5.4V20.8z"/>
			<path class="st1" d="M146.7,51.7h-2.1v-1.4c-0.6,0.6-1.7,1.7-3.8,1.7c-0.9,0-2.8-0.3-3.7-2.4c-0.3-0.9-0.6-1.7-0.6-7.4
				c0-3.1,0.1-6.3,0.2-7c0.2-2,1.1-4.3,4.9-4.3c2.5,0,3.5,0.7,4.2,1.6c0.7,1,0.7,1.7,0.7,5h-2.4c0-1.4,0-2.4-0.1-2.9
				c-0.2-0.8-0.7-1.5-2.2-1.5c-2.4,0-2.5,1.7-2.6,3.4c-0.1,1.1-0.1,5.4-0.1,6.9c0,1.6,0.1,2.6,0.1,3.9c0,0.8,0.1,2.6,2.3,2.6
				c0.8,0,1.5-0.3,2.1-0.8c0.5-0.5,0.8-1,0.8-3.7v-2.1h-3v-2.2h5.4V51.7z"/>
			<path class="st1" d="M161.7,51.7H159l-3.5-9h-2.1v9h-2.5V31.2h4.5c2.7,0,5.4,0.4,5.4,5.6c0,1.5-0.2,2.8-0.5,3.6
				c-0.6,1.7-1.7,1.9-2.3,2.1L161.7,51.7z M153.4,40.7c2.9,0,3.3,0,3.8-0.4c1-0.7,1-2.2,1-3.3c0-1.2,0-2.6-1-3.2
				c-0.6-0.4-1.2-0.4-3.8-0.4V40.7z"/>
			<path class="st1" d="M174.2,46.7c-0.1,2.6-0.8,5.3-5,5.3c-0.8,0-1.8-0.1-2.8-0.6c-1.5-0.8-1.8-2.2-2-3c-0.2-1.4-0.2-4.4-0.2-6.2
				c0-1.3,0.1-5.6,0.1-6.7c0.1-1,0.5-4.6,5.1-4.6c4.3,0,4.6,3.2,4.7,4.3c0.2,1.7,0.1,5.4,0.1,6C174.4,42.8,174.3,45.1,174.2,46.7
				 M166.9,45.3c0.1,2-0.3,4.6,2.4,4.6c2.2,0,2.3-1.9,2.4-3.3c0.1-1.7,0.2-3.8,0.1-5.5c0-1.6,0-3.2-0.1-4.8c0-1.3-0.1-3.3-2.4-3.3
				c-2.3,0-2.4,2.2-2.5,3.3c-0.1,1-0.1,1.3-0.1,6.3C166.9,44,166.9,44,166.9,45.3"/>
			<path class="st1" d="M188.5,31.2V45c0,2.5,0,3.5-0.5,4.6c-0.9,2.2-3.4,2.4-4.5,2.4c-2.2,0-3.8-0.7-4.5-2.2
				c-0.4-0.9-0.5-1.5-0.5-4.6v-14h2.6v14.9c0,1.8,0,3.6,2.5,3.6c2.2,0,2.3-1.5,2.3-2.5c0-0.8,0-1,0-2.5V31.2H188.5z"/>
			<path class="st1" d="M195.4,51.7h-2.5V31.2h4.2c2.3,0,3.7,0.1,4.7,1.6c0.9,1.3,0.9,2.5,0.9,4.6c0,2.8-0.5,4.8-2.4,5.5
				c-1,0.4-1.6,0.4-4.9,0.4V51.7z M195.4,41.1h1.7c1.1,0,1.8-0.1,2.3-0.5c0.8-0.6,0.8-1.4,0.8-3c0-2.2-0.1-3.1-0.9-3.7
				c-0.6-0.4-1.2-0.4-3.9-0.4V41.1z"/>
			<rect x="36.7" y="0.2" class="st1" width="1.5" height="51.4"/>
			<rect x="80.4" y="0.2" class="st1" width="1.5" height="51.4"/>
		</g>
	</g>
</g>
</svg>
