<svg xmlns="http://www.w3.org/2000/svg" xmlns:xlink="http://www.w3.org/1999/xlink" contentStyleType="text/css" data-diagram-type="DESCRIPTION" height="1327px" preserveAspectRatio="none" style="width:1657px;height:1327px;background:#FFFFFF;" version="1.1" viewBox="0 0 1657 1327" width="1657px" zoomAndPan="magnify"><defs/><g><!--cluster Continuous Integration (CI)--><g id="cluster_Continuous Integration (CI)"><rect fill="#FFFFFF" fill-opacity="0.00000" height="370.98" rx="2.5" ry="2.5" style="stroke:#181818;stroke-width:1;" width="674" x="939" y="266.83"/><text fill="#000000" font-family="sans-serif" font-size="14" font-weight="bold" lengthAdjust="spacing" textLength="216.043" x="1167.9785" y="281.8251">Continuous Integration (CI)</text></g><!--cluster Development (DEV)--><g id="cluster_Development (DEV)"><rect fill="#FFFFFF" fill-opacity="0.00000" height="84.17" rx="2.5" ry="2.5" style="stroke:#181818;stroke-width:1;" width="335" x="1038" y="687.37"/><text fill="#000000" font-family="sans-serif" font-size="14" font-weight="bold" lengthAdjust="spacing" textLength="154.6084" x="1128.1958" y="702.3651">Development (DEV)</text></g><!--cluster Quality Assurance (QA)--><g id="cluster_Quality Assurance (QA)"><rect fill="#FFFFFF" fill-opacity="0.00000" height="82.92" rx="2.5" ry="2.5" style="stroke:#181818;stroke-width:1;" width="317" x="1210" y="840.1"/><text fill="#000000" font-family="sans-serif" font-size="14" font-weight="bold" lengthAdjust="spacing" textLength="183.5928" x="1276.7036" y="855.0951">Quality Assurance (QA)</text></g><!--cluster User Acceptance Testing (UAT)--><g id="cluster_User Acceptance Testing (UAT)"><rect fill="#FFFFFF" fill-opacity="0.00000" height="224.59" rx="2.5" ry="2.5" style="stroke:#181818;stroke-width:1;" width="400" x="389" y="976.71"/><text fill="#000000" font-family="sans-serif" font-size="14" font-weight="bold" lengthAdjust="spacing" textLength="244.9795" x="466.5103" y="991.7051">User Acceptance Testing (UAT)</text></g><!--cluster Production (PROD)--><g id="cluster_Production (PROD)"><rect fill="#FFFFFF" fill-opacity="0.00000" height="203.75" rx="2.5" ry="2.5" style="stroke:#181818;stroke-width:1;" width="279" x="7" y="1117.25"/><text fill="#000000" font-family="sans-serif" font-size="14" font-weight="bold" lengthAdjust="spacing" textLength="148.3809" x="72.3096" y="1132.2451">Production (PROD)</text></g><!--cluster Hotfixes--><g id="cluster_Hotfixes"><rect fill="#FFFFFF" fill-opacity="0.00000" height="505.15" rx="2.5" ry="2.5" style="stroke:#181818;stroke-width:1;" width="473" x="134" y="128.8"/><text fill="#000000" font-family="sans-serif" font-size="14" font-weight="bold" lengthAdjust="spacing" textLength="65.7754" x="337.6123" y="143.7951">Hotfixes</text></g><g id="elem_CreateFeatureBranch"><ellipse cx="1256.0022" cy="325.3804" fill="#F1F1F1" rx="93.7522" ry="21.1504" style="stroke:#181818;stroke-width:0.5;"/><text fill="#000000" font-family="sans-serif" font-size="14" lengthAdjust="spacing" textLength="150.1855" x="1180.9094" y="328.2271">CreateFeatureBranch</text></g><g id="elem_CommitAndPushChanges"><ellipse cx="1491.005" cy="325.385" fill="#F1F1F1" rx="105.775" ry="23.555" style="stroke:#181818;stroke-width:0.5;"/><text fill="#000000" font-family="sans-serif" font-size="14" lengthAdjust="spacing" textLength="176.709" x="1402.6505" y="328.2317">CommitAndPushChanges</text></g><g id="elem_SubmitPullRequest"><ellipse cx="1040.999" cy="325.3778" fill="#F1F1F1" rx="85.839" ry="19.5678" style="stroke:#181818;stroke-width:0.5;"/><text fill="#000000" font-family="sans-serif" font-size="14" lengthAdjust="spacing" textLength="132.2549" x="974.8715" y="328.2245">SubmitPullRequest</text></g><g id="elem_BuildAndTest"><ellipse cx="1033.0029" cy="448.0906" fill="#F1F1F1" rx="69.8529" ry="16.3706" style="stroke:#181818;stroke-width:0.5;"/><text fill="#000000" font-family="sans-serif" font-size="14" lengthAdjust="spacing" textLength="92.4287" x="983.7885" y="451.8381">BuildAndTest</text></g><g id="elem_CodeReview"><ellipse cx="1206.0031" cy="448.0946" fill="#F1F1F1" rx="67.6731" ry="15.9346" style="stroke:#181818;stroke-width:0.5;"/><text fill="#000000" font-family="sans-serif" font-size="14" lengthAdjust="spacing" textLength="86.4199" x="1159.7932" y="451.8422">CodeReview</text></g><g id="elem_MergePullRequestToDevelopment"><ellipse cx="1124.9967" cy="592.5153" fill="#F1F1F1" rx="134.4267" ry="29.2853" style="stroke:#181818;stroke-width:0.5;"/><text fill="#000000" font-family="sans-serif" font-size="14" lengthAdjust="spacing" textLength="237.9043" x="1006.0445" y="595.362">MergePullRequestToDevelopment</text></g><g id="elem_DeployToDEV"><ellipse cx="1125.0019" cy="738.9564" fill="#F1F1F1" rx="70.9319" ry="16.5864" style="stroke:#181818;stroke-width:0.5;"/><text fill="#000000" font-family="sans-serif" font-size="14" lengthAdjust="spacing" textLength="95.3408" x="1074.3315" y="742.7039">DeployToDEV</text></g><g id="elem_TestInDEV"><ellipse cx="1294.0049" cy="738.957" fill="#F1F1F1" rx="62.7849" ry="14.957" style="stroke:#181818;stroke-width:0.5;"/><text fill="#000000" font-family="sans-serif" font-size="14" lengthAdjust="spacing" textLength="72.1533" x="1254.9283" y="742.7045">TestInDEV</text></g><g id="elem_DeployToQA"><ellipse cx="1293.9956" cy="891.0571" fill="#F1F1F1" rx="67.7856" ry="15.9571" style="stroke:#181818;stroke-width:0.5;"/><text fill="#000000" font-family="sans-serif" font-size="14" lengthAdjust="spacing" textLength="86.7344" x="1247.6284" y="894.8047">DeployToQA</text></g><g id="elem_TestInQA"><ellipse cx="1453.9982" cy="891.0641" fill="#F1F1F1" rx="57.4882" ry="14.7541" style="stroke:#181818;stroke-width:0.5;"/><text fill="#000000" font-family="sans-serif" font-size="14" lengthAdjust="spacing" textLength="63.5469" x="1419.2247" y="894.8117">TestInQA</text></g><g id="elem_CreateReleaseBranch"><ellipse cx="678.9974" cy="1032.9815" fill="#F1F1F1" rx="94.3574" ry="21.2715" style="stroke:#181818;stroke-width:0.5;"/><text fill="#000000" font-family="sans-serif" font-size="14" lengthAdjust="spacing" textLength="151.5391" x="603.2279" y="1035.8282">CreateReleaseBranch</text></g><g id="elem_DeployToUAT"><ellipse cx="679.004" cy="1168.7848" fill="#F1F1F1" rx="70.624" ry="16.5248" style="stroke:#181818;stroke-width:0.5;"/><text fill="#000000" font-family="sans-serif" font-size="14" lengthAdjust="spacing" textLength="94.5137" x="628.7471" y="1172.5324">DeployToUAT</text></g><g id="elem_ValidateInUAT"><ellipse cx="477.0026" cy="1032.9825" fill="#F1F1F1" rx="72.2626" ry="16.8525" style="stroke:#181818;stroke-width:0.5;"/><text fill="#000000" font-family="sans-serif" font-size="14" lengthAdjust="spacing" textLength="98.8818" x="424.5616" y="1036.7301">ValidateInUAT</text></g><g id="elem_MergeToMain"><ellipse cx="199.0038" cy="1168.7828" fill="#F1F1F1" rx="70.6138" ry="16.5228" style="stroke:#181818;stroke-width:0.5;"/><text fill="#000000" font-family="sans-serif" font-size="14" lengthAdjust="spacing" textLength="94.4863" x="148.7607" y="1172.5303">MergeToMain</text></g><g id="elem_DeployToProduction"><ellipse cx="180.0004" cy="1284.6501" fill="#F1F1F1" rx="89.7504" ry="20.3501" style="stroke:#181818;stroke-width:0.5;"/><text fill="#000000" font-family="sans-serif" font-size="14" lengthAdjust="spacing" textLength="141.1758" x="109.4125" y="1287.4968">DeployToProduction</text></g><g id="elem_Uses"><ellipse cx="57.9951" cy="1168.7802" fill="#F1F1F1" rx="35.1551" ry="14.5302" style="stroke:#181818;stroke-width:0.5;"/><text fill="#000000" font-family="sans-serif" font-size="14" lengthAdjust="spacing" textLength="33.4482" x="40.5035" y="1171.9021">Uses</text></g><g id="elem_IdentifyProdBug"><ellipse cx="229.9972" cy="181.6794" fill="#F1F1F1" rx="77.3972" ry="17.8794" style="stroke:#181818;stroke-width:0.5;"/><text fill="#000000" font-family="sans-serif" font-size="14" lengthAdjust="spacing" textLength="112.1094" x="171.2405" y="185.3492">IdentifyProdBug</text></g><g id="elem_CreateHotfixBranch"><ellipse cx="237.9954" cy="325.3811" fill="#F1F1F1" rx="88.3054" ry="20.0611" style="stroke:#181818;stroke-width:0.5;"/><text fill="#000000" font-family="sans-serif" font-size="14" lengthAdjust="spacing" textLength="137.8945" x="169.0482" y="328.2278">CreateHotfixBranch</text></g><g id="elem_TestAndFix"><ellipse cx="237.9998" cy="448.094" fill="#F1F1F1" rx="64.5698" ry="15.314" style="stroke:#181818;stroke-width:0.5;"/><text fill="#000000" font-family="sans-serif" font-size="14" lengthAdjust="spacing" textLength="77.5127" x="196.2435" y="451.8415">TestAndFix</text></g><g id="elem_MergeHotfixToMain"><ellipse cx="237.9997" cy="592.5199" fill="#F1F1F1" rx="87.5497" ry="19.9099" style="stroke:#181818;stroke-width:0.5;"/><text fill="#000000" font-family="sans-serif" font-size="14" lengthAdjust="spacing" textLength="136.1719" x="169.9138" y="595.3666">MergeHotfixToMain</text></g><g id="elem_MergeHotfixToDevelopment"><ellipse cx="476.0005" cy="592.5221" fill="#F1F1F1" rx="115.1605" ry="25.4321" style="stroke:#181818;stroke-width:0.5;"/><text fill="#000000" font-family="sans-serif" font-size="14" lengthAdjust="spacing" textLength="196.998" x="377.5014" y="595.3688">MergeHotfixToDevelopment</text></g><!--entity Developer--><g id="elem_Developer"><ellipse cx="1126.0015" cy="152.03" fill="#F1F1F1" rx="8" ry="8" style="stroke:#181818;stroke-width:0.5;"/><path d="M1126.0015,160.03 L1126.0015,187.03 M1113.0015,168.03 L1139.0015,168.03 M1126.0015,187.03 L1113.0015,202.03 M1126.0015,187.03 L1139.0015,202.03 " fill="#FFFFFF" fill-opacity="0.00000" style="stroke:#181818;stroke-width:0.5;"/><text fill="#000000" font-family="sans-serif" font-size="14" lengthAdjust="spacing" textLength="72.0029" x="1090" y="216.5251">Developer</text></g><!--entity QAEngineer--><g id="elem_QAEngineer"><ellipse cx="1454.0036" cy="709.31" fill="#F1F1F1" rx="8" ry="8" style="stroke:#181818;stroke-width:0.5;"/><path d="M1454.0036,717.31 L1454.0036,744.31 M1441.0036,725.31 L1467.0036,725.31 M1454.0036,744.31 L1441.0036,759.31 M1454.0036,744.31 L1467.0036,759.31 " fill="#FFFFFF" fill-opacity="0.00000" style="stroke:#181818;stroke-width:0.5;"/><text fill="#000000" font-family="sans-serif" font-size="14" lengthAdjust="spacing" textLength="82.9473" x="1412.53" y="773.8051">QAEngineer</text></g><!--entity ReleaseEngineer--><g id="elem_ReleaseEngineer"><ellipse cx="682.0003" cy="418.44" fill="#F1F1F1" rx="8" ry="8" style="stroke:#181818;stroke-width:0.5;"/><path d="M682.0003,426.44 L682.0003,453.44 M669.0003,434.44 L695.0003,434.44 M682.0003,453.44 L669.0003,468.44 M682.0003,453.44 L695.0003,468.44 " fill="#FFFFFF" fill-opacity="0.00000" style="stroke:#181818;stroke-width:0.5;"/><text fill="#000000" font-family="sans-serif" font-size="14" lengthAdjust="spacing" textLength="117.6807" x="623.16" y="482.9351">ReleaseEngineer</text></g><!--entity Stakeholder--><g id="elem_Stakeholder"><ellipse cx="96.9999" cy="14" fill="#F1F1F1" rx="8" ry="8" style="stroke:#181818;stroke-width:0.5;"/><path d="M96.9999,22 L96.9999,49 M83.9999,30 L109.9999,30 M96.9999,49 L83.9999,64 M96.9999,49 L109.9999,64 " fill="#FFFFFF" fill-opacity="0.00000" style="stroke:#181818;stroke-width:0.5;"/><text fill="#000000" font-family="sans-serif" font-size="14" lengthAdjust="spacing" textLength="84.2598" x="54.87" y="78.4951">Stakeholder</text></g><!--entity GitRepo--><g id="elem_GitRepo"><path d="M731.99,878.41 C731.99,868.41 770.0003,868.41 770.0003,868.41 C770.0003,868.41 808.0105,868.41 808.0105,878.41 L808.0105,903.7069 C808.0105,913.7069 770.0003,913.7069 770.0003,913.7069 C770.0003,913.7069 731.99,913.7069 731.99,903.7069 L731.99,878.41 " fill="#F1F1F1" style="stroke:#181818;stroke-width:0.5;"/><path d="M731.99,878.41 C731.99,888.41 770.0003,888.41 770.0003,888.41 C770.0003,888.41 808.0105,888.41 808.0105,878.41 " fill="#FFFFFF" fill-opacity="0.00000" style="stroke:#181818;stroke-width:0.5;"/><text fill="#000000" font-family="sans-serif" font-size="14" lengthAdjust="spacing" textLength="56.0205" x="741.99" y="905.4051">GitRepo</text></g><g id="elem_GMN65"><path d="M843.08,878.49 L843.08,887.06 L808.11,891.06 L843.08,895.06 L843.08,903.6228 A0,0 0 0 0 843.08,903.6228 L1190.9145,903.6228 A0,0 0 0 0 1190.9145,903.6228 L1190.9145,888.49 L1180.9145,878.49 L843.08,878.49 A0,0 0 0 0 843.08,878.49 " fill="#FEFFDD" style="stroke:#181818;stroke-width:0.5;"/><path d="M1180.9145,878.49 L1180.9145,888.49 L1190.9145,888.49 L1180.9145,878.49 " fill="#FEFFDD" style="stroke:#181818;stroke-width:0.5;"/><text fill="#000000" font-family="sans-serif" font-size="13" lengthAdjust="spacing" textLength="326.8345" x="849.08" y="895.5569">master, develop, feature, release, hotfix branches</text></g><!--link Developer to GitRepo--><g id="link_Developer_GitRepo"><path d="M1089.72,182.96 C1007.68,185.69 815,204.83 815,324.38 C815,324.38 815,324.38 815,739.96 C815,787.29 796.7381,834.1886 783.4181,862.8586 " fill="#FFFFFF" fill-opacity="0.00000" id="Developer-to-GitRepo" style="stroke:#4B6EAF;stroke-width:1;"/><polygon fill="#4B6EAF" points="780.89,868.3,788.3097,861.8233,782.9967,863.7655,781.0545,858.4525,780.89,868.3" style="stroke:#4B6EAF;stroke-width:1;"/><text fill="#4B6EAF" font-family="sans-serif" font-size="13" lengthAdjust="spacing" textLength="106.6978" x="816" y="529.3069">clone, push, pull</text></g><!--link QAEngineer to GitRepo--><g id="link_QAEngineer_GitRepo"><path d="M1426.54,777.38 C1411.22,795.07 1390.5,814.4 1367,824.1 C1339.22,835.58 853.58,820.16 826,832.1 C808.8,839.55 797.8874,850.3006 787.9374,863.4106 " fill="#FFFFFF" fill-opacity="0.00000" id="QAEngineer-to-GitRepo" style="stroke:#181818;stroke-width:1;"/><polygon fill="#181818" points="784.31,868.19,792.9373,863.4392,787.3328,864.2072,786.5648,858.6027,784.31,868.19" style="stroke:#181818;stroke-width:1;"/></g><!--link Developer to CreateFeatureBranch--><g id="link_Developer_CreateFeatureBranch"><path d="M1160.5,220.28 C1185.32,247.34 1213.7631,278.3494 1233.7331,300.1094 " fill="#FFFFFF" fill-opacity="0.00000" id="Developer-to-CreateFeatureBranch" style="stroke:#181818;stroke-width:1;"/><polygon fill="#181818" points="1237.79,304.53,1234.6517,295.1945,1234.4092,300.8462,1228.7576,300.6038,1237.79,304.53" style="stroke:#181818;stroke-width:1;"/></g><!--link Developer to CommitAndPushChanges--><g id="link_Developer_CommitAndPushChanges"><path d="M1162.25,191.94 C1210.05,204.63 1296.36,229.28 1367,258.83 C1397.44,271.56 1425.1809,286.2201 1449.4609,299.9901 " fill="#FFFFFF" fill-opacity="0.00000" id="Developer-to-CommitAndPushChanges" style="stroke:#181818;stroke-width:1;"/><polygon fill="#181818" points="1454.68,302.95,1448.8246,295.0307,1450.3308,300.4834,1444.8781,301.9895,1454.68,302.95" style="stroke:#181818;stroke-width:1;"/></g><!--link Developer to SubmitPullRequest--><g id="link_Developer_SubmitPullRequest"><path d="M1103.44,220.28 C1086.92,247.83 1068.2763,278.9146 1055.2963,300.5546 " fill="#FFFFFF" fill-opacity="0.00000" id="Developer-to-SubmitPullRequest" style="stroke:#181818;stroke-width:1;"/><polygon fill="#181818" points="1052.21,305.7,1060.2697,300.0395,1054.7819,301.4122,1053.4092,295.9244,1052.21,305.7" style="stroke:#181818;stroke-width:1;"/></g><!--link SubmitPullRequest to BuildAndTest--><g id="link_SubmitPullRequest_BuildAndTest"><path d="M1039.75,345.24 C1038.18,368.98 1035.8953,403.333 1034.4353,425.443 " fill="#FFFFFF" fill-opacity="0.00000" id="SubmitPullRequest-to-BuildAndTest" style="stroke:#181818;stroke-width:1;stroke-dasharray:7.0,7.0;"/><polygon fill="#181818" points="1034.04,431.43,1038.6243,422.7131,1034.3694,426.4409,1030.6417,422.186,1034.04,431.43" style="stroke:#181818;stroke-width:1;"/></g><!--link SubmitPullRequest to CodeReview--><g id="link_SubmitPullRequest_CodeReview"><path d="M1065.7,344.45 C1098.61,368.53 1151.317,407.0881 1181.467,429.1381 " fill="#FFFFFF" fill-opacity="0.00000" id="SubmitPullRequest-to-CodeReview" style="stroke:#181818;stroke-width:1;stroke-dasharray:7.0,7.0;"/><polygon fill="#181818" points="1186.31,432.68,1181.4067,424.1385,1182.2741,429.7284,1176.6842,430.5958,1186.31,432.68" style="stroke:#181818;stroke-width:1;"/></g><!--link BuildAndTest to MergePullRequestToDevelopment--><g id="link_BuildAndTest_MergePullRequestToDevelopment"><path d="M1043.02,464.6 C1058.25,488.18 1084.2152,528.3695 1103.3352,557.9795 " fill="#FFFFFF" fill-opacity="0.00000" id="BuildAndTest-to-MergePullRequestToDevelopment" style="stroke:#181818;stroke-width:1;stroke-dasharray:7.0,7.0;"/><polygon fill="#181818" points="1106.59,563.02,1105.0682,553.2894,1103.8777,558.8196,1098.3475,557.6291,1106.59,563.02" style="stroke:#181818;stroke-width:1;"/></g><!--link CodeReview to MergePullRequestToDevelopment--><g id="link_CodeReview_MergePullRequestToDevelopment"><path d="M1197.33,464.33 C1183.95,487.87 1160.9972,528.235 1144.0872,557.955 " fill="#FFFFFF" fill-opacity="0.00000" id="CodeReview-to-MergePullRequestToDevelopment" style="stroke:#181818;stroke-width:1;stroke-dasharray:7.0,7.0;"/><polygon fill="#181818" points="1141.12,563.17,1149.0474,557.3257,1143.5927,558.8242,1142.0941,553.3694,1141.12,563.17" style="stroke:#181818;stroke-width:1;"/></g><!--link MergePullRequestToDevelopment to DeployToDEV--><g id="link_MergePullRequestToDevelopment_DeployToDEV"><path d="M1125,622.06 C1125,651.98 1125,691.94 1125,716 " fill="#FFFFFF" fill-opacity="0.00000" id="MergePullRequestToDevelopment-to-DeployToDEV" style="stroke:#181818;stroke-width:1;stroke-dasharray:7.0,7.0;"/><polygon fill="#181818" points="1125,722,1129,713,1125,717,1121,713,1125,722" style="stroke:#181818;stroke-width:1;"/><text fill="#4B6EAF" font-family="sans-serif" font-size="13" lengthAdjust="spacing" textLength="53.9043" x="1126" y="666.8769">[deploy]</text></g><!--link Developer to TestInDEV--><g id="link_Developer_TestInDEV"><path d="M1162.14,184.31 C1262.08,189.42 1539.59,207.95 1613,258.83 C1640.5,277.89 1650,290.93 1650,324.38 C1650,324.38 1650,324.38 1650,593.52 C1650,621.99 1637.21,630.83 1613,645.81 C1529.62,697.37 1487.44,646.75 1395,679.37 C1364.22,690.23 1337.1294,707.165 1317.6094,720.795 " fill="#FFFFFF" fill-opacity="0.00000" id="Developer-to-TestInDEV" style="stroke:#181818;stroke-width:1;"/><polygon fill="#181818" points="1312.69,724.23,1322.3591,722.3571,1316.7895,721.3675,1317.7791,715.7979,1312.69,724.23" style="stroke:#181818;stroke-width:1;"/></g><!--link TestInDEV to DeployToQA--><g id="link_TestInDEV_DeployToQA"><path d="M1294,754.35 C1294,782.82 1294,840.08 1294,869.05 " fill="#FFFFFF" fill-opacity="0.00000" id="TestInDEV-to-DeployToQA" style="stroke:#181818;stroke-width:1;stroke-dasharray:7.0,7.0;"/><polygon fill="#181818" points="1294,875.05,1298,866.05,1294,870.05,1290,866.05,1294,875.05" style="stroke:#181818;stroke-width:1;"/><text fill="#4B6EAF" font-family="sans-serif" font-size="13" lengthAdjust="spacing" textLength="63.6035" x="1295" y="820.1669">[approve]</text></g><!--link QAEngineer to TestInQA--><g id="link_QAEngineer_TestInQA"><path d="M1454,777.45 C1454,809.4 1454,847.6 1454,869.93 " fill="#FFFFFF" fill-opacity="0.00000" id="QAEngineer-to-TestInQA" style="stroke:#181818;stroke-width:1;"/><polygon fill="#181818" points="1454,875.93,1458,866.93,1454,870.93,1450,866.93,1454,875.93" style="stroke:#181818;stroke-width:1;"/></g><!--link ReleaseEngineer to CreateReleaseBranch--><g id="link_ReleaseEngineer_CreateReleaseBranch"><path d="M681.81,486.44 C681.23,597.88 679.5808,919.5901 679.1408,1005.2801 " fill="#FFFFFF" fill-opacity="0.00000" id="ReleaseEngineer-to-CreateReleaseBranch" style="stroke:#181818;stroke-width:1;"/><polygon fill="#181818" points="679.11,1011.28,683.1562,1002.3007,679.1357,1006.2801,675.1563,1002.2596,679.11,1011.28" style="stroke:#181818;stroke-width:1;"/></g><!--link TestInQA to CreateReleaseBranch--><g id="link_TestInQA_CreateReleaseBranch"><path d="M1433.49,905.12 C1418.86,913.83 1398.42,924.77 1379,931.02 C1168.45,998.73 913.6313,1020.8169 777.5313,1028.1569 " fill="#FFFFFF" fill-opacity="0.00000" id="TestInQA-to-CreateReleaseBranch" style="stroke:#181818;stroke-width:1;stroke-dasharray:7.0,7.0;"/><polygon fill="#181818" points="771.54,1028.48,780.7424,1031.9895,776.5327,1028.2107,780.3115,1024.0011,771.54,1028.48" style="stroke:#181818;stroke-width:1;"/><text fill="#4B6EAF" font-family="sans-serif" font-size="13" lengthAdjust="spacing" textLength="67.1836" x="1325" y="956.7769">[approval]</text></g><!--link CreateReleaseBranch to DeployToUAT--><g id="link_CreateReleaseBranch_DeployToUAT"><path d="M679,1054.59 C679,1081.42 679,1121.73 679,1145.96 " fill="#FFFFFF" fill-opacity="0.00000" id="CreateReleaseBranch-to-DeployToUAT" style="stroke:#181818;stroke-width:1;stroke-dasharray:7.0,7.0;"/><polygon fill="#181818" points="679,1151.96,683,1142.96,679,1146.96,675,1142.96,679,1151.96" style="stroke:#181818;stroke-width:1;"/><text fill="#4B6EAF" font-family="sans-serif" font-size="13" lengthAdjust="spacing" textLength="53.9043" x="680" y="1097.3169">[deploy]</text></g><!--link Stakeholder to ValidateInUAT--><g id="link_Stakeholder_ValidateInUAT"><path d="M97,82.18 C97,109.5 97,147.38 97,180.68 C97,180.68 97,180.68 97,525.74 C97,581.58 106.61,597.14 134,645.81 C182.38,731.77 396.6994,950.9154 457.2094,1012.0554 " fill="#FFFFFF" fill-opacity="0.00000" id="Stakeholder-to-ValidateInUAT" style="stroke:#181818;stroke-width:1;"/><polygon fill="#181818" points="461.43,1016.32,457.9421,1007.1094,457.9128,1012.7662,452.256,1012.7369,461.43,1016.32" style="stroke:#181818;stroke-width:1;"/></g><!--link QAEngineer to ValidateInUAT--><g id="link_QAEngineer_ValidateInUAT"><path d="M1492.88,777.19 C1506.41,792.73 1519.95,811.86 1527,832.1 C1541.45,873.62 1554.29,896.55 1527,931.02 C1491.29,976.13 1458.12,953.79 1401,960.71 C1355,966.28 611.11,954.52 567,968.71 C537.73,978.12 514.0912,996.6529 497.3012,1012.1329 " fill="#FFFFFF" fill-opacity="0.00000" id="QAEngineer-to-ValidateInUAT" style="stroke:#181818;stroke-width:1;"/><polygon fill="#181818" points="492.89,1016.2,502.2182,1013.0402,496.566,1012.8108,496.7955,1007.1586,492.89,1016.2" style="stroke:#181818;stroke-width:1;"/></g><!--link ReleaseEngineer to MergeToMain--><g id="link_ReleaseEngineer_MergeToMain"><path d="M671.43,486.45 C659.09,527.15 636.55,593.45 607,645.81 C482.9,865.67 275.8143,1087.9108 218.1043,1148.0508 " fill="#FFFFFF" fill-opacity="0.00000" id="ReleaseEngineer-to-MergeToMain" style="stroke:#181818;stroke-width:1;"/><polygon fill="#181818" points="213.95,1152.38,223.0675,1148.6557,217.4119,1148.7723,217.2953,1143.1167,213.95,1152.38" style="stroke:#181818;stroke-width:1;"/></g><!--link ValidateInUAT to MergeToMain--><g id="link_ValidateInUAT_MergeToMain"><path d="M446.45,1048.68 C392.71,1074.55 287.3366,1125.2584 234.1566,1150.8484 " fill="#FFFFFF" fill-opacity="0.00000" id="ValidateInUAT-to-MergeToMain" style="stroke:#181818;stroke-width:1;stroke-dasharray:7.0,7.0;"/><polygon fill="#181818" points="228.75,1153.45,238.5943,1153.1519,233.2555,1151.282,235.1255,1145.9431,228.75,1153.45" style="stroke:#181818;stroke-width:1;"/><text fill="#4B6EAF" font-family="sans-serif" font-size="13" lengthAdjust="spacing" textLength="67.1836" x="372" y="1097.3169">[approval]</text></g><!--link MergeToMain to DeployToProduction--><g id="link_MergeToMain_DeployToProduction"><path d="M196.36,1185.61 C192.93,1206.14 187.9468,1236.0317 184.2468,1258.2217 " fill="#FFFFFF" fill-opacity="0.00000" id="MergeToMain-to-DeployToProduction" style="stroke:#181818;stroke-width:1;stroke-dasharray:7.0,7.0;"/><polygon fill="#181818" points="183.26,1264.14,188.6858,1255.9204,184.0824,1259.2081,180.7947,1254.6047,183.26,1264.14" style="stroke:#181818;stroke-width:1;"/><text fill="#4B6EAF" font-family="sans-serif" font-size="13" lengthAdjust="spacing" textLength="53.9043" x="191" y="1230.3669">[deploy]</text></g><!--link Stakeholder to Uses--><g id="link_Stakeholder_Uses"><path d="M65.03,82.13 C46.19,108.06 26,144.32 26,180.68 C26,180.68 26,180.68 26,1033.98 C26,1078.88 41.1169,1124.3858 50.2869,1148.3658 " fill="#FFFFFF" fill-opacity="0.00000" id="Stakeholder-to-Uses" style="stroke:#181818;stroke-width:1;"/><polygon fill="#181818" points="52.43,1153.97,52.9515,1144.135,50.6441,1149.2998,45.4793,1146.9924,52.43,1153.97" style="stroke:#181818;stroke-width:1;"/></g><!--link Stakeholder to IdentifyProdBug--><g id="link_Stakeholder_IdentifyProdBug"><path d="M133.69,82.18 C159.84,108.92 189.5352,139.29 209.3552,159.56 " fill="#FFFFFF" fill-opacity="0.00000" id="Stakeholder-to-IdentifyProdBug" style="stroke:#181818;stroke-width:1;"/><polygon fill="#181818" points="213.55,163.85,210.1179,154.6185,210.0544,160.275,204.3979,160.2115,213.55,163.85" style="stroke:#181818;stroke-width:1;"/></g><!--link IdentifyProdBug to CreateHotfixBranch--><g id="link_IdentifyProdBug_CreateHotfixBranch"><path d="M230.98,200.06 C232.48,226.66 235.0008,271.3296 236.5708,299.0596 " fill="#FFFFFF" fill-opacity="0.00000" id="IdentifyProdBug-to-CreateHotfixBranch" style="stroke:#181818;stroke-width:1;stroke-dasharray:7.0,7.0;"/><polygon fill="#181818" points="236.91,305.05,240.3949,295.8383,236.6274,300.058,232.4077,296.2905,236.91,305.05" style="stroke:#181818;stroke-width:1;"/></g><!--link CreateHotfixBranch to TestAndFix--><g id="link_CreateHotfixBranch_TestAndFix"><path d="M238,345.78 C238,369.9 238,404.56 238,426.31 " fill="#FFFFFF" fill-opacity="0.00000" id="CreateHotfixBranch-to-TestAndFix" style="stroke:#181818;stroke-width:1;stroke-dasharray:7.0,7.0;"/><polygon fill="#181818" points="238,432.31,242,423.31,238,427.31,234,423.31,238,432.31" style="stroke:#181818;stroke-width:1;"/></g><!--link TestAndFix to MergeHotfixToMain--><g id="link_TestAndFix_MergeHotfixToMain"><path d="M238,463.79 C238,489.67 238,537.31 238,566.16 " fill="#FFFFFF" fill-opacity="0.00000" id="TestAndFix-to-MergeHotfixToMain" style="stroke:#181818;stroke-width:1;stroke-dasharray:7.0,7.0;"/><polygon fill="#181818" points="238,572.16,242,563.16,238,567.16,234,563.16,238,572.16" style="stroke:#181818;stroke-width:1;"/></g><!--link ReleaseEngineer to MergeHotfixToMain--><g id="link_ReleaseEngineer_MergeHotfixToMain"><path d="M622.67,479.69 C617.42,482.03 612.15,484.25 607,486.24 C577.41,497.68 393.3045,548.7965 298.0845,575.0265 " fill="#FFFFFF" fill-opacity="0.00000" id="ReleaseEngineer-to-MergeHotfixToMain" style="stroke:#181818;stroke-width:1;"/><polygon fill="#181818" points="292.3,576.62,302.0391,578.0862,297.1205,575.2921,299.9145,570.3735,292.3,576.62" style="stroke:#181818;stroke-width:1;"/></g><!--link Developer to MergeHotfixToDevelopment--><g id="link_Developer_MergeHotfixToDevelopment"><path d="M1089.62,183.83 C1025.63,187.15 890.14,200 789,249.83 C639.61,323.42 530.158,496.2069 492.578,561.6469 " fill="#FFFFFF" fill-opacity="0.00000" id="Developer-to-MergeHotfixToDevelopment" style="stroke:#181818;stroke-width:1;"/><polygon fill="#181818" points="489.59,566.85,497.5407,561.0373,492.08,562.5141,490.6032,557.0534,489.59,566.85" style="stroke:#181818;stroke-width:1;"/></g><!--link TestAndFix to MergeHotfixToDevelopment--><g id="link_TestAndFix_MergeHotfixToDevelopment"><path d="M260.82,462.74 C301.54,487.12 381.9914,535.2591 432.0914,565.2391 " fill="#FFFFFF" fill-opacity="0.00000" id="TestAndFix-to-MergeHotfixToDevelopment" style="stroke:#181818;stroke-width:1;stroke-dasharray:7.0,7.0;"/><polygon fill="#181818" points="437.24,568.32,431.5711,560.2662,432.9495,565.7526,427.4632,567.131,437.24,568.32" style="stroke:#181818;stroke-width:1;"/></g><!--link MergeHotfixToMain to DeployToProduction--><g id="link_MergeHotfixToMain_DeployToProduction"><path d="M237.09,612.76 C234.83,667.51 230.37,828.72 249,960.71 C258.52,1028.19 278.49,1041.64 287,1109.25 C292.55,1153.37 307.07,1169.62 287,1209.3 C273.72,1235.54 251.6839,1251.5718 227.9439,1263.6918 " fill="#FFFFFF" fill-opacity="0.00000" id="MergeHotfixToMain-to-DeployToProduction" style="stroke:#181818;stroke-width:1;stroke-dasharray:7.0,7.0;"/><polygon fill="#181818" points="222.6,1266.42,232.4346,1265.8903,227.0532,1264.1465,228.797,1258.7651,222.6,1266.42" style="stroke:#181818;stroke-width:1;"/><text fill="#4B6EAF" font-family="sans-serif" font-size="13" lengthAdjust="spacing" textLength="53.9043" x="250" y="956.7769">[deploy]</text></g><!--link MergeHotfixToDevelopment to DeployToDEV--><g id="link_MergeHotfixToDevelopment_DeployToDEV"><path d="M555.58,611.23 C691.14,641.4 957.1834,700.6063 1069.1734,725.5363 " fill="#FFFFFF" fill-opacity="0.00000" id="MergeHotfixToDevelopment-to-DeployToDEV" style="stroke:#181818;stroke-width:1;stroke-dasharray:7.0,7.0;"/><polygon fill="#181818" points="1075.03,726.84,1067.1142,720.98,1070.1495,725.7535,1065.3759,728.7888,1075.03,726.84" style="stroke:#181818;stroke-width:1;"/><text fill="#4B6EAF" font-family="sans-serif" font-size="13" lengthAdjust="spacing" textLength="53.9043" x="820" y="666.8769">[deploy]</text></g><!--SRC=[ZLLBZzem4BxdLrZR2qZGKzK3XqhPiBGSLWMMtGlYO999OgsnKzlXeMh_UyTn875uT8Lab9dlcsyUdaI_Cr5GHRVaRw1pciWz4nb9ATSG993Iafib74p8MIQs80o9yG0LX4h9FNAg_qXogSYNRvllGDDW8eNnBH_u2sXiq3I67N1PO0JtF0-VHCO4d0qBu40rTAmlXhv3Bdc2beGQka48-SdC0WeP1EUWPBYgDTV37oV_YCHS2XYGejIvFJaF6baoR911e20sL6GSo4E4PJ1HobAJAPQSAMgO5AGNJViFM7XB4mFq8WNKm0IFKi6ZeYBE-nSOkTqo4ufaXeb4EUg0lW2zb1i4pJ391VmfGPj-SCL6lbhiOybuWl6Mzs6HJ601EmPx17aSvty6bK6BjfHrJdRWI6dnFqNuyFhOSf7U-Ecjwjv_GZYPCHHS7j63fD4ggPxMtNxPEgR2GZgwyv9oPeuarBgqym3IcuTElE7uGkWVhMXHABc3TVUEr2p4T8HUDIB2E8R2L38MPvUeznekAxtEbMvVcDfrkZ2DHZsvAw0HgLEaV1rSHVX5sIoGSsfVQvDS8c_O9bmfc0gBlAYwu_PBdocPbB7RYzdYz_XskTMyb_APCe5b-a5Rbwf6-3MsFNvjZVxT4d52kflwBsbITW1jCxuWJ1EyXImzslYFPOOPTotj-RXGvnbUCJgq7IvkteGTwadN3wtw7UlKfzkTz76TbV0G_YhVL_MnbqAVQVxjY5UMkg7XS8GqG1JBSaDashoyjrJZ1sT04XTgG5BtaXqGvTep87cbHZPLiq7_0m00]--></g></svg>