<svg xmlns="http://www.w3.org/2000/svg" xmlns:xlink="http://www.w3.org/1999/xlink" contentStyleType="text/css" height="1136px" preserveAspectRatio="none" style="width:639px;height:1136px;background:#FFFFFF;" version="1.1" viewBox="0 0 639 1136" width="639px" zoomAndPan="magnify"><defs/><g><text fill="#000000" font-family="sans-serif" font-size="14" font-weight="bold" lengthAdjust="spacing" textLength="303.584" x="161.0688" y="22.9951">TECH Stories: Current JIRA flow + DOR</text><g id="NEW"><rect fill="#F1F1F1" height="64.2344" rx="12.5" ry="12.5" style="stroke:#181818;stroke-width:0.5;" width="253.5898" x="28.46" y="44.2969"/><line style="stroke:#181818;stroke-width:0.5;" x1="28.46" x2="282.0498" y1="70.5938" y2="70.5938"/><text fill="#000000" font-family="sans-serif" font-size="14" lengthAdjust="spacing" textLength="33.1611" x="138.6744" y="62.292">NEW</text><text fill="#000000" font-family="sans-serif" font-size="12" lengthAdjust="spacing" textLength="233.5898" x="33.46" y="86.7324">Business Value or Tech need identified</text><text fill="#000000" font-family="sans-serif" font-size="12" lengthAdjust="spacing" textLength="128.3203" x="33.46" y="100.7012">Descriptive summary</text></g><g id="BACKLOG"><rect fill="#F1F1F1" height="50.2656" rx="12.5" ry="12.5" style="stroke:#181818;stroke-width:0.5;" width="279.6992" x="15.4" y="168.5369"/><line style="stroke:#181818;stroke-width:0.5;" x1="15.4" x2="295.0992" y1="194.8338" y2="194.8338"/><text fill="#000000" font-family="sans-serif" font-size="14" lengthAdjust="spacing" textLength="67.8057" x="121.3468" y="186.532">BACKLOG</text><text fill="#000000" font-family="sans-serif" font-size="12" lengthAdjust="spacing" textLength="259.6992" x="20.4" y="210.9724">Description with required/available context</text></g><g id="dev_todo"><rect fill="#F1F1F1" height="106.1406" rx="12.5" ry="12.5" style="stroke:#181818;stroke-width:0.5;" width="173.416" x="68.54" y="278.7969"/><line style="stroke:#181818;stroke-width:0.5;" x1="68.54" x2="241.956" y1="305.0938" y2="305.0938"/><text fill="#000000" font-family="sans-serif" font-size="14" lengthAdjust="spacing" textLength="79.4746" x="115.5107" y="296.792">DEV TO DO</text><text fill="#000000" font-family="sans-serif" font-size="12" lengthAdjust="spacing" textLength="60.4512" x="73.54" y="321.2324">Prioritized</text><text fill="#000000" font-family="sans-serif" font-size="12" lengthAdjust="spacing" textLength="153.416" x="73.54" y="335.2012">Clear Acceptance Criteria</text><text fill="#000000" font-family="sans-serif" font-size="12" font-weight="bold" lengthAdjust="spacing" textLength="141.5215" x="73.54" y="349.1699">Data Modelling Done</text><text fill="#000000" font-family="sans-serif" font-size="12" lengthAdjust="spacing" textLength="60.6211" x="73.54" y="363.1387">Estimated</text><text fill="#000000" font-family="sans-serif" font-size="12" lengthAdjust="spacing" textLength="125.7012" x="73.54" y="377.1074">QA Approach Agreed</text></g><g id="dev_inpr"><rect fill="#F1F1F1" height="50.2656" rx="12.5" ry="12.5" style="stroke:#181818;stroke-width:0.5;" width="177.6289" x="66.44" y="444.9369"/><line style="stroke:#181818;stroke-width:0.5;" x1="66.44" x2="244.0689" y1="471.2338" y2="471.2338"/><text fill="#000000" font-family="sans-serif" font-size="14" lengthAdjust="spacing" textLength="129.0898" x="90.7095" y="462.932">DEV IN PROGRESS</text><text fill="#000000" font-family="sans-serif" font-size="12" lengthAdjust="spacing" textLength="157.6289" x="71.44" y="487.3724">All dependencies resolved</text></g><g id="dev_compl"><rect fill="#F1F1F1" height="64.2344" rx="12.5" ry="12.5" style="stroke:#181818;stroke-width:0.5;" width="235.0332" x="37.74" y="555.2069"/><line style="stroke:#181818;stroke-width:0.5;" x1="37.74" x2="272.7732" y1="581.5038" y2="581.5038"/><text fill="#000000" font-family="sans-serif" font-size="14" lengthAdjust="spacing" textLength="109.0127" x="100.7503" y="573.202">DEV COMPLETE</text><text fill="#000000" font-family="sans-serif" font-size="12" lengthAdjust="spacing" textLength="151.166" x="42.74" y="597.6424">PR reviewed and merged</text><text fill="#000000" font-family="sans-serif" font-size="12" lengthAdjust="spacing" textLength="215.0332" x="42.74" y="611.6112">Required artefacts delivered in DEV</text></g><g id="qa_todo"><rect fill="#F1F1F1" height="64.2344" rx="12.5" ry="12.5" style="stroke:#181818;stroke-width:0.5;" width="242.416" x="34.04" y="679.4369"/><line style="stroke:#181818;stroke-width:0.5;" x1="34.04" x2="276.456" y1="705.7337" y2="705.7337"/><text fill="#000000" font-family="sans-serif" font-size="14" lengthAdjust="spacing" textLength="70.8682" x="119.8139" y="697.432">QA TO DO</text><text fill="#000000" font-family="sans-serif" font-size="12" lengthAdjust="spacing" textLength="222.416" x="39.04" y="721.8724">Static Code Analysis run successfully</text><text fill="#000000" font-family="sans-serif" font-size="12" lengthAdjust="spacing" textLength="157.1484" x="39.04" y="735.8412">Dev tests run successfully</text></g><g id="qa_inpr"><rect fill="#F1F1F1" height="64.2344" rx="12.5" ry="12.5" style="stroke:#181818;stroke-width:0.5;" width="296.5039" x="7" y="803.6769"/><line style="stroke:#181818;stroke-width:0.5;" x1="7" x2="303.5039" y1="829.9737" y2="829.9737"/><text fill="#000000" font-family="sans-serif" font-size="14" lengthAdjust="spacing" textLength="120.4834" x="95.0103" y="821.672">QA IN PROGRESS</text><text fill="#000000" font-family="sans-serif" font-size="12" lengthAdjust="spacing" textLength="276.5039" x="12" y="846.1124">Required artefacts deployed in QA (if needed)</text><text fill="#000000" font-family="sans-serif" font-size="12" lengthAdjust="spacing" textLength="174.3398" x="12" y="860.0812">Test Plan created (if needed)</text></g><g id="qa_compl"><rect fill="#F1F1F1" height="92.1719" rx="12.5" ry="12.5" style="stroke:#181818;stroke-width:0.5;" width="194.4219" x="58.04" y="927.9069"/><line style="stroke:#181818;stroke-width:0.5;" x1="58.04" x2="252.4619" y1="954.2037" y2="954.2037"/><text fill="#000000" font-family="sans-serif" font-size="14" lengthAdjust="spacing" textLength="100.4063" x="105.0478" y="945.902">QA COMPLETE</text><text fill="#000000" font-family="sans-serif" font-size="12" lengthAdjust="spacing" textLength="128.332" x="63.04" y="970.3424">All found bugs closed</text><text fill="#000000" font-family="sans-serif" font-size="12" lengthAdjust="spacing" textLength="169.4473" x="63.04" y="984.3112">Deployed in UAT (if needed)</text><text fill="#000000" font-family="sans-serif" font-size="12" lengthAdjust="spacing" textLength="174.4219" x="63.04" y="998.2799">Quality assured per test plan</text><text fill="#000000" font-family="sans-serif" font-size="12" lengthAdjust="spacing" textLength="109.1074" x="63.04" y="1012.2487">Test plan updated</text></g><g id="closed_compl"><rect fill="#F1F1F1" height="50.2656" rx="12.5" ry="12.5" style="stroke:#181818;stroke-width:0.5;" width="184.6309" x="62.94" y="1080.0769"/><line style="stroke:#181818;stroke-width:0.5;" x1="62.94" x2="247.5709" y1="1106.3738" y2="1106.3738"/><text fill="#000000" font-family="sans-serif" font-size="14" lengthAdjust="spacing" textLength="146.4189" x="82.046" y="1098.072">CLOSED - COMPLETE</text><text fill="#000000" font-family="sans-serif" font-size="12" lengthAdjust="spacing" textLength="164.6309" x="67.94" y="1122.5124">PROD Deployed (if needed)</text></g><g id="closed_cancelled"><rect fill="#F1F1F1" height="50.2656" rx="12.5" ry="12.5" style="stroke:#181818;stroke-width:0.5;" width="302.9316" x="329.79" y="168.5369"/><line style="stroke:#181818;stroke-width:0.5;" x1="329.79" x2="632.7216" y1="194.8338" y2="194.8338"/><text fill="#000000" font-family="sans-serif" font-size="14" lengthAdjust="spacing" textLength="154.7314" x="403.8901" y="186.532">CLOSED - CANCELLED</text><text fill="#000000" font-family="sans-serif" font-size="12" lengthAdjust="spacing" textLength="282.9316" x="334.79" y="210.9724">Not needed, created by mistake, duplicate, etc</text></g><g id="ALL"><rect fill="#F1F1F1" height="50" rx="12.5" ry="12.5" style="stroke:#181818;stroke-width:0.5;" width="50" x="456.25" y="51.4169"/><line style="stroke:#181818;stroke-width:0.5;" x1="456.25" x2="506.25" y1="77.7137" y2="77.7137"/><text fill="#000000" font-family="sans-serif" font-size="14" lengthAdjust="spacing" textLength="25.1768" x="468.6616" y="69.412">ALL</text></g><!--link NEW to BACKLOG--><g id="link_NEW_BACKLOG"><path d="M155.25,108.9069 C155.25,127.5669 155.25,144.8669 155.25,162.1569 " fill="none" id="NEW-to-BACKLOG" style="stroke:#181818;stroke-width:1.0;"/><polygon fill="#181818" points="155.25,168.1569,159.25,159.1569,155.25,163.1569,151.25,159.1569,155.25,168.1569" style="stroke:#181818;stroke-width:1.0;"/></g><!--link BACKLOG to dev_todo--><g id="link_BACKLOG_dev_todo"><path d="M155.25,219.0169 C155.25,235.5469 155.25,252.0369 155.25,272.5169 " fill="none" id="BACKLOG-to-dev_todo" style="stroke:#181818;stroke-width:1.0;"/><polygon fill="#181818" points="155.25,278.5169,159.25,269.5169,155.25,273.5169,151.25,269.5169,155.25,278.5169" style="stroke:#181818;stroke-width:1.0;"/></g><!--link dev_todo to dev_inpr--><g id="link_dev_todo_dev_inpr"><path d="M155.25,385.1369 C155.25,405.5469 155.25,421.9569 155.25,438.4869 " fill="none" id="dev_todo-to-dev_inpr" style="stroke:#181818;stroke-width:1.0;"/><polygon fill="#181818" points="155.25,444.4869,159.25,435.4869,155.25,439.4869,151.25,435.4869,155.25,444.4869" style="stroke:#181818;stroke-width:1.0;"/></g><!--link dev_inpr to dev_compl--><g id="link_dev_inpr_dev_compl"><path d="M155.25,495.5169 C155.25,512.8269 155.25,530.1969 155.25,548.8969 " fill="none" id="dev_inpr-to-dev_compl" style="stroke:#181818;stroke-width:1.0;"/><polygon fill="#181818" points="155.25,554.8969,159.25,545.8969,155.25,549.8969,151.25,545.8969,155.25,554.8969" style="stroke:#181818;stroke-width:1.0;"/></g><!--link dev_compl to qa_todo--><g id="link_dev_compl_qa_todo"><path d="M155.25,619.7969 C155.25,638.0569 155.25,654.9569 155.25,673.1869 " fill="none" id="dev_compl-to-qa_todo" style="stroke:#181818;stroke-width:1.0;"/><polygon fill="#181818" points="155.25,679.1869,159.25,670.1869,155.25,674.1869,151.25,670.1869,155.25,679.1869" style="stroke:#181818;stroke-width:1.0;"/></g><!--link qa_todo to qa_inpr--><g id="link_qa_todo_qa_inpr"><path d="M155.25,744.0369 C155.25,762.2869 155.25,779.1869 155.25,797.4169 " fill="none" id="qa_todo-to-qa_inpr" style="stroke:#181818;stroke-width:1.0;"/><polygon fill="#181818" points="155.25,803.4169,159.25,794.4169,155.25,798.4169,151.25,794.4169,155.25,803.4169" style="stroke:#181818;stroke-width:1.0;"/></g><!--link qa_inpr to qa_compl--><g id="link_qa_inpr_qa_compl"><path d="M155.25,868.3869 C155.25,885.9869 155.25,902.2069 155.25,921.6369 " fill="none" id="qa_inpr-to-qa_compl" style="stroke:#181818;stroke-width:1.0;"/><polygon fill="#181818" points="155.25,927.6369,159.25,918.6369,155.25,922.6369,151.25,918.6369,155.25,927.6369" style="stroke:#181818;stroke-width:1.0;"/></g><!--link qa_compl to closed_compl--><g id="link_qa_compl_closed_compl"><path d="M155.25,1020.5569 C155.25,1040.4669 155.25,1057.0269 155.25,1073.6969 " fill="none" id="qa_compl-to-closed_compl" style="stroke:#181818;stroke-width:1.0;"/><polygon fill="#181818" points="155.25,1079.6969,159.25,1070.6969,155.25,1074.6969,151.25,1070.6969,155.25,1079.6969" style="stroke:#181818;stroke-width:1.0;"/></g><!--link ALL to closed_cancelled--><g id="link_ALL_closed_cancelled"><path d="M481.25,101.8569 C481.25,121.4169 481.25,142.7069 481.25,162.2569 " fill="none" id="ALL-to-closed_cancelled" style="stroke:#181818;stroke-width:1.0;"/><polygon fill="#181818" points="481.25,168.2569,485.25,159.2569,481.25,163.2569,477.25,159.2569,481.25,168.2569" style="stroke:#181818;stroke-width:1.0;"/></g><!--SRC=[ZPHFSvim4CNlV8gTd5etcTvzw0m19arBZ6EJzDXHnDhPgImH_N7gVlek6B39n7LF4W_zTdRV4tZo2g7Cag-mzCOIkYaamLhK7hxTBc9OAVCAdo0j5b7alF08i-p75Aw38utEmQDG0S5OA54-WqQiW2gcQKLO7HCfEccfzhH5S66p4NRNLxoEa-zvSNDqncXu9VyC5by2MQm-YwqW9PwuLscqnz- -Po_Ix17AWXky0E6WmkrFRoepXRabdiVJdw6DaqSJXS92B2NMNcY9a328biGvS399XHTmPofKYlGQKgDnCZc7PSxJXa-SRUm-XhYkhH5iRRosREvexDiPp1V5pI9RBWUGT6sd42l5JpLgZa9og6oaCshxXa-AktcUbTa0IxEf5LktuFDRmbSEK-WADcZNusPFaOikBn3Muqf8txnL77cZaGPcXmvukCFCBw8RUSalIKB2baAiXTevukw3vZl3-JYt2ahj_bqYnIruTFuTxWXyQnxZU-_UdQ5MPhSVWT4Fj6flEbOV_wTWoRt0N0aDqc8J-wZ0KOMHguntfZPXhapW89x2se5KnXtIE8sbHqq_nEM9ha_0zq4eyZiMNMYygD6sdaBDSvp7o_ueXBfgRthF97cnp5Au6fFxcGxthqWFxRzdrg5AF4koFC_IKPdc8rOAgodCZE_Woy7zfnriY0lzmakeGgr8idm9w6KKyQyAhgw-zB-ag5jRhVyketupg4tEKRyPr7QQQDYrUdT9esxjjRP0j_RQ7kythNfiKnJ5UJvI-wd_0W00]--></g></svg>