<svg xmlns="http://www.w3.org/2000/svg" xmlns:xlink="http://www.w3.org/1999/xlink" contentStyleType="text/css" height="1731px" preserveAspectRatio="none" style="width:616px;height:1731px;background:#FFFFFF;" version="1.1" viewBox="0 0 616 1731" width="616px" zoomAndPan="magnify"><defs/><g><text fill="#000000" font-family="sans-serif" font-size="14" font-weight="bold" lengthAdjust="spacing" textLength="295.4902" x="153.6799" y="22.9951">TECH Stories: Target JIRA flow + DOR</text><rect fill="#555555" height="8" style="stroke:none;stroke-width:1.0;" width="80" x="225.25" y="740.3169"/><rect fill="#555555" height="8" style="stroke:none;stroke-width:1.0;" width="80" x="215.25" y="1214.9869"/><rect fill="#555555" height="8" style="stroke:none;stroke-width:1.0;" width="80" x="215.25" y="1578.3969"/><g id="NEW"><rect fill="#F1F1F1" height="64.2344" rx="12.5" ry="12.5" style="stroke:#181818;stroke-width:0.5;" width="253.5898" x="138.46" y="44.2969"/><line style="stroke:#181818;stroke-width:0.5;" x1="138.46" x2="392.0498" y1="70.5938" y2="70.5938"/><text fill="#000000" font-family="sans-serif" font-size="14" lengthAdjust="spacing" textLength="33.1611" x="248.6744" y="62.292">NEW</text><text fill="#000000" font-family="sans-serif" font-size="12" lengthAdjust="spacing" textLength="233.5898" x="143.46" y="86.7324">Business Value or Tech need identified</text><text fill="#000000" font-family="sans-serif" font-size="12" lengthAdjust="spacing" textLength="128.3203" x="143.46" y="100.7012">Descriptive summary</text></g><g id="BACKLOG"><rect fill="#F1F1F1" height="64.2344" rx="12.5" ry="12.5" style="stroke:#181818;stroke-width:0.5;" width="312.2832" x="109.11" y="169.5369"/><line style="stroke:#181818;stroke-width:0.5;" x1="109.11" x2="421.3932" y1="195.8338" y2="195.8338"/><text fill="#000000" font-family="sans-serif" font-size="14" lengthAdjust="spacing" textLength="67.8057" x="231.3488" y="187.532">BACKLOG</text><text fill="#000000" font-family="sans-serif" font-size="12" lengthAdjust="spacing" textLength="292.2832" x="114.11" y="211.9724">Descriptiion contains all functional requirements</text><text fill="#000000" font-family="sans-serif" font-size="12" lengthAdjust="spacing" textLength="212.1797" x="114.11" y="225.9412">Dependencies identified and linked</text></g><g id="dev_todo"><rect fill="#F1F1F1" height="120.1094" rx="12.5" ry="12.5" style="stroke:#181818;stroke-width:0.5;" width="312.7344" x="108.88" y="294.7669"/><line style="stroke:#181818;stroke-width:0.5;" x1="108.88" x2="421.6144" y1="321.0638" y2="321.0638"/><text fill="#000000" font-family="sans-serif" font-size="14" lengthAdjust="spacing" textLength="79.4746" x="225.5099" y="312.762">DEV TO DO</text><text fill="#000000" font-family="sans-serif" font-size="12" lengthAdjust="spacing" textLength="60.4512" x="113.88" y="337.2024">Prioritized</text><text fill="#000000" font-family="sans-serif" font-size="12" lengthAdjust="spacing" textLength="292.7344" x="113.88" y="351.1712">All non-functional requirements described/linked</text><text fill="#000000" font-family="sans-serif" font-size="12" lengthAdjust="spacing" textLength="153.416" x="113.88" y="365.1399">Clear Acceptance Criteria</text><text fill="#000000" font-family="sans-serif" font-size="12" lengthAdjust="spacing" textLength="171.0586" x="113.88" y="379.1087">BIA/DA Data Modelling Done</text><text fill="#000000" font-family="sans-serif" font-size="12" lengthAdjust="spacing" textLength="230.1445" x="113.88" y="393.0774">STTM and Data Dictionary Provisioned</text><text fill="#000000" font-family="sans-serif" font-size="12" lengthAdjust="spacing" textLength="157.6289" x="113.88" y="407.0462">All dependencies resolved</text></g><g id="dev_inpr"><rect fill="#F1F1F1" height="78.2031" rx="12.5" ry="12.5" style="stroke:#181818;stroke-width:0.5;" width="177.6289" x="176.44" y="475.8769"/><line style="stroke:#181818;stroke-width:0.5;" x1="176.44" x2="354.0689" y1="502.1737" y2="502.1737"/><text fill="#000000" font-family="sans-serif" font-size="14" lengthAdjust="spacing" textLength="129.0898" x="200.7095" y="493.872">DEV IN PROGRESS</text><text fill="#000000" font-family="sans-serif" font-size="12" lengthAdjust="spacing" textLength="60.6211" x="181.44" y="518.3124">Estimated</text><text fill="#000000" font-family="sans-serif" font-size="12" lengthAdjust="spacing" textLength="157.6289" x="181.44" y="532.2812">All dependencies resolved</text><text fill="#000000" font-family="sans-serif" font-size="12" lengthAdjust="spacing" textLength="125.7012" x="181.44" y="546.2499">QA Approach Agreed</text></g><g id="dev_compl"><rect fill="#F1F1F1" height="64.2344" rx="12.5" ry="12.5" style="stroke:#181818;stroke-width:0.5;" width="235.0332" x="147.74" y="615.0769"/><line style="stroke:#181818;stroke-width:0.5;" x1="147.74" x2="382.7732" y1="641.3738" y2="641.3738"/><text fill="#000000" font-family="sans-serif" font-size="14" lengthAdjust="spacing" textLength="109.0127" x="210.7503" y="633.072">DEV COMPLETE</text><text fill="#000000" font-family="sans-serif" font-size="12" lengthAdjust="spacing" textLength="151.166" x="152.74" y="657.5124">PR reviewed and merged</text><text fill="#000000" font-family="sans-serif" font-size="12" lengthAdjust="spacing" textLength="215.0332" x="152.74" y="671.4812">Required artefacts delivered in DEV</text></g><g id="qa_todo"><rect fill="#F1F1F1" height="64.2344" rx="12.5" ry="12.5" style="stroke:#181818;stroke-width:0.5;" width="242.416" x="54.04" y="809.3169"/><line style="stroke:#181818;stroke-width:0.5;" x1="54.04" x2="296.456" y1="835.6138" y2="835.6138"/><text fill="#000000" font-family="sans-serif" font-size="14" lengthAdjust="spacing" textLength="70.8682" x="139.8139" y="827.312">QA TO DO</text><text fill="#000000" font-family="sans-serif" font-size="12" lengthAdjust="spacing" textLength="222.416" x="59.04" y="851.7524">Static Code Analysis run successfully</text><text fill="#000000" font-family="sans-serif" font-size="12" lengthAdjust="spacing" textLength="157.1484" x="59.04" y="865.7212">Dev tests run successfully</text></g><g id="qa_inpr"><rect fill="#F1F1F1" height="64.2344" rx="12.5" ry="12.5" style="stroke:#181818;stroke-width:0.5;" width="296.5039" x="7" y="950.5469"/><line style="stroke:#181818;stroke-width:0.5;" x1="7" x2="303.5039" y1="976.8438" y2="976.8438"/><text fill="#000000" font-family="sans-serif" font-size="14" lengthAdjust="spacing" textLength="120.4834" x="95.0103" y="968.542">QA IN PROGRESS</text><text fill="#000000" font-family="sans-serif" font-size="12" lengthAdjust="spacing" textLength="276.5039" x="12" y="992.9824">Required artefacts deployed in QA (if needed)</text><text fill="#000000" font-family="sans-serif" font-size="12" lengthAdjust="spacing" textLength="174.3398" x="12" y="1006.9512">Test Plan created (if needed)</text></g><g id="qa_compl"><rect fill="#F1F1F1" height="78.2031" rx="12.5" ry="12.5" style="stroke:#181818;stroke-width:0.5;" width="194.4219" x="158.04" y="1075.7869"/><line style="stroke:#181818;stroke-width:0.5;" x1="158.04" x2="352.4619" y1="1102.0838" y2="1102.0838"/><text fill="#000000" font-family="sans-serif" font-size="14" lengthAdjust="spacing" textLength="100.4063" x="205.0478" y="1093.782">QA COMPLETE</text><text fill="#000000" font-family="sans-serif" font-size="12" lengthAdjust="spacing" textLength="128.332" x="163.04" y="1118.2224">All found bugs closed</text><text fill="#000000" font-family="sans-serif" font-size="12" lengthAdjust="spacing" textLength="174.4219" x="163.04" y="1132.1912">Quality assured per test plan</text><text fill="#000000" font-family="sans-serif" font-size="12" lengthAdjust="spacing" textLength="109.1074" x="163.04" y="1146.1599">Test plan updated</text></g><g id="UAT"><rect fill="#F1F1F1" height="78.2031" rx="12.5" ry="12.5" style="stroke:#181818;stroke-width:0.5;" width="151.4316" x="415.54" y="1283.9869"/><line style="stroke:#181818;stroke-width:0.5;" x1="415.54" x2="566.9716" y1="1310.2837" y2="1310.2837"/><text fill="#000000" font-family="sans-serif" font-size="14" lengthAdjust="spacing" textLength="28.376" x="477.0678" y="1301.982">UAT</text><text fill="#000000" font-family="sans-serif" font-size="12" lengthAdjust="spacing" textLength="66.3984" x="420.54" y="1326.4224">QA sign-off</text><text fill="#000000" font-family="sans-serif" font-size="12" lengthAdjust="spacing" textLength="99.9082" x="420.54" y="1340.3912">Deployed in UAT</text><text fill="#000000" font-family="sans-serif" font-size="12" lengthAdjust="spacing" textLength="131.4316" x="420.54" y="1354.3599">UAT artefacts created</text></g><g id="release_rdy"><rect fill="#F1F1F1" height="78.2031" rx="12.5" ry="12.5" style="stroke:#181818;stroke-width:0.5;" width="141.3711" x="418.57" y="1439.1869"/><line style="stroke:#181818;stroke-width:0.5;" x1="418.57" x2="559.9411" y1="1465.4837" y2="1465.4837"/><text fill="#000000" font-family="sans-serif" font-size="14" lengthAdjust="spacing" textLength="114.4609" x="432.0251" y="1457.182">RELEASE READY</text><text fill="#000000" font-family="sans-serif" font-size="12" lengthAdjust="spacing" textLength="89.4316" x="423.57" y="1481.6224">UAT Signed-off</text><text fill="#000000" font-family="sans-serif" font-size="12" lengthAdjust="spacing" textLength="121.3711" x="423.57" y="1495.5912">Test Report Created</text><text fill="#000000" font-family="sans-serif" font-size="12" lengthAdjust="spacing" textLength="90.123" x="423.57" y="1509.5599">All bugs closed</text></g><g id="closed_compl"><rect fill="#F1F1F1" height="78.2031" rx="12.5" ry="12.5" style="stroke:#181818;stroke-width:0.5;" width="222.998" x="143.75" y="1647.3969"/><line style="stroke:#181818;stroke-width:0.5;" x1="143.75" x2="366.748" y1="1673.6938" y2="1673.6938"/><text fill="#000000" font-family="sans-serif" font-size="14" lengthAdjust="spacing" textLength="146.4189" x="182.0396" y="1665.392">CLOSED - COMPLETE</text><text fill="#000000" font-family="sans-serif" font-size="12" lengthAdjust="spacing" textLength="202.998" x="148.75" y="1689.8324">Scheduled for next PROD Release</text><text fill="#000000" font-family="sans-serif" font-size="12" lengthAdjust="spacing" textLength="130.4121" x="148.75" y="1703.8012">Release Notes READY</text><text fill="#000000" font-family="sans-serif" font-size="12" lengthAdjust="spacing" textLength="95.0918" x="148.75" y="1717.7699">PROD Deployed</text></g><!--link NEW to BACKLOG--><g id="link_NEW_BACKLOG"><path d="M265.25,108.8369 C265.25,127.3769 265.25,144.7569 265.25,163.2969 " fill="none" id="NEW-to-BACKLOG" style="stroke:#181818;stroke-width:1.0;"/><polygon fill="#181818" points="265.25,169.2969,269.25,160.2969,265.25,164.2969,261.25,160.2969,265.25,169.2969" style="stroke:#181818;stroke-width:1.0;"/></g><!--link BACKLOG to dev_todo--><g id="link_BACKLOG_dev_todo"><path d="M265.25,233.9769 C265.25,251.4469 265.25,267.7869 265.25,288.4369 " fill="none" id="BACKLOG-to-dev_todo" style="stroke:#181818;stroke-width:1.0;"/><polygon fill="#181818" points="265.25,294.4369,269.25,285.4369,265.25,289.4369,261.25,285.4369,265.25,294.4369" style="stroke:#181818;stroke-width:1.0;"/></g><!--link dev_todo to dev_inpr--><g id="link_dev_todo_dev_inpr"><path d="M265.25,415.1669 C265.25,435.3269 265.25,451.3169 265.25,469.4169 " fill="none" id="dev_todo-to-dev_inpr" style="stroke:#181818;stroke-width:1.0;"/><polygon fill="#181818" points="265.25,475.4169,269.25,466.4169,265.25,470.4169,261.25,466.4169,265.25,475.4169" style="stroke:#181818;stroke-width:1.0;"/></g><!--link dev_inpr to dev_compl--><g id="link_dev_inpr_dev_compl"><path d="M265.25,554.3469 C265.25,573.5469 265.25,590.5169 265.25,608.6769 " fill="none" id="dev_inpr-to-dev_compl" style="stroke:#181818;stroke-width:1.0;"/><polygon fill="#181818" points="265.25,614.6769,269.25,605.6769,265.25,609.6769,261.25,605.6769,265.25,614.6769" style="stroke:#181818;stroke-width:1.0;"/></g><!--link dev_compl to fork_state1--><g id="link_dev_compl_fork_state1"><path d="M265.25,679.6069 C265.25,702.5469 265.25,725.1869 265.25,734.3469 " fill="none" id="dev_compl-to-fork_state1" style="stroke:#181818;stroke-width:1.0;"/><polygon fill="#181818" points="265.25,740.3469,269.25,731.3469,265.25,735.3469,261.25,731.3469,265.25,740.3469" style="stroke:#181818;stroke-width:1.0;"/></g><!--link fork_state1 to qa_todo--><g id="link_fork_state1_qa_todo"><path d="M262.26,748.4769 C253.41,757.8269 230.7932,781.728 209.2732,804.478 " fill="none" id="fork_state1-to-qa_todo" style="stroke:#181818;stroke-width:1.0;"/><polygon fill="#181818" points="205.15,808.8369,214.2406,805.0474,208.586,805.2045,208.4289,799.5498,205.15,808.8369" style="stroke:#181818;stroke-width:1.0;"/></g><!--link fork_state1 to qa_compl--><g id="link_fork_state1_qa_compl"><path d="M268.99,748.5869 C278.65,757.3069 304.33,782.2469 314.25,809.3169 C345.71,895.1069 347.71,927.3269 321.25,1014.7869 C314.61,1036.7469 304.904,1053.4849 291.974,1070.8449 " fill="none" id="fork_state1-to-qa_compl" style="stroke:#181818;stroke-width:1.0;"/><polygon fill="#181818" points="288.39,1075.6569,296.974,1070.8283,291.3767,1071.6469,290.5581,1066.0496,288.39,1075.6569" style="stroke:#181818;stroke-width:1.0;"/><text fill="#000000" font-family="sans-serif" font-size="13" lengthAdjust="spacing" textLength="231.5117" x="340.25" y="916.6138">QA not needed or 100% automated</text></g><!--link qa_todo to qa_inpr--><g id="link_qa_todo_qa_inpr"><path d="M170.71,874.0269 C167.44,896.8169 163.8933,921.4979 160.6233,944.2579 " fill="none" id="qa_todo-to-qa_inpr" style="stroke:#181818;stroke-width:1.0;"/><polygon fill="#181818" points="159.77,950.1969,165.0093,941.8572,160.4811,945.2477,157.0906,940.7195,159.77,950.1969" style="stroke:#181818;stroke-width:1.0;"/></g><!--link qa_inpr to qa_compl--><g id="link_qa_inpr_qa_compl"><path d="M179.46,1015.1869 C193.45,1033.4069 207.4848,1051.6887 222.2648,1070.9287 " fill="none" id="qa_inpr-to-qa_compl" style="stroke:#181818;stroke-width:1.0;"/><polygon fill="#181818" points="225.92,1075.6869,223.6094,1066.1129,222.874,1071.7218,217.2652,1070.9864,225.92,1075.6869" style="stroke:#181818;stroke-width:1.0;"/></g><!--link qa_compl to fork_state2--><g id="link_qa_compl_fork_state2"><path d="M255.25,1154.4869 C255.25,1177.9769 255.25,1199.2169 255.25,1208.6069 " fill="none" id="qa_compl-to-fork_state2" style="stroke:#181818;stroke-width:1.0;"/><polygon fill="#181818" points="255.25,1214.6069,259.25,1205.6069,255.25,1209.6069,251.25,1205.6069,255.25,1214.6069" style="stroke:#181818;stroke-width:1.0;"/></g><!--link fork_state2 to UAT--><g id="link_fork_state2_UAT"><path d="M263.1,1223.3869 C286.62,1233.5569 352.843,1262.215 409.673,1286.795 " fill="none" id="fork_state2-to-UAT" style="stroke:#181818;stroke-width:1.0;"/><polygon fill="#181818" points="415.18,1289.1769,408.5075,1281.9328,410.5909,1287.192,405.3316,1289.2754,415.18,1289.1769" style="stroke:#181818;stroke-width:1.0;"/></g><!--link UAT to release_rdy--><g id="link_UAT_release_rdy"><path d="M567.26,1353.1869 C591.82,1367.3769 609.85,1386.3569 597.25,1409.1869 C588.74,1424.6169 580.1017,1433.7228 565.3417,1443.5028 " fill="none" id="UAT-to-release_rdy" style="stroke:#181818;stroke-width:1.0;"/><polygon fill="#181818" points="560.34,1446.8169,570.0519,1445.1802,564.5081,1444.0551,565.6331,1438.5113,560.34,1446.8169" style="stroke:#181818;stroke-width:1.0;"/></g><!--link release_rdy to join_state1--><g id="link_release_rdy_join_state1"><path d="M418.09,1510.3369 C361.08,1535.2169 292.3186,1565.2158 268.4786,1575.6258 " fill="none" id="release_rdy-to-join_state1" style="stroke:#181818;stroke-width:1.0;"/><polygon fill="#181818" points="262.98,1578.0269,272.8286,1578.0911,267.5622,1576.026,269.6273,1570.7596,262.98,1578.0269" style="stroke:#181818;stroke-width:1.0;"/></g><!--link fork_state2 to join_state1--><g id="link_fork_state2_join_state1"><path d="M254.55,1223.2469 C250.84,1240.5469 233.61,1323.4069 228.25,1392.1869 C222.32,1468.2769 247.0942,1554.6265 252.5442,1572.5465 " fill="none" id="fork_state2-to-join_state1" style="stroke:#181818;stroke-width:1.0;"/><polygon fill="#181818" points="254.29,1578.2869,255.4982,1568.5124,252.8351,1573.5032,247.8443,1570.8402,254.29,1578.2869" style="stroke:#181818;stroke-width:1.0;"/><text fill="#000000" font-family="sans-serif" font-size="13" lengthAdjust="spacing" textLength="359.5249" x="229.25" y="1405.2538">for stories not needed Release (e.g. Spikes, POCs, etc.)</text></g><!--link join_state1 to closed_compl--><g id="link_join_state1_closed_compl"><path d="M255.25,1586.7869 C255.25,1596.2069 255.25,1617.4669 255.25,1640.9669 " fill="none" id="join_state1-to-closed_compl" style="stroke:#181818;stroke-width:1.0;"/><polygon fill="#181818" points="255.25,1646.9669,259.25,1637.9669,255.25,1641.9669,251.25,1637.9669,255.25,1646.9669" style="stroke:#181818;stroke-width:1.0;"/></g><!--SRC=[bLRRRjim37ttLn051gpOqjjZC1HmOwFhrZQfxMtOKw7QTAfLaLn9JfTz_IZPJjNRahtOCgd3oo4fsN8h48fqyXbogpH7CuQ2wJbQ-7AMnL0BzG0V89bcKMGiimYrqdVNVda8dpwvh-FZ5wgZvwfVYij7bFiYLQ-xJ7-CuQGrNA8ny9s95a5fAB2y1ObO0QzGMbvph494WgRKlB5yYM3QnOBfrM3n99vyFP-U1dkuab0gQHcN1fWGKBUoj2Hb0ZJUjrpZWfoObmOQbEI-96Q2E8392WINTnJIu7GdIRz3CIMkTe0Pg71vRLMbnZ3Jd9Yr_Cyw_ZUtnXIPL7BqHdIqq-LpWzL-xto3lOb0fY4kIsmiaoN2X091pTacuCbPl9_4a33Bu49LACZV718bSHCoBueBJu_79hpBGw-81hNaXZwsew4AcTTeb5WwiWFasINCikbfbkRv6izbeyUG6iiNjA_QRllRxhQ2NyKGDurMZFerdcjy5kPaUZ4xJujqZIhLeX7K5XdvMN9ywDjfWJHsrJR8h6i9WccBDIjzOmYQ0oVZ4WYxZe22UsJudWr58YKlOKALXPYwR6KuPTrA6YJg5MFgLeZLlqqak0IBnhw22u3FMIDuHzghEJH2hReK2FgUrtxyiThTnc11iS1CC9fpZQxsJmm45fwmIl2ULDS4jMgf43Vjt40fb7cinjkmgvO9RbSaDArBfq7jQO66GjaCBuQjq3QLxzWUyoqkV6SPFfSZLTUXE0c88a6eeaV0QC_4EliiFK_ZF8KiZPEVFXADT48OlDRLgWFdv0-hmECcaCyWmqPfIwSBXbEt0UaO3xaUO9FpQPucC7hAMRTfu2qlRx5g1N50rmnL-RTrRP5G8Dx1_vZg8N2fg6vThFy3zsw7YaHqCy5eT3nS857_zhBXV8k6nLhgEZWQ5ckfTn2jLruUtBvHU1CxNJ-Qhyc7PetfTh7zKBWxzl3Wu1smrghkjEmj32WVLlz-OYaQ5izYEeh2Nm2dS-tfsigjW-97mThhWl-35pO2tTYNstH_Ac4kGn7Vuzvy3_A6tw7v2BFfX9veoxtTAFm3SLR3Alu5]--></g></svg>