<svg xmlns="http://www.w3.org/2000/svg" xmlns:xlink="http://www.w3.org/1999/xlink" contentStyleType="text/css" height="509px" preserveAspectRatio="none" style="width:1754px;height:509px;background:#FFFFFF;" version="1.1" viewBox="0 0 1754 509" width="1754px" zoomAndPan="magnify"><defs/><g><text fill="#000000" font-family="sans-serif" font-size="14" font-weight="bold" lengthAdjust="spacing" textLength="314.959" x="713.0043" y="22.9951">Development tickets Release Use Cases</text><!--entity QA--><g id="elem_QA"><ellipse cx="726.8887" cy="59.2969" fill="#F1F1F1" rx="16" ry="16" style="stroke:#181818;stroke-width:0.5;"/><path d="M726.8887,79.2969 C730.8887,79.2969 733.8887,79.2969 737.8887,75.2969 C745.8887,75.2969 753.8887,83.2969 753.8887,91.2969 L753.8887,95.2969 C753.8887,99.2969 749.8887,103.2969 745.8887,103.2969 L707.8887,103.2969 C703.8887,103.2969 699.8887,99.2969 699.8887,95.2969 L699.8887,91.2969 C699.8887,83.2969 707.8887,75.2969 715.8887,75.2969 C719.8887,79.2969 722.8887,79.2969 726.8887,79.2969 " fill="#F1F1F1" style="stroke:#181818;stroke-width:0.5;"/><text fill="#000000" font-family="sans-serif" font-size="14" lengthAdjust="spacing" textLength="87.3975" x="683.19" y="116.792">QA Engineer</text></g><!--entity DataDev--><g id="elem_DataDev"><ellipse cx="270.8883" cy="59.2969" fill="#F1F1F1" rx="16" ry="16" style="stroke:#181818;stroke-width:0.5;"/><path d="M270.8883,79.2969 C274.8883,79.2969 277.8883,79.2969 281.8883,75.2969 C289.8883,75.2969 297.8883,83.2969 297.8883,91.2969 L297.8883,95.2969 C297.8883,99.2969 293.8883,103.2969 289.8883,103.2969 L251.8883,103.2969 C247.8883,103.2969 243.8883,99.2969 243.8883,95.2969 L243.8883,91.2969 C243.8883,83.2969 251.8883,75.2969 259.8883,75.2969 C263.8883,79.2969 266.8883,79.2969 270.8883,79.2969 " fill="#F1F1F1" style="stroke:#181818;stroke-width:0.5;"/><text fill="#000000" font-family="sans-serif" font-size="14" lengthAdjust="spacing" textLength="65.5566" x="238.11" y="116.792">Data Dev</text></g><!--entity BIDev--><g id="elem_BIDev"><ellipse cx="1604.89" cy="59.2969" fill="#F1F1F1" rx="16" ry="16" style="stroke:#181818;stroke-width:0.5;"/><path d="M1604.89,79.2969 C1608.89,79.2969 1611.89,79.2969 1615.89,75.2969 C1623.89,75.2969 1631.89,83.2969 1631.89,91.2969 L1631.89,95.2969 C1631.89,99.2969 1627.89,103.2969 1623.89,103.2969 L1585.89,103.2969 C1581.89,103.2969 1577.89,99.2969 1577.89,95.2969 L1577.89,91.2969 C1577.89,83.2969 1585.89,75.2969 1593.89,75.2969 C1597.89,79.2969 1600.89,79.2969 1604.89,79.2969 " fill="#F1F1F1" style="stroke:#181818;stroke-width:0.5;"/><text fill="#000000" font-family="sans-serif" font-size="14" lengthAdjust="spacing" textLength="45.8623" x="1581.9588" y="116.792">BI Dev</text></g><!--entity DevOps--><g id="elem_DevOps"><ellipse cx="1161.8919" cy="197.5969" fill="#F1F1F1" rx="16" ry="16" style="stroke:#181818;stroke-width:0.5;"/><path d="M1161.8919,217.5969 C1165.8919,217.5969 1168.8919,217.5969 1172.8919,213.5969 C1180.8919,213.5969 1188.8919,221.5969 1188.8919,229.5969 L1188.8919,233.5969 C1188.8919,237.5969 1184.8919,241.5969 1180.8919,241.5969 L1142.8919,241.5969 C1138.8919,241.5969 1134.8919,237.5969 1134.8919,233.5969 L1134.8919,229.5969 C1134.8919,221.5969 1142.8919,213.5969 1150.8919,213.5969 C1154.8919,217.5969 1157.8919,217.5969 1161.8919,217.5969 " fill="#F1F1F1" style="stroke:#181818;stroke-width:0.5;"/><text fill="#000000" font-family="sans-serif" font-size="14" lengthAdjust="spacing" textLength="192.3838" x="1065.7" y="255.092">Release Engineer (DevOps)</text></g><!--entity PT--><g id="elem_PT"><ellipse cx="1448.891" cy="59.2969" fill="#F1F1F1" rx="16" ry="16" style="stroke:#181818;stroke-width:0.5;"/><path d="M1448.891,79.2969 C1452.891,79.2969 1455.891,79.2969 1459.891,75.2969 C1467.891,75.2969 1475.891,83.2969 1475.891,91.2969 L1475.891,95.2969 C1475.891,99.2969 1471.891,103.2969 1467.891,103.2969 L1429.891,103.2969 C1425.891,103.2969 1421.891,99.2969 1421.891,95.2969 L1421.891,91.2969 C1421.891,83.2969 1429.891,75.2969 1437.891,75.2969 C1441.891,79.2969 1444.891,79.2969 1448.891,79.2969 " fill="#F1F1F1" style="stroke:#181818;stroke-width:0.5;"/><text fill="#000000" font-family="sans-serif" font-size="14" lengthAdjust="spacing" textLength="97.542" x="1400.12" y="116.792">Product Team</text></g><g id="elem_DEV_deploy"><ellipse cx="378.8884" cy="480.6665" fill="#F1F1F1" rx="66.3484" ry="15.6697" style="stroke:#181818;stroke-width:0.5;"/><text fill="#000000" font-family="sans-serif" font-size="14" lengthAdjust="spacing" textLength="82.6738" x="334.5514" y="484.4141">Deploy DEV</text></g><g id="elem_UAT_deploy"><ellipse cx="1233.8896" cy="358.0188" fill="#F1F1F1" rx="66.0596" ry="15.6119" style="stroke:#181818;stroke-width:0.5;"/><text fill="#000000" font-family="sans-serif" font-size="14" lengthAdjust="spacing" textLength="81.8467" x="1189.9663" y="361.7664">Deploy UAT</text></g><g id="elem_QA_deploy"><ellipse cx="781.8948" cy="480.6698" fill="#F1F1F1" rx="63.4148" ry="15.083" style="stroke:#181818;stroke-width:0.5;"/><text fill="#000000" font-family="sans-serif" font-size="14" lengthAdjust="spacing" textLength="74.0674" x="741.8611" y="484.4174">Deploy QA</text></g><g id="elem_PROD_deploy"><ellipse cx="1404.8861" cy="358.0121" fill="#F1F1F1" rx="70.2261" ry="16.4452" style="stroke:#181818;stroke-width:0.5;"/><text fill="#000000" font-family="sans-serif" font-size="14" lengthAdjust="spacing" textLength="93.4404" x="1355.1659" y="361.7597">Deploy PROD</text></g><g id="elem_PR_create"><ellipse cx="67.8929" cy="219.751" fill="#F1F1F1" rx="61.8929" ry="14.7841" style="stroke:#181818;stroke-width:0.5;"/><text fill="#000000" font-family="sans-serif" font-size="14" lengthAdjust="spacing" textLength="69.4463" x="30.1698" y="223.4985">Create PR</text></g><g id="elem_PR_review"><ellipse cx="574.888" cy="219.7425" fill="#F1F1F1" rx="63.128" ry="15.0256" style="stroke:#181818;stroke-width:0.5;"/><text fill="#000000" font-family="sans-serif" font-size="14" lengthAdjust="spacing" textLength="73.1992" x="535.2884" y="223.49">Review PR</text></g><g id="elem_PR_merge"><ellipse cx="182.8941" cy="358.0169" fill="#F1F1F1" rx="59.7441" ry="14.77" style="stroke:#181818;stroke-width:0.5;"/><text fill="#000000" font-family="sans-serif" font-size="14" lengthAdjust="spacing" textLength="66.5684" x="146.6099" y="361.7645">Merge PR</text></g><g id="elem_test_automation"><ellipse cx="563.8943" cy="480.6697" fill="#F1F1F1" rx="83.7143" ry="19.1429" style="stroke:#181818;stroke-width:0.5;"/><text fill="#000000" font-family="sans-serif" font-size="14" lengthAdjust="spacing" textLength="127.3467" x="499.867" y="483.6375">Quality Gate: AQA</text></g><g id="elem_dev_tests"><ellipse cx="378.8896" cy="358.0128" fill="#F1F1F1" rx="101.1296" ry="22.6259" style="stroke:#181818;stroke-width:0.5;"/><text fill="#000000" font-family="sans-serif" font-size="14" lengthAdjust="spacing" textLength="166.5439" x="295.6176" y="360.8595">Quality Gate: Dev Tests</text></g><g id="elem_terraform_release"><ellipse cx="1233.8865" cy="480.6682" fill="#F1F1F1" rx="92.0065" ry="20.8013" style="stroke:#181818;stroke-width:0.5;"/><text fill="#000000" font-family="sans-serif" font-size="14" lengthAdjust="spacing" textLength="146.2686" x="1160.7522" y="483.5149">IaC/Platform Release</text></g><g id="elem_QA_signoff"><ellipse cx="923.8926" cy="219.7434" fill="#F1F1F1" rx="106.6826" ry="23.7365" style="stroke:#181818;stroke-width:0.5;"/><text fill="#000000" font-family="sans-serif" font-size="14" lengthAdjust="spacing" textLength="178.6846" x="834.5503" y="222.5901">Quality Gate: QA Sign-Off</text></g><g id="elem_UAT_signoff"><ellipse cx="1402.8902" cy="219.7509" fill="#F1F1F1" rx="110.2702" ry="24.454" style="stroke:#181818;stroke-width:0.5;"/><text fill="#000000" font-family="sans-serif" font-size="14" lengthAdjust="spacing" textLength="186.4639" x="1309.6583" y="222.5976">Quality Gate: UAT Sign-Off</text></g><g id="elem_DEV_QA_test"><ellipse cx="408.8908" cy="219.751" fill="#F1F1F1" rx="68.0208" ry="16.0042" style="stroke:#181818;stroke-width:0.5;"/><text fill="#000000" font-family="sans-serif" font-size="14" lengthAdjust="spacing" textLength="87.3906" x="362.1955" y="223.4986">Dev/QA Test</text></g><g id="elem_UAT_test"><ellipse cx="1604.8915" cy="219.7467" fill="#F1F1F1" rx="56.9115" ry="14.7499" style="stroke:#181818;stroke-width:0.5;"/><text fill="#000000" font-family="sans-serif" font-size="14" lengthAdjust="spacing" textLength="62.7744" x="1570.5043" y="223.4943">UAT Test</text></g><g id="elem_PROD_bi"><ellipse cx="1645.8938" cy="480.6716" fill="#F1F1F1" rx="103.0738" ry="23.0148" style="stroke:#181818;stroke-width:0.5;"/><text fill="#000000" font-family="sans-serif" font-size="14" lengthAdjust="spacing" textLength="170.8096" x="1560.489" y="483.5183">MART PROD ready for BI</text></g><!--link DataDev to PR_create--><g id="link_DataDev_PR_create"><path d="M237.81,100.6669 C214.7,113.7369 183.36,132.1369 156.89,150.0969 C130.57,167.9569 106.3346,187.1085 88.8246,201.4285 " fill="none" id="DataDev-to-PR_create" style="stroke:#181818;stroke-width:1.0;"/><polygon fill="#181818" points="84.18,205.2269,93.6791,202.6256,88.0505,202.0615,88.6146,196.4329,84.18,205.2269" style="stroke:#181818;stroke-width:1.0;"/></g><!--link DataDev to PR_review--><g id="link_DataDev_PR_review"><path d="M304.03,96.7369 C347.85,115.6969 427.41,150.3669 494.89,181.0969 C512.63,189.1769 527.0399,195.9334 542.5199,203.2834 " fill="none" id="DataDev-to-PR_review" style="stroke:#181818;stroke-width:1.0;"/><polygon fill="#181818" points="547.94,205.8569,541.5255,198.3833,543.4233,203.7123,538.0942,205.61,547.94,205.8569" style="stroke:#181818;stroke-width:1.0;"/></g><!--link QA to PR_review--><g id="link_QA_PR_review"><path d="M684.55,120.4169 C653.28,148.4569 616.9472,181.0414 594.9872,200.7314 " fill="none" id="QA-to-PR_review" style="stroke:#181818;stroke-width:1.0;"/><polygon fill="#181818" points="590.52,204.7369,599.8912,201.7068,594.2427,201.399,594.5506,195.7505,590.52,204.7369" style="stroke:#181818;stroke-width:1.0;"/></g><!--link BIDev to PR_review--><g id="link_BIDev_PR_review"><path d="M1577.28,96.6369 C1559.86,104.9269 1536.61,114.7669 1514.89,120.0969 C1205.15,196.1069 1116.32,141.1969 799.89,181.0969 C738.4,188.8569 673.8995,200.1035 628.4695,208.5235 " fill="none" id="BIDev-to-PR_review" style="stroke:#181818;stroke-width:1.0;"/><polygon fill="#181818" points="622.57,209.6169,632.1482,211.9098,627.4863,208.7057,630.6903,204.0437,622.57,209.6169" style="stroke:#181818;stroke-width:1.0;"/></g><!--link PR_review to PR_merge--><g id="link_PR_review_PR_merge"><path d="M549.34,233.8469 C533.82,241.5269 513.48,251.1269 494.89,258.3969 C443.58,278.4769 296.6078,323.0356 225.6478,344.2856 " fill="none" id="PR_review-to-PR_merge" style="stroke:#181818;stroke-width:1.0;stroke-dasharray:7.0,7.0;"/><polygon fill="#181818" points="219.9,346.0069,229.6692,347.2568,224.6898,344.5725,227.3742,339.5931,219.9,346.0069" style="stroke:#181818;stroke-width:1.0;"/><text fill="#000000" font-family="sans-serif" font-size="13" lengthAdjust="spacing" textLength="53.46" x="405.89" y="301.4638">approve</text></g><!--link DataDev to PR_merge--><g id="link_DataDev_PR_merge"><path d="M252.69,120.2969 C244.42,138.4269 234.93,160.5969 227.89,181.0969 C207.62,240.1369 192.9919,307.2085 186.8519,337.2385 " fill="none" id="DataDev-to-PR_merge" style="stroke:#181818;stroke-width:1.0;"/><polygon fill="#181818" points="185.65,343.1169,191.3718,335.1006,186.6516,338.2182,183.5339,333.498,185.65,343.1169" style="stroke:#181818;stroke-width:1.0;"/></g><!--link DataDev to dev_tests--><g id="link_DataDev_dev_tests"><path d="M267.77,120.2569 C266.24,157.1269 268.03,213.9969 287.89,258.3969 C301.98,289.8669 325.6136,314.0366 346.9136,332.0966 " fill="none" id="DataDev-to-dev_tests" style="stroke:#181818;stroke-width:1.0;stroke-dasharray:7.0,7.0;"/><polygon fill="#181818" points="351.49,335.9769,347.2122,327.1055,347.6763,332.7433,342.0385,333.2074,351.49,335.9769" style="stroke:#181818;stroke-width:1.0;"/><text fill="#000000" font-family="sans-serif" font-size="13" lengthAdjust="spacing" textLength="33.5981" x="288.89" y="224.3138">owns</text></g><!--link PR_merge to dev_tests--><g id="link_PR_merge_dev_tests"><path d="M242.99,358.0169 C254.5,358.0169 260,358.0169 271.5,358.0169 " fill="none" id="PR_merge-to-dev_tests" style="stroke:#181818;stroke-width:1.0;"/><polygon fill="#181818" points="277.5,358.0169,268.5,354.0169,272.5,358.0169,268.5,362.0169,277.5,358.0169" style="stroke:#181818;stroke-width:1.0;"/></g><!--link dev_tests to DEV_deploy--><g id="link_dev_tests_DEV_deploy"><path d="M378.89,380.8669 C378.89,405.1769 378.89,437.7969 378.89,458.8269 " fill="none" id="dev_tests-to-DEV_deploy" style="stroke:#181818;stroke-width:1.0;"/><polygon fill="#181818" points="378.89,464.8269,382.89,455.8269,378.89,459.8269,374.89,455.8269,378.89,464.8269" style="stroke:#181818;stroke-width:1.0;"/><text fill="#000000" font-family="sans-serif" font-size="13" lengthAdjust="spacing" textLength="34.2266" x="379.89" y="423.7138">ci/CD</text></g><!--link DEV_deploy to test_automation--><g id="link_DEV_deploy_test_automation"><path d="M445.74,480.6669 C457.12,480.6669 462.51,480.6669 473.89,480.6669 " fill="none" id="DEV_deploy-to-test_automation" style="stroke:#181818;stroke-width:1.0;"/><polygon fill="#181818" points="479.89,480.6669,470.89,476.6669,474.89,480.6669,470.89,484.6669,479.89,480.6669" style="stroke:#181818;stroke-width:1.0;"/></g><!--link QA to test_automation--><g id="link_QA_test_automation"><path d="M711.63,120.5969 C697.33,156.2669 675.31,210.9969 655.89,258.3969 C624.98,333.8469 589.802,417.9344 573.912,455.7944 " fill="none" id="QA-to-test_automation" style="stroke:#181818;stroke-width:1.0;stroke-dasharray:7.0,7.0;"/><polygon fill="#181818" points="571.59,461.3269,578.7613,454.5762,573.525,456.7165,571.3847,451.4802,571.59,461.3269" style="stroke:#181818;stroke-width:1.0;"/><text fill="#000000" font-family="sans-serif" font-size="13" lengthAdjust="spacing" textLength="33.5981" x="643.89" y="301.4638">owns</text></g><!--link QA to QA_deploy--><g id="link_QA_QA_deploy"><path d="M732.17,120.5369 C744,205.9769 771.3975,403.8435 779.0975,459.4835 " fill="none" id="QA-to-QA_deploy" style="stroke:#181818;stroke-width:1.0;stroke-dasharray:7.0,7.0;"/><polygon fill="#181818" points="779.92,465.4269,782.6485,455.9635,779.2346,460.4741,774.724,457.0602,779.92,465.4269" style="stroke:#181818;stroke-width:1.0;"/><text fill="#000000" font-family="sans-serif" font-size="13" lengthAdjust="spacing" textLength="53.46" x="757.89" y="301.4638">approve</text></g><!--link test_automation to QA_deploy--><g id="link_test_automation_QA_deploy"><path d="M647.87,480.6669 C671.25,480.6669 690.27,480.6669 712.28,480.6669 " fill="none" id="test_automation-to-QA_deploy" style="stroke:#181818;stroke-width:1.0;"/><polygon fill="#181818" points="718.28,480.6669,709.28,476.6669,713.28,480.6669,709.28,484.6669,718.28,480.6669" style="stroke:#181818;stroke-width:1.0;"/><text fill="#000000" font-family="sans-serif" font-size="13" lengthAdjust="spacing" textLength="34.2266" x="666.04" y="473.7338">ci/CD</text></g><!--link DevOps to terraform_release--><g id="link_DevOps_terraform_release"><path d="M1087.69,258.7669 C1038.28,289.3969 987.41,334.7869 1016.89,380.6469 C1048.58,429.9369 1105.7107,453.5256 1155.6907,466.0756 " fill="none" id="DevOps-to-terraform_release" style="stroke:#181818;stroke-width:1.0;"/><polygon fill="#181818" points="1161.51,467.5369,1153.7551,461.4655,1156.6605,466.3192,1151.8068,469.2246,1161.51,467.5369" style="stroke:#181818;stroke-width:1.0;"/><text fill="#000000" font-family="sans-serif" font-size="13" lengthAdjust="spacing" textLength="131.1172" x="1017.89" y="362.5838">ext. release process</text></g><!--link DataDev to DEV_QA_test--><g id="link_DataDev_DEV_QA_test"><path d="M303.95,115.0969 C332.49,143.2869 368.1606,178.5212 389.6006,199.6912 " fill="none" id="DataDev-to-DEV_QA_test" style="stroke:#181818;stroke-width:1.0;"/><polygon fill="#181818" points="393.87,203.9069,390.2763,194.7371,390.3121,200.3938,384.6554,200.4297,393.87,203.9069" style="stroke:#181818;stroke-width:1.0;"/></g><!--link QA to DEV_QA_test--><g id="link_QA_DEV_QA_test"><path d="M683,100.7769 C636.09,120.4269 559.6,152.6369 493.89,181.0969 C475.82,188.9269 461.1495,195.3925 445.0095,202.5925 " fill="none" id="QA-to-DEV_QA_test" style="stroke:#181818;stroke-width:1.0;"/><polygon fill="#181818" points="439.53,205.0369,449.3788,205.0233,444.0963,202.9999,446.1197,197.7173,439.53,205.0369" style="stroke:#181818;stroke-width:1.0;"/></g><!--link QA to QA_signoff--><g id="link_QA_QA_signoff"><path d="M770.61,112.6969 C807.34,138.1069 854.0356,170.4135 886.9956,193.2135 " fill="none" id="QA-to-QA_signoff" style="stroke:#181818;stroke-width:1.0;"/><polygon fill="#181818" points="891.93,196.6269,886.8039,188.2172,887.818,193.7824,882.2527,194.7964,891.93,196.6269" style="stroke:#181818;stroke-width:1.0;"/></g><!--link QA_signoff to UAT_deploy--><g id="link_QA_signoff_UAT_deploy"><path d="M970.98,241.4469 C1035.51,269.8169 1144.0975,317.5418 1198.2475,341.3518 " fill="none" id="QA_signoff-to-UAT_deploy" style="stroke:#181818;stroke-width:1.0;stroke-dasharray:7.0,7.0;"/><polygon fill="#181818" points="1203.74,343.7669,1197.1113,336.4826,1199.1629,341.7543,1193.8912,343.8059,1203.74,343.7669" style="stroke:#181818;stroke-width:1.0;"/><text fill="#000000" font-family="sans-serif" font-size="13" lengthAdjust="spacing" textLength="53.46" x="1115.89" y="301.4638">approve</text></g><!--link UAT_deploy to terraform_release--><g id="link_UAT_deploy_terraform_release"><path d="M1233.89,373.8169 C1233.89,395.3369 1233.89,429.3269 1233.89,453.5169 " fill="none" id="UAT_deploy-to-terraform_release" style="stroke:#181818;stroke-width:1.0;stroke-dasharray:7.0,7.0;"/><polygon fill="#181818" points="1233.89,459.5169,1237.89,450.5169,1233.89,454.5169,1229.89,450.5169,1233.89,459.5169" style="stroke:#181818;stroke-width:1.0;"/><text fill="#000000" font-family="sans-serif" font-size="13" lengthAdjust="spacing" textLength="76.0894" x="1234.89" y="423.7138">depends on</text></g><!--link DevOps to UAT_deploy--><g id="link_DevOps_UAT_deploy"><path d="M1181.95,258.7069 C1196.6,286.4269 1212.8444,317.2032 1223.3344,337.0332 " fill="none" id="DevOps-to-UAT_deploy" style="stroke:#181818;stroke-width:1.0;"/><polygon fill="#181818" points="1226.14,342.3369,1225.4673,332.511,1223.802,337.9172,1218.3958,336.2518,1226.14,342.3369" style="stroke:#181818;stroke-width:1.0;"/><text fill="#000000" font-family="sans-serif" font-size="13" lengthAdjust="spacing" textLength="30.5386" x="1206.89" y="301.4638">ci/cd</text></g><!--link QA to UAT_test--><g id="link_QA_UAT_test"><path d="M770.7,82.5369 C893.51,83.8869 1250.46,95.4669 1530.89,181.0969 C1549.78,186.8669 1564.4582,194.2221 1578.8482,202.6221 " fill="none" id="QA-to-UAT_test" style="stroke:#181818;stroke-width:1.0;"/><polygon fill="#181818" points="1584.03,205.6469,1578.2739,197.6552,1579.7119,203.1262,1574.2408,204.5642,1584.03,205.6469" style="stroke:#181818;stroke-width:1.0;"/></g><!--link PT to UAT_test--><g id="link_PT_UAT_test"><path d="M1492.35,120.4169 C1524.8,148.7769 1562.7409,181.92 1585.0909,201.44 " fill="none" id="PT-to-UAT_test" style="stroke:#181818;stroke-width:1.0;"/><polygon fill="#181818" points="1589.61,205.3869,1585.4626,196.4538,1585.8441,202.0978,1580.2001,202.4793,1589.61,205.3869" style="stroke:#181818;stroke-width:1.0;"/></g><!--link BIDev to UAT_test--><g id="link_BIDev_UAT_test"><path d="M1604.89,120.4169 C1604.89,148.4569 1604.89,179.0469 1604.89,198.7369 " fill="none" id="BIDev-to-UAT_test" style="stroke:#181818;stroke-width:1.0;"/><polygon fill="#181818" points="1604.89,204.7369,1608.89,195.7369,1604.89,199.7369,1600.89,195.7369,1604.89,204.7369" style="stroke:#181818;stroke-width:1.0;"/></g><!--link PT to UAT_signoff--><g id="link_PT_UAT_signoff"><path d="M1436.08,120.4169 C1428,144.3569 1419.7281,168.8517 1412.7881,189.4217 " fill="none" id="PT-to-UAT_signoff" style="stroke:#181818;stroke-width:1.0;"/><polygon fill="#181818" points="1410.87,195.1069,1417.5372,187.8579,1412.4684,190.3692,1409.957,185.3004,1410.87,195.1069" style="stroke:#181818;stroke-width:1.0;"/></g><!--link UAT_signoff to PROD_deploy--><g id="link_UAT_signoff_PROD_deploy"><path d="M1403.24,244.4869 C1403.65,272.2369 1404.2218,311.4075 1404.5718,335.2075 " fill="none" id="UAT_signoff-to-PROD_deploy" style="stroke:#181818;stroke-width:1.0;stroke-dasharray:7.0,7.0;"/><polygon fill="#181818" points="1404.66,341.2069,1408.5272,332.149,1404.5865,336.2074,1400.5281,332.2667,1404.66,341.2069" style="stroke:#181818;stroke-width:1.0;"/><text fill="#000000" font-family="sans-serif" font-size="13" lengthAdjust="spacing" textLength="53.46" x="1404.89" y="301.4638">approve</text></g><!--link PROD_deploy to terraform_release--><g id="link_PROD_deploy_terraform_release"><path d="M1387.53,374.2069 C1370.72,388.6169 1344.27,410.5469 1319.89,427.6469 C1303.04,439.4669 1288.6315,448.4217 1272.4115,457.8917 " fill="none" id="PROD_deploy-to-terraform_release" style="stroke:#181818;stroke-width:1.0;stroke-dasharray:7.0,7.0;"/><polygon fill="#181818" points="1267.23,460.9169,1277.0191,459.8334,1271.5479,458.3959,1272.9855,452.9247,1267.23,460.9169" style="stroke:#181818;stroke-width:1.0;"/><text fill="#000000" font-family="sans-serif" font-size="13" lengthAdjust="spacing" textLength="76.0894" x="1341.89" y="423.7138">depends on</text></g><!--link DevOps to PROD_deploy--><g id="link_DevOps_PROD_deploy"><path d="M1229.91,258.8869 C1279.33,286.6069 1338.2661,319.6633 1373.5561,339.4433 " fill="none" id="DevOps-to-PROD_deploy" style="stroke:#181818;stroke-width:1.0;"/><polygon fill="#181818" points="1378.79,342.3769,1372.8949,334.4872,1374.4284,339.9322,1368.9834,341.4657,1378.79,342.3769" style="stroke:#181818;stroke-width:1.0;"/><text fill="#000000" font-family="sans-serif" font-size="13" lengthAdjust="spacing" textLength="30.5386" x="1312.89" y="301.4638">ci/cd</text></g><!--link PROD_deploy to PROD_bi--><g id="link_PROD_deploy_PROD_bi"><path d="M1433.49,373.3369 C1476,394.6169 1550.7345,432.0314 1599.5045,456.4414 " fill="none" id="PROD_deploy-to-PROD_bi" style="stroke:#181818;stroke-width:1.0;"/><polygon fill="#181818" points="1604.87,459.1269,1598.6121,451.5217,1600.3988,456.889,1595.0315,458.6756,1604.87,459.1269" style="stroke:#181818;stroke-width:1.0;"/></g><!--link BIDev to PROD_bi--><g id="link_BIDev_PROD_bi"><path d="M1632.73,109.3569 C1649.67,127.7469 1669.75,153.6769 1678.89,181.0969 C1711.88,280.0469 1675.2398,400.9815 1656.7298,451.6215 " fill="none" id="BIDev-to-PROD_bi" style="stroke:#181818;stroke-width:1.0;"/><polygon fill="#181818" points="1654.67,457.2569,1661.5167,450.1771,1656.3865,452.5608,1654.0029,447.4306,1654.67,457.2569" style="stroke:#181818;stroke-width:1.0;"/></g><!--SRC=[bLGzR-Cm3DtrAmXFpP1apt206nU738TyDBqrK6qw46fRXgGabtz_b6n9_kZI8G3r7ldqHD8nmbG86TwnacsDZG4ZyYyq6avO8TS87_JRKg0Pqr-YQRdYDV3SIFLkdbJB7wXbZOonv9Z2MtCL3Q9AW6iufYp9kE5Mtm7sG35BNdS1Uzqvn5_d1U25u7sh5rsXYrboKBAuvGREo6j77CvqRuPj9P-GlVrrs0i5by9XYq1-fEUEf6167jEEEwOpwd3QPnrfeq2pPAkG6oJUivVS8Glxbhl0nv1I3Y7g3whhgAYs01776w-4US9lajX0wXqPrER2RqRMt0ZPp1AfCTGCRNINNk3zOakqTRZZs_MXugQKglRZzAfASGkJCGVRzB4mpV9TN9lblYn3RpG1iYnd9gYbasJRv91jUtbVaw0r6YT4WjOggTdwoDdQZg1sfQUp6m5GRuida6TQcC4yFWMbzMi5o-Kl27EOejq86DaO0sx_9bY8OBLok9lI1dZRAdcVIJisWBOap643yj5evfDWEU1OY9nGtDeDv6AzpLX4RDra5PXzYhrhWlStzcJOw6X-ac-b1rdzpUvxSxPckx81_6TMq9-0H7FKUjIJmNXzmx-1uaRPj_ZOsOuVQVGTiVxPCr_4ObDeeEOC7Z3KejVbXR_VBnexdCVdk1BVfGJFWqE_9-4F8heUW3-pFLBhV0-rGigd6AsmG_u3]--></g></svg>